<mxfile host="app.diagrams.net" agent="Mozilla/5.0 (Windows NT 10.0; Win64; x64) AppleWebKit/537.36 (KHTML, like Gecko) Chrome/136.0.0.0 Safari/537.36 Edg/136.0.0.0" version="26.2.14">
  <diagram id="R2lEEEUBdFMjLlhIrx00" name="Page-1">
    <mxGraphModel grid="1" page="1" gridSize="10" guides="1" tooltips="1" connect="1" arrows="1" fold="1" pageScale="1" pageWidth="850" pageHeight="1100" math="0" shadow="0" extFonts="Permanent Marker^https://fonts.googleapis.com/css?family=Permanent+Marker">
      <root>
        <mxCell id="0" />
        <mxCell id="1" parent="0" />
        <mxCell id="S7bD0g3zB5Y7_rrcbHBR-1" value="Maquinas" style="rounded=0;whiteSpace=wrap;html=1;" vertex="1" parent="1">
          <mxGeometry x="160" y="140" width="100" height="40" as="geometry" />
        </mxCell>
        <mxCell id="S7bD0g3zB5Y7_rrcbHBR-4" value="&lt;u&gt;IdMaquina&lt;/u&gt;&lt;div&gt;Nombre&lt;/div&gt;&lt;div&gt;estadoReparacion&lt;/div&gt;&lt;div&gt;estadoUso&lt;/div&gt;" style="ellipse;whiteSpace=wrap;html=1;" vertex="1" parent="1">
          <mxGeometry x="20" y="50" width="120" height="80" as="geometry" />
        </mxCell>
        <mxCell id="S7bD0g3zB5Y7_rrcbHBR-5" value="" style="endArrow=none;html=1;rounded=0;exitX=0.5;exitY=1;exitDx=0;exitDy=0;entryX=0.5;entryY=0;entryDx=0;entryDy=0;" edge="1" parent="1" source="S7bD0g3zB5Y7_rrcbHBR-4" target="S7bD0g3zB5Y7_rrcbHBR-1">
          <mxGeometry width="50" height="50" relative="1" as="geometry">
            <mxPoint x="270" y="250" as="sourcePoint" />
            <mxPoint x="320" y="200" as="targetPoint" />
          </mxGeometry>
        </mxCell>
        <mxCell id="S7bD0g3zB5Y7_rrcbHBR-11" value="TipoMaquinas" style="whiteSpace=wrap;html=1;align=center;" vertex="1" parent="1">
          <mxGeometry x="160" y="350" width="100" height="40" as="geometry" />
        </mxCell>
        <mxCell id="S7bD0g3zB5Y7_rrcbHBR-12" value="&lt;u&gt;codigo&lt;/u&gt;&lt;div&gt;descripcion&lt;/div&gt;" style="ellipse;whiteSpace=wrap;html=1;align=center;" vertex="1" parent="1">
          <mxGeometry x="20" y="340" width="100" height="40" as="geometry" />
        </mxCell>
        <mxCell id="S7bD0g3zB5Y7_rrcbHBR-13" value="Maquina-Tipo" style="shape=rhombus;perimeter=rhombusPerimeter;whiteSpace=wrap;html=1;align=center;" vertex="1" parent="1">
          <mxGeometry x="150" y="230" width="120" height="60" as="geometry" />
        </mxCell>
        <mxCell id="S7bD0g3zB5Y7_rrcbHBR-16" value="1:1" style="endArrow=none;html=1;rounded=0;exitX=0.5;exitY=1;exitDx=0;exitDy=0;" edge="1" parent="1" source="S7bD0g3zB5Y7_rrcbHBR-13" target="S7bD0g3zB5Y7_rrcbHBR-11">
          <mxGeometry relative="1" as="geometry">
            <mxPoint x="210" y="230" as="sourcePoint" />
            <mxPoint x="370" y="230" as="targetPoint" />
          </mxGeometry>
        </mxCell>
        <mxCell id="S7bD0g3zB5Y7_rrcbHBR-17" value="" style="endArrow=none;html=1;rounded=0;exitX=0;exitY=0.5;exitDx=0;exitDy=0;entryX=0.98;entryY=0.7;entryDx=0;entryDy=0;entryPerimeter=0;" edge="1" parent="1" source="S7bD0g3zB5Y7_rrcbHBR-11" target="S7bD0g3zB5Y7_rrcbHBR-12">
          <mxGeometry width="50" height="50" relative="1" as="geometry">
            <mxPoint x="190" y="120" as="sourcePoint" />
            <mxPoint x="230" y="150" as="targetPoint" />
          </mxGeometry>
        </mxCell>
        <mxCell id="S7bD0g3zB5Y7_rrcbHBR-18" value="HistoricoCostos" style="shape=ext;margin=3;double=1;whiteSpace=wrap;html=1;align=center;" vertex="1" parent="1">
          <mxGeometry x="490" y="40" width="100" height="40" as="geometry" />
        </mxCell>
        <mxCell id="S7bD0g3zB5Y7_rrcbHBR-19" value="0:M" style="shape=link;html=1;rounded=0;exitX=0.5;exitY=1;exitDx=0;exitDy=0;entryX=0.5;entryY=0;entryDx=0;entryDy=0;" edge="1" parent="1" source="S7bD0g3zB5Y7_rrcbHBR-1" target="S7bD0g3zB5Y7_rrcbHBR-13">
          <mxGeometry relative="1" as="geometry">
            <mxPoint x="160" y="230" as="sourcePoint" />
            <mxPoint x="330" y="230" as="targetPoint" />
          </mxGeometry>
        </mxCell>
        <mxCell id="S7bD0g3zB5Y7_rrcbHBR-20" value="" style="resizable=0;html=1;whiteSpace=wrap;align=right;verticalAlign=bottom;" connectable="0" vertex="1" parent="S7bD0g3zB5Y7_rrcbHBR-19">
          <mxGeometry x="1" relative="1" as="geometry" />
        </mxCell>
        <mxCell id="S7bD0g3zB5Y7_rrcbHBR-21" value="Maqui-Historico" style="shape=rhombus;double=1;perimeter=rhombusPerimeter;whiteSpace=wrap;html=1;align=center;" vertex="1" parent="1">
          <mxGeometry x="300" y="30" width="120" height="60" as="geometry" />
        </mxCell>
        <mxCell id="S7bD0g3zB5Y7_rrcbHBR-22" value="0:M" style="shape=link;html=1;rounded=0;exitX=0;exitY=0.5;exitDx=0;exitDy=0;entryX=1;entryY=0.5;entryDx=0;entryDy=0;" edge="1" parent="1" source="S7bD0g3zB5Y7_rrcbHBR-18" target="S7bD0g3zB5Y7_rrcbHBR-21">
          <mxGeometry relative="1" as="geometry">
            <mxPoint x="349" y="200" as="sourcePoint" />
            <mxPoint x="349" y="250" as="targetPoint" />
          </mxGeometry>
        </mxCell>
        <mxCell id="S7bD0g3zB5Y7_rrcbHBR-23" value="" style="resizable=0;html=1;whiteSpace=wrap;align=right;verticalAlign=bottom;" connectable="0" vertex="1" parent="S7bD0g3zB5Y7_rrcbHBR-22">
          <mxGeometry x="1" relative="1" as="geometry" />
        </mxCell>
        <mxCell id="S7bD0g3zB5Y7_rrcbHBR-25" value="1:1" style="endArrow=none;html=1;rounded=0;exitX=1;exitY=0.5;exitDx=0;exitDy=0;entryX=0.5;entryY=1;entryDx=0;entryDy=0;" edge="1" parent="1" source="S7bD0g3zB5Y7_rrcbHBR-1" target="S7bD0g3zB5Y7_rrcbHBR-21">
          <mxGeometry relative="1" as="geometry">
            <mxPoint x="330" y="130" as="sourcePoint" />
            <mxPoint x="490" y="130" as="targetPoint" />
          </mxGeometry>
        </mxCell>
        <mxCell id="S7bD0g3zB5Y7_rrcbHBR-26" value="costoHora" style="ellipse;whiteSpace=wrap;html=1;align=center;" vertex="1" parent="1">
          <mxGeometry x="650" y="30" width="100" height="40" as="geometry" />
        </mxCell>
        <mxCell id="S7bD0g3zB5Y7_rrcbHBR-27" value="" style="endArrow=none;html=1;rounded=0;exitX=1;exitY=0.5;exitDx=0;exitDy=0;entryX=0;entryY=0.5;entryDx=0;entryDy=0;" edge="1" parent="1" source="S7bD0g3zB5Y7_rrcbHBR-18" target="S7bD0g3zB5Y7_rrcbHBR-26">
          <mxGeometry relative="1" as="geometry">
            <mxPoint x="540" y="130" as="sourcePoint" />
            <mxPoint x="700" y="130" as="targetPoint" />
          </mxGeometry>
        </mxCell>
        <mxCell id="S7bD0g3zB5Y7_rrcbHBR-31" value="Responsables" style="whiteSpace=wrap;html=1;align=center;" vertex="1" parent="1">
          <mxGeometry x="450" y="300" width="100" height="40" as="geometry" />
        </mxCell>
        <mxCell id="S7bD0g3zB5Y7_rrcbHBR-32" value="&lt;u&gt;Legajo&lt;/u&gt;&lt;div&gt;nomYApellido&lt;/div&gt;&lt;div&gt;cargo&lt;/div&gt;&lt;div&gt;telefono&lt;/div&gt;&lt;div&gt;mail&lt;/div&gt;" style="ellipse;whiteSpace=wrap;html=1;align=center;" vertex="1" parent="1">
          <mxGeometry x="280" y="310" width="100" height="80" as="geometry" />
        </mxCell>
        <mxCell id="S7bD0g3zB5Y7_rrcbHBR-33" value="" style="endArrow=none;html=1;rounded=0;exitX=0;exitY=0.5;exitDx=0;exitDy=0;entryX=1;entryY=0.5;entryDx=0;entryDy=0;" edge="1" parent="1" source="S7bD0g3zB5Y7_rrcbHBR-31" target="S7bD0g3zB5Y7_rrcbHBR-32">
          <mxGeometry relative="1" as="geometry">
            <mxPoint x="650" y="-30" as="sourcePoint" />
            <mxPoint x="710" y="-40" as="targetPoint" />
          </mxGeometry>
        </mxCell>
        <mxCell id="S7bD0g3zB5Y7_rrcbHBR-34" value="Obras" style="whiteSpace=wrap;html=1;align=center;" vertex="1" parent="1">
          <mxGeometry x="450" y="140" width="100" height="40" as="geometry" />
        </mxCell>
        <mxCell id="S7bD0g3zB5Y7_rrcbHBR-36" value="&lt;u&gt;codigoObra&lt;/u&gt;&lt;div&gt;nombre&lt;/div&gt;" style="ellipse;whiteSpace=wrap;html=1;align=center;" vertex="1" parent="1">
          <mxGeometry x="580" y="90" width="100" height="40" as="geometry" />
        </mxCell>
        <mxCell id="S7bD0g3zB5Y7_rrcbHBR-37" value="" style="endArrow=none;html=1;rounded=0;exitX=1;exitY=0.5;exitDx=0;exitDy=0;entryX=0;entryY=0.5;entryDx=0;entryDy=0;" edge="1" parent="1" source="S7bD0g3zB5Y7_rrcbHBR-34" target="S7bD0g3zB5Y7_rrcbHBR-36">
          <mxGeometry relative="1" as="geometry">
            <mxPoint x="450" y="190" as="sourcePoint" />
            <mxPoint x="610" y="190" as="targetPoint" />
          </mxGeometry>
        </mxCell>
        <mxCell id="S7bD0g3zB5Y7_rrcbHBR-38" value="direccion" style="ellipse;whiteSpace=wrap;html=1;align=center;" vertex="1" parent="1">
          <mxGeometry x="590" y="145" width="100" height="40" as="geometry" />
        </mxCell>
        <mxCell id="S7bD0g3zB5Y7_rrcbHBR-39" value="nro" style="ellipse;whiteSpace=wrap;html=1;align=center;" vertex="1" parent="1">
          <mxGeometry x="710" y="110" width="80" height="30" as="geometry" />
        </mxCell>
        <mxCell id="S7bD0g3zB5Y7_rrcbHBR-40" value="calle" style="ellipse;whiteSpace=wrap;html=1;align=center;" vertex="1" parent="1">
          <mxGeometry x="710" y="160" width="80" height="30" as="geometry" />
        </mxCell>
        <mxCell id="S7bD0g3zB5Y7_rrcbHBR-41" value="" style="endArrow=none;html=1;rounded=0;entryX=0;entryY=0.5;entryDx=0;entryDy=0;exitX=1;exitY=0.5;exitDx=0;exitDy=0;" edge="1" parent="1" source="S7bD0g3zB5Y7_rrcbHBR-34" target="S7bD0g3zB5Y7_rrcbHBR-38">
          <mxGeometry relative="1" as="geometry">
            <mxPoint x="580" y="190" as="sourcePoint" />
            <mxPoint x="620" y="150" as="targetPoint" />
          </mxGeometry>
        </mxCell>
        <mxCell id="S7bD0g3zB5Y7_rrcbHBR-42" value="" style="endArrow=none;html=1;rounded=0;entryX=0;entryY=0.5;entryDx=0;entryDy=0;exitX=1;exitY=0.5;exitDx=0;exitDy=0;" edge="1" parent="1" source="S7bD0g3zB5Y7_rrcbHBR-38" target="S7bD0g3zB5Y7_rrcbHBR-39">
          <mxGeometry relative="1" as="geometry">
            <mxPoint x="590" y="200" as="sourcePoint" />
            <mxPoint x="630" y="220" as="targetPoint" />
          </mxGeometry>
        </mxCell>
        <mxCell id="S7bD0g3zB5Y7_rrcbHBR-43" value="" style="endArrow=none;html=1;rounded=0;entryX=0;entryY=0.5;entryDx=0;entryDy=0;exitX=1;exitY=0.5;exitDx=0;exitDy=0;" edge="1" parent="1" source="S7bD0g3zB5Y7_rrcbHBR-38" target="S7bD0g3zB5Y7_rrcbHBR-40">
          <mxGeometry relative="1" as="geometry">
            <mxPoint x="730" y="220" as="sourcePoint" />
            <mxPoint x="770" y="185" as="targetPoint" />
          </mxGeometry>
        </mxCell>
        <mxCell id="S7bD0g3zB5Y7_rrcbHBR-44" value="Localidades" style="whiteSpace=wrap;html=1;align=center;" vertex="1" parent="1">
          <mxGeometry x="640" y="410" width="100" height="40" as="geometry" />
        </mxCell>
        <mxCell id="S7bD0g3zB5Y7_rrcbHBR-45" value="Provincia" style="whiteSpace=wrap;html=1;align=center;" vertex="1" parent="1">
          <mxGeometry x="640" y="580" width="100" height="40" as="geometry" />
        </mxCell>
        <mxCell id="S7bD0g3zB5Y7_rrcbHBR-46" value="&lt;u&gt;numeroProv&lt;/u&gt;&lt;div&gt;nombre&lt;/div&gt;" style="ellipse;whiteSpace=wrap;html=1;align=center;" vertex="1" parent="1">
          <mxGeometry x="740" y="560" width="100" height="40" as="geometry" />
        </mxCell>
        <mxCell id="S7bD0g3zB5Y7_rrcbHBR-47" value="&lt;u&gt;codigoPostal&lt;/u&gt;&lt;div&gt;nombreLocalidad&lt;/div&gt;" style="ellipse;whiteSpace=wrap;html=1;align=center;" vertex="1" parent="1">
          <mxGeometry x="720" y="464.84000000000003" width="110" height="50" as="geometry" />
        </mxCell>
        <mxCell id="S7bD0g3zB5Y7_rrcbHBR-48" value="" style="endArrow=none;html=1;rounded=0;entryX=0;entryY=0.5;entryDx=0;entryDy=0;exitX=1;exitY=0.5;exitDx=0;exitDy=0;" edge="1" parent="1" source="S7bD0g3zB5Y7_rrcbHBR-44" target="S7bD0g3zB5Y7_rrcbHBR-47">
          <mxGeometry relative="1" as="geometry">
            <mxPoint x="960" y="320" as="sourcePoint" />
            <mxPoint x="990" y="340" as="targetPoint" />
          </mxGeometry>
        </mxCell>
        <mxCell id="S7bD0g3zB5Y7_rrcbHBR-49" value="" style="endArrow=none;html=1;rounded=0;exitX=1;exitY=0.5;exitDx=0;exitDy=0;entryX=0;entryY=0.5;entryDx=0;entryDy=0;" edge="1" parent="1" source="S7bD0g3zB5Y7_rrcbHBR-45" target="S7bD0g3zB5Y7_rrcbHBR-46">
          <mxGeometry relative="1" as="geometry">
            <mxPoint x="960" y="450" as="sourcePoint" />
            <mxPoint x="980" y="520" as="targetPoint" />
          </mxGeometry>
        </mxCell>
        <mxCell id="S7bD0g3zB5Y7_rrcbHBR-50" value="Oficiales" style="whiteSpace=wrap;html=1;align=center;" vertex="1" parent="1">
          <mxGeometry x="300" y="474.84" width="100" height="40" as="geometry" />
        </mxCell>
        <mxCell id="S7bD0g3zB5Y7_rrcbHBR-52" value="Reserva" style="shape=ext;margin=3;double=1;whiteSpace=wrap;html=1;align=center;" vertex="1" parent="1">
          <mxGeometry x="1225" y="190" width="100" height="40" as="geometry" />
        </mxCell>
        <mxCell id="S7bD0g3zB5Y7_rrcbHBR-54" value="DirectorObra" style="whiteSpace=wrap;html=1;align=center;" vertex="1" parent="1">
          <mxGeometry x="410" y="475" width="100" height="40" as="geometry" />
        </mxCell>
        <mxCell id="S7bD0g3zB5Y7_rrcbHBR-55" value="EncargadoObrador" style="whiteSpace=wrap;html=1;align=center;" vertex="1" parent="1">
          <mxGeometry x="520" y="474.84" width="110" height="40" as="geometry" />
        </mxCell>
        <mxCell id="S7bD0g3zB5Y7_rrcbHBR-57" value="D" style="ellipse;whiteSpace=wrap;html=1;align=center;" vertex="1" parent="1">
          <mxGeometry x="430" y="380" width="40" height="40" as="geometry" />
        </mxCell>
        <mxCell id="S7bD0g3zB5Y7_rrcbHBR-58" value="" style="shape=link;html=1;rounded=0;exitX=0.5;exitY=1;exitDx=0;exitDy=0;entryX=0.5;entryY=0;entryDx=0;entryDy=0;" edge="1" parent="1" source="S7bD0g3zB5Y7_rrcbHBR-31" target="S7bD0g3zB5Y7_rrcbHBR-57">
          <mxGeometry relative="1" as="geometry">
            <mxPoint x="400" y="410" as="sourcePoint" />
            <mxPoint x="560" y="410" as="targetPoint" />
          </mxGeometry>
        </mxCell>
        <mxCell id="S7bD0g3zB5Y7_rrcbHBR-59" value="" style="resizable=0;html=1;whiteSpace=wrap;align=right;verticalAlign=bottom;" connectable="0" vertex="1" parent="S7bD0g3zB5Y7_rrcbHBR-58">
          <mxGeometry x="1" relative="1" as="geometry" />
        </mxCell>
        <mxCell id="S7bD0g3zB5Y7_rrcbHBR-61" value="" style="endArrow=none;html=1;rounded=0;exitX=0;exitY=0.5;exitDx=0;exitDy=0;entryX=0.5;entryY=0;entryDx=0;entryDy=0;" edge="1" parent="1" source="S7bD0g3zB5Y7_rrcbHBR-57">
          <mxGeometry relative="1" as="geometry">
            <mxPoint x="430" y="360" as="sourcePoint" />
            <mxPoint x="350" y="475" as="targetPoint" />
          </mxGeometry>
        </mxCell>
        <mxCell id="S7bD0g3zB5Y7_rrcbHBR-62" value="" style="endArrow=none;html=1;rounded=0;exitX=0.5;exitY=1;exitDx=0;exitDy=0;entryX=0.5;entryY=0;entryDx=0;entryDy=0;" edge="1" parent="1" source="S7bD0g3zB5Y7_rrcbHBR-57" target="S7bD0g3zB5Y7_rrcbHBR-54">
          <mxGeometry relative="1" as="geometry">
            <mxPoint x="440" y="410" as="sourcePoint" />
            <mxPoint x="360" y="485" as="targetPoint" />
          </mxGeometry>
        </mxCell>
        <mxCell id="S7bD0g3zB5Y7_rrcbHBR-63" value="" style="endArrow=none;html=1;rounded=0;exitX=1;exitY=0.5;exitDx=0;exitDy=0;entryX=0.5;entryY=0;entryDx=0;entryDy=0;" edge="1" parent="1" source="S7bD0g3zB5Y7_rrcbHBR-57">
          <mxGeometry relative="1" as="geometry">
            <mxPoint x="440" y="410" as="sourcePoint" />
            <mxPoint x="575" y="475" as="targetPoint" />
          </mxGeometry>
        </mxCell>
        <mxCell id="S7bD0g3zB5Y7_rrcbHBR-64" value="D" style="ellipse;whiteSpace=wrap;html=1;align=center;" vertex="1" parent="1">
          <mxGeometry x="330" y="540" width="40" height="40" as="geometry" />
        </mxCell>
        <mxCell id="S7bD0g3zB5Y7_rrcbHBR-67" value="" style="shape=link;html=1;rounded=0;exitX=0.5;exitY=1;exitDx=0;exitDy=0;entryX=0.5;entryY=0;entryDx=0;entryDy=0;" edge="1" parent="1">
          <mxGeometry relative="1" as="geometry">
            <mxPoint x="350" y="515" as="sourcePoint" />
            <mxPoint x="350" y="540" as="targetPoint" />
          </mxGeometry>
        </mxCell>
        <mxCell id="S7bD0g3zB5Y7_rrcbHBR-69" value="Calificados" style="whiteSpace=wrap;html=1;align=center;" vertex="1" parent="1">
          <mxGeometry x="110" y="540" width="100" height="40" as="geometry" />
        </mxCell>
        <mxCell id="S7bD0g3zB5Y7_rrcbHBR-70" value="No-calificados" style="whiteSpace=wrap;html=1;align=center;" vertex="1" parent="1">
          <mxGeometry x="110" y="600" width="100" height="40" as="geometry" />
        </mxCell>
        <mxCell id="S7bD0g3zB5Y7_rrcbHBR-71" value="" style="endArrow=none;html=1;rounded=0;exitX=1;exitY=0.5;exitDx=0;exitDy=0;entryX=0;entryY=0.5;entryDx=0;entryDy=0;" edge="1" parent="1" source="S7bD0g3zB5Y7_rrcbHBR-69" target="S7bD0g3zB5Y7_rrcbHBR-64">
          <mxGeometry relative="1" as="geometry">
            <mxPoint x="160" y="460" as="sourcePoint" />
            <mxPoint x="320" y="460" as="targetPoint" />
          </mxGeometry>
        </mxCell>
        <mxCell id="S7bD0g3zB5Y7_rrcbHBR-72" value="" style="endArrow=none;html=1;rounded=0;exitX=1;exitY=0.5;exitDx=0;exitDy=0;entryX=0.5;entryY=1;entryDx=0;entryDy=0;" edge="1" parent="1" source="S7bD0g3zB5Y7_rrcbHBR-70" target="S7bD0g3zB5Y7_rrcbHBR-64">
          <mxGeometry relative="1" as="geometry">
            <mxPoint x="170" y="540" as="sourcePoint" />
            <mxPoint x="270" y="570" as="targetPoint" />
          </mxGeometry>
        </mxCell>
        <mxCell id="S7bD0g3zB5Y7_rrcbHBR-73" value="Uso-Tipo" style="shape=rhombus;perimeter=rhombusPerimeter;whiteSpace=wrap;html=1;align=center;" vertex="1" parent="1">
          <mxGeometry x="110" y="425" width="100" height="60" as="geometry" />
        </mxCell>
        <mxCell id="S7bD0g3zB5Y7_rrcbHBR-75" value="1:M" style="endArrow=none;html=1;rounded=0;exitX=0.5;exitY=1;exitDx=0;exitDy=0;entryX=0.5;entryY=0;entryDx=0;entryDy=0;" edge="1" parent="1" source="S7bD0g3zB5Y7_rrcbHBR-11" target="S7bD0g3zB5Y7_rrcbHBR-73">
          <mxGeometry x="-0.0101" relative="1" as="geometry">
            <mxPoint x="220" y="300" as="sourcePoint" />
            <mxPoint x="220" y="360" as="targetPoint" />
            <mxPoint as="offset" />
          </mxGeometry>
        </mxCell>
        <mxCell id="S7bD0g3zB5Y7_rrcbHBR-76" value="0:N" style="shape=link;html=1;rounded=0;exitX=0.5;exitY=1;exitDx=0;exitDy=0;entryX=0.5;entryY=0;entryDx=0;entryDy=0;" edge="1" parent="1" source="S7bD0g3zB5Y7_rrcbHBR-73" target="S7bD0g3zB5Y7_rrcbHBR-69">
          <mxGeometry relative="1" as="geometry">
            <mxPoint x="50" y="430" as="sourcePoint" />
            <mxPoint x="50" y="480" as="targetPoint" />
          </mxGeometry>
        </mxCell>
        <mxCell id="S7bD0g3zB5Y7_rrcbHBR-77" value="" style="resizable=0;html=1;whiteSpace=wrap;align=right;verticalAlign=bottom;" connectable="0" vertex="1" parent="S7bD0g3zB5Y7_rrcbHBR-76">
          <mxGeometry x="1" relative="1" as="geometry" />
        </mxCell>
        <mxCell id="S7bD0g3zB5Y7_rrcbHBR-78" value="&lt;span style=&quot;border-bottom: 1px dotted&quot;&gt;fecha&lt;/span&gt;&lt;div&gt;&lt;span style=&quot;border-bottom: 1px dotted&quot;&gt;hora&lt;/span&gt;&lt;/div&gt;&lt;div&gt;fechaActividad&lt;/div&gt;&lt;div&gt;estadoReserva&lt;/div&gt;" style="ellipse;whiteSpace=wrap;html=1;align=center;" vertex="1" parent="1">
          <mxGeometry x="1410" y="70" width="120" height="80" as="geometry" />
        </mxCell>
        <mxCell id="S7bD0g3zB5Y7_rrcbHBR-79" value="" style="endArrow=none;html=1;rounded=0;exitX=0.5;exitY=0;exitDx=0;exitDy=0;entryX=0;entryY=0.5;entryDx=0;entryDy=0;" edge="1" parent="1" source="S7bD0g3zB5Y7_rrcbHBR-52" target="S7bD0g3zB5Y7_rrcbHBR-78">
          <mxGeometry relative="1" as="geometry">
            <mxPoint x="1380" y="170" as="sourcePoint" />
            <mxPoint x="1540" y="170" as="targetPoint" />
          </mxGeometry>
        </mxCell>
        <mxCell id="S7bD0g3zB5Y7_rrcbHBR-80" value="cantidadHorasUso" style="ellipse;whiteSpace=wrap;html=1;align=center;" vertex="1" parent="1">
          <mxGeometry x="1300" y="50" width="110" height="40" as="geometry" />
        </mxCell>
        <mxCell id="S7bD0g3zB5Y7_rrcbHBR-81" value="" style="endArrow=none;html=1;rounded=0;exitX=0.5;exitY=0;exitDx=0;exitDy=0;entryX=0.5;entryY=1;entryDx=0;entryDy=0;" edge="1" parent="1" source="S7bD0g3zB5Y7_rrcbHBR-52" target="S7bD0g3zB5Y7_rrcbHBR-80">
          <mxGeometry relative="1" as="geometry">
            <mxPoint x="1360" y="190" as="sourcePoint" />
            <mxPoint x="1420" y="120" as="targetPoint" />
          </mxGeometry>
        </mxCell>
        <mxCell id="S7bD0g3zB5Y7_rrcbHBR-82" value="fechaCancelacion" style="ellipse;whiteSpace=wrap;html=1;align=center;" vertex="1" parent="1">
          <mxGeometry x="1210" y="90" width="110" height="40" as="geometry" />
        </mxCell>
        <mxCell id="S7bD0g3zB5Y7_rrcbHBR-83" value="" style="endArrow=none;html=1;rounded=0;exitX=0.5;exitY=0;exitDx=0;exitDy=0;entryX=0.5;entryY=1;entryDx=0;entryDy=0;" edge="1" parent="1" source="S7bD0g3zB5Y7_rrcbHBR-52" target="S7bD0g3zB5Y7_rrcbHBR-82">
          <mxGeometry relative="1" as="geometry">
            <mxPoint x="1360" y="190" as="sourcePoint" />
            <mxPoint x="1365" y="100" as="targetPoint" />
          </mxGeometry>
        </mxCell>
        <mxCell id="S7bD0g3zB5Y7_rrcbHBR-85" value="Retira" style="shape=rhombus;perimeter=rhombusPerimeter;whiteSpace=wrap;html=1;align=center;" vertex="1" parent="1">
          <mxGeometry x="320" y="170" width="100" height="50" as="geometry" />
        </mxCell>
        <mxCell id="S7bD0g3zB5Y7_rrcbHBR-86" value="Realiza" style="shape=rhombus;perimeter=rhombusPerimeter;whiteSpace=wrap;html=1;align=center;" vertex="1" parent="1">
          <mxGeometry x="630" y="310" width="120" height="60" as="geometry" />
        </mxCell>
        <mxCell id="S7bD0g3zB5Y7_rrcbHBR-87" value="0:M" style="endArrow=none;html=1;rounded=0;exitX=0.5;exitY=1;exitDx=0;exitDy=0;entryX=0.5;entryY=0;entryDx=0;entryDy=0;" edge="1" parent="1" source="S7bD0g3zB5Y7_rrcbHBR-34" target="S7bD0g3zB5Y7_rrcbHBR-86">
          <mxGeometry relative="1" as="geometry">
            <mxPoint x="600" y="370" as="sourcePoint" />
            <mxPoint x="760" y="370" as="targetPoint" />
          </mxGeometry>
        </mxCell>
        <mxCell id="S7bD0g3zB5Y7_rrcbHBR-88" value="0:1" style="endArrow=none;html=1;rounded=0;exitX=0.5;exitY=1;exitDx=0;exitDy=0;entryX=0.5;entryY=0;entryDx=0;entryDy=0;" edge="1" parent="1" source="S7bD0g3zB5Y7_rrcbHBR-86" target="S7bD0g3zB5Y7_rrcbHBR-44">
          <mxGeometry relative="1" as="geometry">
            <mxPoint x="530" y="210" as="sourcePoint" />
            <mxPoint x="750" y="345" as="targetPoint" />
          </mxGeometry>
        </mxCell>
        <mxCell id="S7bD0g3zB5Y7_rrcbHBR-90" value="1:1" style="endArrow=none;html=1;rounded=0;exitX=0.5;exitY=1;exitDx=0;exitDy=0;" edge="1" parent="1" source="S7bD0g3zB5Y7_rrcbHBR-91" target="S7bD0g3zB5Y7_rrcbHBR-45">
          <mxGeometry relative="1" as="geometry">
            <mxPoint x="530" y="210" as="sourcePoint" />
            <mxPoint x="750" y="345" as="targetPoint" />
          </mxGeometry>
        </mxCell>
        <mxCell id="S7bD0g3zB5Y7_rrcbHBR-92" value="1:M" style="endArrow=none;html=1;rounded=0;exitX=0.5;exitY=1;exitDx=0;exitDy=0;entryX=0.5;entryY=0;entryDx=0;entryDy=0;" edge="1" parent="1" source="S7bD0g3zB5Y7_rrcbHBR-44" target="S7bD0g3zB5Y7_rrcbHBR-91">
          <mxGeometry relative="1" as="geometry">
            <mxPoint x="740" y="475" as="sourcePoint" />
            <mxPoint x="740" y="550" as="targetPoint" />
          </mxGeometry>
        </mxCell>
        <mxCell id="S7bD0g3zB5Y7_rrcbHBR-91" value="Pertenece" style="shape=rhombus;perimeter=rhombusPerimeter;whiteSpace=wrap;html=1;align=center;" vertex="1" parent="1">
          <mxGeometry x="630" y="500" width="120" height="60" as="geometry" />
        </mxCell>
        <mxCell id="S7bD0g3zB5Y7_rrcbHBR-93" value="0:M" style="endArrow=none;html=1;rounded=0;exitX=1;exitY=0.5;exitDx=0;exitDy=0;entryX=0;entryY=0.5;entryDx=0;entryDy=0;" edge="1" parent="1" source="S7bD0g3zB5Y7_rrcbHBR-1" target="S7bD0g3zB5Y7_rrcbHBR-85">
          <mxGeometry relative="1" as="geometry">
            <mxPoint x="260" y="270" as="sourcePoint" />
            <mxPoint x="420" y="270" as="targetPoint" />
          </mxGeometry>
        </mxCell>
        <mxCell id="S7bD0g3zB5Y7_rrcbHBR-94" value="0:N" style="endArrow=none;html=1;rounded=0;exitX=1;exitY=0.5;exitDx=0;exitDy=0;entryX=0;entryY=0;entryDx=0;entryDy=0;" edge="1" parent="1" source="S7bD0g3zB5Y7_rrcbHBR-85" target="S7bD0g3zB5Y7_rrcbHBR-31">
          <mxGeometry relative="1" as="geometry">
            <mxPoint x="270" y="170" as="sourcePoint" />
            <mxPoint x="320" y="175" as="targetPoint" />
          </mxGeometry>
        </mxCell>
        <mxCell id="S7bD0g3zB5Y7_rrcbHBR-95" value="A-cargo" style="shape=rhombus;perimeter=rhombusPerimeter;whiteSpace=wrap;html=1;align=center;" vertex="1" parent="1">
          <mxGeometry x="450" y="220" width="100" height="50" as="geometry" />
        </mxCell>
        <mxCell id="S7bD0g3zB5Y7_rrcbHBR-96" value="0:M" style="endArrow=none;html=1;rounded=0;exitX=0.5;exitY=1;exitDx=0;exitDy=0;entryX=0.5;entryY=0;entryDx=0;entryDy=0;" edge="1" parent="1" source="S7bD0g3zB5Y7_rrcbHBR-34" target="S7bD0g3zB5Y7_rrcbHBR-95">
          <mxGeometry relative="1" as="geometry">
            <mxPoint x="260" y="270" as="sourcePoint" />
            <mxPoint x="420" y="270" as="targetPoint" />
          </mxGeometry>
        </mxCell>
        <mxCell id="S7bD0g3zB5Y7_rrcbHBR-97" value="0:N" style="endArrow=none;html=1;rounded=0;exitX=0.5;exitY=0;exitDx=0;exitDy=0;entryX=0.5;entryY=1;entryDx=0;entryDy=0;" edge="1" parent="1" source="S7bD0g3zB5Y7_rrcbHBR-31" target="S7bD0g3zB5Y7_rrcbHBR-95">
          <mxGeometry relative="1" as="geometry">
            <mxPoint x="510" y="190" as="sourcePoint" />
            <mxPoint x="410" y="240" as="targetPoint" />
          </mxGeometry>
        </mxCell>
        <mxCell id="S7bD0g3zB5Y7_rrcbHBR-100" value="" style="endArrow=none;html=1;rounded=0;" edge="1" parent="1">
          <mxGeometry relative="1" as="geometry">
            <mxPoint x="140" y="110" as="sourcePoint" />
            <mxPoint x="560" y="110" as="targetPoint" />
          </mxGeometry>
        </mxCell>
        <mxCell id="S7bD0g3zB5Y7_rrcbHBR-102" value="" style="endArrow=none;html=1;rounded=0;" edge="1" parent="1">
          <mxGeometry relative="1" as="geometry">
            <mxPoint x="560" y="110" as="sourcePoint" />
            <mxPoint x="560" y="360" as="targetPoint" />
          </mxGeometry>
        </mxCell>
        <mxCell id="S7bD0g3zB5Y7_rrcbHBR-103" value="" style="endArrow=none;html=1;rounded=0;" edge="1" parent="1">
          <mxGeometry relative="1" as="geometry">
            <mxPoint x="430" y="359.5" as="sourcePoint" />
            <mxPoint x="560" y="359.5" as="targetPoint" />
          </mxGeometry>
        </mxCell>
        <mxCell id="S7bD0g3zB5Y7_rrcbHBR-104" value="1:1" style="endArrow=none;html=1;rounded=0;" edge="1" parent="1">
          <mxGeometry relative="1" as="geometry">
            <mxPoint x="560" y="210" as="sourcePoint" />
            <mxPoint x="924" y="210" as="targetPoint" />
          </mxGeometry>
        </mxCell>
        <mxCell id="S7bD0g3zB5Y7_rrcbHBR-105" value="Relationship" style="shape=rhombus;double=1;perimeter=rhombusPerimeter;whiteSpace=wrap;html=1;align=center;" vertex="1" parent="1">
          <mxGeometry x="920" y="180" width="120" height="60" as="geometry" />
        </mxCell>
        <mxCell id="S7bD0g3zB5Y7_rrcbHBR-106" value="" style="endArrow=none;html=1;rounded=0;" edge="1" parent="1">
          <mxGeometry relative="1" as="geometry">
            <mxPoint x="140" y="110" as="sourcePoint" />
            <mxPoint x="140" y="190" as="targetPoint" />
          </mxGeometry>
        </mxCell>
        <mxCell id="S7bD0g3zB5Y7_rrcbHBR-107" value="" style="endArrow=none;html=1;rounded=0;" edge="1" parent="1">
          <mxGeometry relative="1" as="geometry">
            <mxPoint x="140" y="190" as="sourcePoint" />
            <mxPoint x="290" y="190" as="targetPoint" />
          </mxGeometry>
        </mxCell>
        <mxCell id="S7bD0g3zB5Y7_rrcbHBR-109" value="" style="endArrow=none;html=1;rounded=0;" edge="1" parent="1">
          <mxGeometry relative="1" as="geometry">
            <mxPoint x="290" y="190" as="sourcePoint" />
            <mxPoint x="290" y="280" as="targetPoint" />
          </mxGeometry>
        </mxCell>
        <mxCell id="S7bD0g3zB5Y7_rrcbHBR-110" value="" style="endArrow=none;html=1;rounded=0;" edge="1" parent="1">
          <mxGeometry relative="1" as="geometry">
            <mxPoint x="430" y="280" as="sourcePoint" />
            <mxPoint x="430" y="360" as="targetPoint" />
          </mxGeometry>
        </mxCell>
        <mxCell id="S7bD0g3zB5Y7_rrcbHBR-111" value="" style="endArrow=none;html=1;rounded=0;" edge="1" parent="1">
          <mxGeometry relative="1" as="geometry">
            <mxPoint x="290" y="280" as="sourcePoint" />
            <mxPoint x="430" y="280" as="targetPoint" />
          </mxGeometry>
        </mxCell>
        <mxCell id="S7bD0g3zB5Y7_rrcbHBR-118" value="0:1" style="shape=link;html=1;rounded=0;exitX=1;exitY=0.5;exitDx=0;exitDy=0;entryX=0;entryY=0.5;entryDx=0;entryDy=0;" edge="1" parent="1" source="S7bD0g3zB5Y7_rrcbHBR-105" target="S7bD0g3zB5Y7_rrcbHBR-52">
          <mxGeometry relative="1" as="geometry">
            <mxPoint x="1020" y="170" as="sourcePoint" />
            <mxPoint x="1220" y="210" as="targetPoint" />
          </mxGeometry>
        </mxCell>
        <mxCell id="S7bD0g3zB5Y7_rrcbHBR-121" value="&lt;h1 style=&quot;margin-top: 0px;&quot;&gt;Resolución-Inicial&lt;/h1&gt;" style="text;html=1;whiteSpace=wrap;overflow=hidden;rounded=0;" vertex="1" parent="1">
          <mxGeometry x="20" y="10" width="230" height="40" as="geometry" />
        </mxCell>
        <mxCell id="S7bD0g3zB5Y7_rrcbHBR-122" value="&lt;h1 style=&quot;margin-top: 0px;&quot;&gt;Corrección&lt;/h1&gt;" style="text;html=1;whiteSpace=wrap;overflow=hidden;rounded=0;" vertex="1" parent="1">
          <mxGeometry x="40" y="720" width="180" height="40" as="geometry" />
        </mxCell>
        <mxCell id="S7bD0g3zB5Y7_rrcbHBR-123" value="Maquinas" style="rounded=0;whiteSpace=wrap;html=1;" vertex="1" parent="1">
          <mxGeometry x="180" y="900" width="100" height="40" as="geometry" />
        </mxCell>
        <mxCell id="S7bD0g3zB5Y7_rrcbHBR-124" value="&lt;u&gt;IdMaquina&lt;/u&gt;&lt;div&gt;Nombre&lt;/div&gt;&lt;div&gt;&lt;font style=&quot;color: rgb(255, 102, 102);&quot;&gt;estado&lt;/font&gt;&lt;/div&gt;" style="ellipse;whiteSpace=wrap;html=1;" vertex="1" parent="1">
          <mxGeometry x="170" y="820" width="120" height="80" as="geometry" />
        </mxCell>
        <mxCell id="S7bD0g3zB5Y7_rrcbHBR-125" value="" style="endArrow=none;html=1;rounded=0;exitX=0.5;exitY=1;exitDx=0;exitDy=0;entryX=0.5;entryY=0;entryDx=0;entryDy=0;" edge="1" parent="1" source="S7bD0g3zB5Y7_rrcbHBR-124" target="S7bD0g3zB5Y7_rrcbHBR-123">
          <mxGeometry width="50" height="50" relative="1" as="geometry">
            <mxPoint x="290" y="1010" as="sourcePoint" />
            <mxPoint x="340" y="960" as="targetPoint" />
          </mxGeometry>
        </mxCell>
        <mxCell id="S7bD0g3zB5Y7_rrcbHBR-126" value="HistoricoCostos" style="shape=ext;margin=3;double=1;whiteSpace=wrap;html=1;align=center;" vertex="1" parent="1">
          <mxGeometry x="510" y="800" width="100" height="40" as="geometry" />
        </mxCell>
        <mxCell id="S7bD0g3zB5Y7_rrcbHBR-127" value="Maqui-Historico" style="shape=rhombus;double=1;perimeter=rhombusPerimeter;whiteSpace=wrap;html=1;align=center;" vertex="1" parent="1">
          <mxGeometry x="320" y="790" width="120" height="60" as="geometry" />
        </mxCell>
        <mxCell id="S7bD0g3zB5Y7_rrcbHBR-128" value="0:M" style="shape=link;html=1;rounded=0;exitX=0;exitY=0.5;exitDx=0;exitDy=0;entryX=1;entryY=0.5;entryDx=0;entryDy=0;" edge="1" parent="1" source="S7bD0g3zB5Y7_rrcbHBR-126" target="S7bD0g3zB5Y7_rrcbHBR-127">
          <mxGeometry relative="1" as="geometry">
            <mxPoint x="369" y="960" as="sourcePoint" />
            <mxPoint x="369" y="1010" as="targetPoint" />
          </mxGeometry>
        </mxCell>
        <mxCell id="S7bD0g3zB5Y7_rrcbHBR-129" value="" style="resizable=0;html=1;whiteSpace=wrap;align=right;verticalAlign=bottom;" connectable="0" vertex="1" parent="S7bD0g3zB5Y7_rrcbHBR-128">
          <mxGeometry x="1" relative="1" as="geometry" />
        </mxCell>
        <mxCell id="S7bD0g3zB5Y7_rrcbHBR-130" value="1:1" style="endArrow=none;html=1;rounded=0;exitX=1;exitY=0;exitDx=0;exitDy=0;entryX=0.5;entryY=1;entryDx=0;entryDy=0;" edge="1" parent="1" source="S7bD0g3zB5Y7_rrcbHBR-123" target="S7bD0g3zB5Y7_rrcbHBR-127">
          <mxGeometry relative="1" as="geometry">
            <mxPoint x="350" y="890" as="sourcePoint" />
            <mxPoint x="510" y="890" as="targetPoint" />
          </mxGeometry>
        </mxCell>
        <mxCell id="S7bD0g3zB5Y7_rrcbHBR-132" value="" style="endArrow=none;html=1;rounded=0;exitX=1;exitY=0.5;exitDx=0;exitDy=0;entryX=0;entryY=0.5;entryDx=0;entryDy=0;" edge="1" parent="1" source="S7bD0g3zB5Y7_rrcbHBR-126" target="S7bD0g3zB5Y7_rrcbHBR-147">
          <mxGeometry relative="1" as="geometry">
            <mxPoint x="560" y="890" as="sourcePoint" />
            <mxPoint x="670" y="810" as="targetPoint" />
          </mxGeometry>
        </mxCell>
        <mxCell id="S7bD0g3zB5Y7_rrcbHBR-147" value="&lt;span style=&quot;border-bottom: 1px dotted&quot;&gt;fechaDesde&lt;/span&gt;&lt;div&gt;&lt;font style=&quot;color: rgb(255, 102, 102);&quot;&gt;costoHora&lt;/font&gt;&lt;/div&gt;" style="ellipse;whiteSpace=wrap;html=1;align=center;" vertex="1" parent="1">
          <mxGeometry x="650" y="780" width="100" height="40" as="geometry" />
        </mxCell>
        <mxCell id="S7bD0g3zB5Y7_rrcbHBR-148" value="Como no se detalla cada cuanto cambia el precio de los históricos, con el atributo &lt;b&gt;fechaDesde&lt;/b&gt;&amp;nbsp;es suficiente, de lo contrario podría ser necesario un atributo &lt;b&gt;hora&lt;/b&gt;" style="shape=note;whiteSpace=wrap;html=1;backgroundOutline=1;darkOpacity=0.05;fillColor=#FFFFCC;" vertex="1" parent="1">
          <mxGeometry x="780" y="735" width="200" height="130" as="geometry" />
        </mxCell>
        <mxCell id="S7bD0g3zB5Y7_rrcbHBR-150" value="" style="curved=1;endArrow=classic;html=1;rounded=0;exitX=0.5;exitY=0;exitDx=0;exitDy=0;entryX=0;entryY=0;entryDx=0;entryDy=0;entryPerimeter=0;" edge="1" parent="1" source="S7bD0g3zB5Y7_rrcbHBR-147" target="S7bD0g3zB5Y7_rrcbHBR-148">
          <mxGeometry width="50" height="50" relative="1" as="geometry">
            <mxPoint x="700" y="765" as="sourcePoint" />
            <mxPoint x="750" y="715" as="targetPoint" />
            <Array as="points">
              <mxPoint x="750" y="765" />
              <mxPoint x="700" y="715" />
            </Array>
          </mxGeometry>
        </mxCell>
        <mxCell id="S7bD0g3zB5Y7_rrcbHBR-151" value="TipoMaquinas" style="whiteSpace=wrap;html=1;align=center;" vertex="1" parent="1">
          <mxGeometry x="180" y="1100" width="100" height="40" as="geometry" />
        </mxCell>
        <mxCell id="S7bD0g3zB5Y7_rrcbHBR-152" value="Maquina-Tipo" style="shape=rhombus;perimeter=rhombusPerimeter;whiteSpace=wrap;html=1;align=center;" vertex="1" parent="1">
          <mxGeometry x="170" y="1000" width="120" height="60" as="geometry" />
        </mxCell>
        <mxCell id="S7bD0g3zB5Y7_rrcbHBR-153" value="1:1" style="endArrow=none;html=1;rounded=0;exitX=0.5;exitY=1;exitDx=0;exitDy=0;" edge="1" parent="1" source="S7bD0g3zB5Y7_rrcbHBR-152" target="S7bD0g3zB5Y7_rrcbHBR-151">
          <mxGeometry relative="1" as="geometry">
            <mxPoint x="230" y="1000" as="sourcePoint" />
            <mxPoint x="390" y="1000" as="targetPoint" />
          </mxGeometry>
        </mxCell>
        <mxCell id="S7bD0g3zB5Y7_rrcbHBR-154" value="" style="resizable=0;html=1;whiteSpace=wrap;align=right;verticalAlign=bottom;" connectable="0" vertex="1" parent="1">
          <mxGeometry x="230" y="1000" as="geometry" />
        </mxCell>
        <mxCell id="S7bD0g3zB5Y7_rrcbHBR-155" value="0:M" style="endArrow=none;html=1;rounded=0;exitX=0.5;exitY=1;exitDx=0;exitDy=0;entryX=0.5;entryY=0;entryDx=0;entryDy=0;" edge="1" parent="1" source="S7bD0g3zB5Y7_rrcbHBR-123" target="S7bD0g3zB5Y7_rrcbHBR-152">
          <mxGeometry relative="1" as="geometry">
            <mxPoint x="300" y="1090" as="sourcePoint" />
            <mxPoint x="460" y="1090" as="targetPoint" />
          </mxGeometry>
        </mxCell>
        <mxCell id="S7bD0g3zB5Y7_rrcbHBR-156" value="Consulta 1&lt;span style=&quot;color: rgba(0, 0, 0, 0); font-family: monospace; font-size: 0px; text-align: start; text-wrap-mode: nowrap;&quot;&gt;%3CmxGraphModel%3E%3Croot%3E%3CmxCell%20id%3D%220%22%2F%3E%3CmxCell%20id%3D%221%22%20parent%3D%220%22%2F%3E%3CmxCell%20id%3D%222%22%20value%3D%22Localidades%22%20style%3D%22whiteSpace%3Dwrap%3Bhtml%3D1%3Balign%3Dcenter%3B%22%20vertex%3D%221%22%20parent%3D%221%22%3E%3CmxGeometry%20x%3D%22640%22%20y%3D%22410%22%20width%3D%22100%22%20height%3D%2240%22%20as%3D%22geometry%22%2F%3E%3C%2FmxCell%3E%3CmxCell%20id%3D%223%22%20value%3D%22Provincia%22%20style%3D%22whiteSpace%3Dwrap%3Bhtml%3D1%3Balign%3Dcenter%3B%22%20vertex%3D%221%22%20parent%3D%221%22%3E%3CmxGeometry%20x%3D%22640%22%20y%3D%22580%22%20width%3D%22100%22%20height%3D%2240%22%20as%3D%22geometry%22%2F%3E%3C%2FmxCell%3E%3CmxCell%20id%3D%224%22%20value%3D%22%26lt%3Bu%26gt%3BnumeroProv%26lt%3B%2Fu%26gt%3B%26lt%3Bdiv%26gt%3Bnombre%26lt%3B%2Fdiv%26gt%3B%22%20style%3D%22ellipse%3BwhiteSpace%3Dwrap%3Bhtml%3D1%3Balign%3Dcenter%3B%22%20vertex%3D%221%22%20parent%3D%221%22%3E%3CmxGeometry%20x%3D%22740%22%20y%3D%22560%22%20width%3D%22100%22%20height%3D%2240%22%20as%3D%22geometry%22%2F%3E%3C%2FmxCell%3E%3CmxCell%20id%3D%225%22%20value%3D%22%26lt%3Bu%26gt%3BcodigoPostal%26lt%3B%2Fu%26gt%3B%26lt%3Bdiv%26gt%3BnombreLocalidad%26lt%3B%2Fdiv%26gt%3B%22%20style%3D%22ellipse%3BwhiteSpace%3Dwrap%3Bhtml%3D1%3Balign%3Dcenter%3B%22%20vertex%3D%221%22%20parent%3D%221%22%3E%3CmxGeometry%20x%3D%22720%22%20y%3D%22464.84000000000003%22%20width%3D%22110%22%20height%3D%2250%22%20as%3D%22geometry%22%2F%3E%3C%2FmxCell%3E%3CmxCell%20id%3D%226%22%20value%3D%22%22%20style%3D%22endArrow%3Dnone%3Bhtml%3D1%3Brounded%3D0%3BentryX%3D0%3BentryY%3D0.5%3BentryDx%3D0%3BentryDy%3D0%3BexitX%3D1%3BexitY%3D0.5%3BexitDx%3D0%3BexitDy%3D0%3B%22%20edge%3D%221%22%20source%3D%222%22%20target%3D%225%22%20parent%3D%221%22%3E%3CmxGeometry%20relative%3D%221%22%20as%3D%22geometry%22%3E%3CmxPoint%20x%3D%22960%22%20y%3D%22320%22%20as%3D%22sourcePoint%22%2F%3E%3CmxPoint%20x%3D%22990%22%20y%3D%22340%22%20as%3D%22targetPoint%22%2F%3E%3C%2FmxGeometry%3E%3C%2FmxCell%3E%3CmxCell%20id%3D%227%22%20value%3D%22%22%20style%3D%22endArrow%3Dnone%3Bhtml%3D1%3Brounded%3D0%3BexitX%3D1%3BexitY%3D0.5%3BexitDx%3D0%3BexitDy%3D0%3BentryX%3D0%3BentryY%3D0.5%3BentryDx%3D0%3BentryDy%3D0%3B%22%20edge%3D%221%22%20source%3D%223%22%20target%3D%224%22%20parent%3D%221%22%3E%3CmxGeometry%20relative%3D%221%22%20as%3D%22geometry%22%3E%3CmxPoint%20x%3D%22960%22%20y%3D%22450%22%20as%3D%22sourcePoint%22%2F%3E%3CmxPoint%20x%3D%22980%22%20y%3D%22520%22%20as%3D%22targetPoint%22%2F%3E%3C%2FmxGeometry%3E%3C%2FmxCell%3E%3CmxCell%20id%3D%228%22%20value%3D%221%3A1%22%20style%3D%22endArrow%3Dnone%3Bhtml%3D1%3Brounded%3D0%3BexitX%3D0.5%3BexitY%3D1%3BexitDx%3D0%3BexitDy%3D0%3B%22%20edge%3D%221%22%20source%3D%2210%22%20target%3D%223%22%20parent%3D%221%22%3E%3CmxGeometry%20relative%3D%221%22%20as%3D%22geometry%22%3E%3CmxPoint%20x%3D%22530%22%20y%3D%22210%22%20as%3D%22sourcePoint%22%2F%3E%3CmxPoint%20x%3D%22750%22%20y%3D%22345%22%20as%3D%22targetPoint%22%2F%3E%3C%2FmxGeometry%3E%3C%2FmxCell%3E%3CmxCell%20id%3D%229%22%20value%3D%221%3AM%22%20style%3D%22endArrow%3Dnone%3Bhtml%3D1%3Brounded%3D0%3BexitX%3D0.5%3BexitY%3D1%3BexitDx%3D0%3BexitDy%3D0%3BentryX%3D0.5%3BentryY%3D0%3BentryDx%3D0%3BentryDy%3D0%3B%22%20edge%3D%221%22%20source%3D%222%22%20target%3D%2210%22%20parent%3D%221%22%3E%3CmxGeometry%20relative%3D%221%22%20as%3D%22geometry%22%3E%3CmxPoint%20x%3D%22740%22%20y%3D%22475%22%20as%3D%22sourcePoint%22%2F%3E%3CmxPoint%20x%3D%22740%22%20y%3D%22550%22%20as%3D%22targetPoint%22%2F%3E%3C%2FmxGeometry%3E%3C%2FmxCell%3E%3CmxCell%20id%3D%2210%22%20value%3D%22Pertenece%22%20style%3D%22shape%3Drhombus%3Bperimeter%3DrhombusPerimeter%3BwhiteSpace%3Dwrap%3Bhtml%3D1%3Balign%3Dcenter%3B%22%20vertex%3D%221%22%20parent%3D%221%22%3E%3CmxGeometry%20x%3D%22630%22%20y%3D%22500%22%20width%3D%22120%22%20height%3D%2260%22%20as%3D%22geometry%22%2F%3E%3C%2FmxCell%3E%3C%2Froot%3E%3C%2FmxGraphModel%3E&lt;/span&gt;: En este caso no se usaría la doble línea? por existir una dependencia de existencia entre tipoMaquina y Maquina pero no una dependencia de identificación" style="shape=parallelogram;perimeter=parallelogramPerimeter;whiteSpace=wrap;html=1;fixedSize=1;fillColor=#66B2FF;" vertex="1" parent="1">
          <mxGeometry x="-70" y="930" width="200" height="90" as="geometry" />
        </mxCell>
        <mxCell id="S7bD0g3zB5Y7_rrcbHBR-157" value="" style="shape=image;verticalLabelPosition=bottom;labelBackgroundColor=default;verticalAlign=top;aspect=fixed;imageAspect=0;image=data:image/png,iVBORw0KGgoAAAANSUhEUgAAAk8AAAHWCAYAAABuRm14AAAAAXNSR0IArs4c6QAAAARnQU1BAACxjwv8YQUAAAAJcEhZcwAADsMAAA7DAcdvqGQAAP+lSURBVHhe7J13WFXH9rDfc+hNBAUVqTak2huKvcZoLLFEYxKN6cZ4002zxJho7PEaY0tijz12VGyooIINsNKkSS+Hftp8f1zYP84RUFPu9d5vv8/jkzBlzcyasteeWbOPQgghkJGRkZGRkZGReSyUxgEyMjIyMjIyMjK1IxtPMjIyMjIyMjJPgGw8ycjIyMjIyMg8AbLxJCMj8/8d6enpZGVlGQfLyMjIPBZPnfGk0+nQarXGwWi1WvR6vXHwX05RURH79+9HrVYbR/0tJCYmcubMGePgp4bQ0FBSUlKMg//tCCF4nLsNf3ac6HQ6dDqdcfBTxdPSJ9TSL4+rwz/bV49CCFHjWpKbm8uSJUvIzMw0jnoiqtpu3P5H8UfyqVQqdu/eze+//24c9V+FXq/n6NGj7N69m6SkJOPoGrl58ya7d+8mIiLCOEpG5j/GU2c8Xbx4kb179xqE6fV6fv75Z+7du2cQ/neQk5PDnDlzKC0tNY76W7h8+TJr1641Dn5qWLlyJdevXzcO/rei1+vZsGEDycnJxlEGqNVq1qxZQ3x8vHHUY3Ps2DEuXbpkHPxU8TT0SRWxsbHs2LHDIOxxdbh9+3auXbtmHPyXkZ+fz8qVK42DOXr0KDdv3qRRo0bGUY9N1Zq0bNkyEhISjKNr5Y/my8jI4LPPPmP27NnGUf9V6HQ6vv/+ez777DOuXLliHF0joaGhzJw5k02bNhlHycj8x3jqjKfQ0FDWrVtnECaEYMGCBURHR0t/V+1QGb+96vX6h97ohBCPfMOteltWq9UkJCQYpK96g9XpdA/J1uv1tcYZU73eVfILCwtJTU2tMU1Nb+91lVc9zpi68hlTlVav15OSkkJRUZFBvHEbaqN6Xxj3S20yatKRTqdj3rx53Llzp0aZVf2r1+t58OABZWVlBjJr00tN/ZqXl/fY7a0qv7q+jKmtbOO4P9snddWhOo+qs16vr7W9VbquSieEICIigh9++AF9pf6pRYc1tTUrK4uSkhKoNker+t9YX9XHhXFcFcb11mq1pKWlGaQRQmBiYsKnn36Kk5OTQXj18rVabZ19otPpmD9/Pu+//z7R0dFS3ipqau+j8lXXvXE+tVpNXFzcIw2u6vqrq/5V7a2rzVVpaqtTdRlVf9ekg+p9olQq6dWrF4MHD8bV1dVATm3l5Obmcu/ePR48eCCFycj8pzE1DnhaMJ6k1UlISOD3339HoVAAYGpqyvjx43FyciIkJAQTExMGDhwopT9w4AAODg4EBwdXk/IvhBAcO3aM2NhYlEolubm50kSncrt869at0gPZ1dWVUaNGYWJiQnZ2Nr/99hsajQYq6/Hyyy9Tr149KX8VWq2WPXv2SIu5QqFg2LBhxsnYunWr5IshhMDX15dBgwahUCjqLC8xMZH9+/dLdW/bti29e/dGoVAQFxfHwYMHJT3Wq1ePl19+GVPTh7u/etqqMqsQQhAaGioZsUqlkpEjR+Lu7l5Nwv+xa9cuPD09SUxMJC0tjf79+xMQEFCrjJKSErZt2yY9eBUKBc8//zzXr19HpVKxd+9eYmNjadu2LT179mTDhg0EBQURERFBYWEhI0aMwMPDAwcHB6isb1RUFGFhYVKdvL29eeaZZ8jJyeG3336TjmetrKx45ZVXcHFxwcbGRsp//vx5Ll26hEKhQKlUMnz4cLy8vNDpdGzYsAEPDw9u3bqFXq/HzMyMSZMmYW9vD5VHsrX1yeXLlzl37pxULzc3N55//nnp7+rU1ScAV65cMTj67du3L23atDFIQ+WDe8OGDbi7u3P79m30ej0WFhZMmjQJOzs78vLy2Lhxo8F8GzZsGC1atADg1KlT0gPu1q1b+Pr6EhoaSnp6OsuXL8fU1PQhHQLEx8dz8OBBSQ/Ozs5MnDgRd3d3qa+uX79ObGwsQghycnLQ6/V06tRJmrN1zQshBCdOnCAmJkYqMygoCD8/Pzw9PaWw6nP5wYMHZGZmSnM5NTWVI0eO4OTkRFJSEkIIPDw8GDVqlLTOVGf37t0UFBQAsH//fhISEhg+fDjNmzcnNDSUGzduoNfrUSgU2NvbM27cOOzs7GrNZ2Fhwc6dOxGVBohCocDS0pKxY8caGHl1oVar2bFjhzQ+7O3teeGFF7CysjJOSm5uLps2bcLU1BR3d3fi4uIQQuDk5MSECRMwMzPj+vXrnDx50qBO9evX54UXXsDa2pp79+5x8OBBHBwcaNOmDWfPnqVdu3b07NmT27dvExISgrby2FSpVDJ48GB8fX3x8PDA1tZWmiePKkdG5mnEZPZTtg989uxZwsLC0Ol0XLx4kYsXLxIREcHx48d59tln8fX1JSEhgbNnz1JSUoJKpeLYsWMolUo6derE77//zrp16xg3bhxmZmYUFhYydepUfH19CQgIMC6Oa9euMXfuXMzMzCgpKSE7O5ubN28yY8YMLC0tWbduHQcOHMDCwoLCwkIOHz6Mm5sbzZo1Y82aNRw+fBgrKytUKhWJiYl07969RuPp8OHDrFq1CktLS4qLi8nKysLFxYX8/Hyio6N55ZVXAPj999/JysqiqKiIjIwMdu3axZAhQ7Czs6u1PL1ezzfffENKSgparZacnBwOHDhAz549sbGxYc6cOdy+fRulUolKpSIpKYkBAwZgZmZmUMfCwkLmzJlDYmKi9Pe1a9cYNGgQAQEBXLlyhUWLFqFUKikuLubGjRvcu3ePPn36oFQ+vIk5bdo0oqKiKCgooLCwEDc3N/Lz82uVcfToUX766SdsbW1RqVSkpaXRsmVLUlJSOHz4MI0bN0ahUODk5ETLli15/vnnyc3NJSsri/z8fLy9vZk+fTo9e/bE09OThIQE5s6dS0lJCRUVFRQWFqJSqejcuTNLlizhwoULmJqaolKpuH//Pn369GH16tXk5ubSo0cP4uLimDVrFjqdjrKyMm7dusW1a9fo2bMnSqWS559/HjMzM4qKiiSfFFdXV3x9fSkoKKi1TwA+/PBDSkpKUKvVFBYWkpmZSf/+/Y1V+Mg+SUpK4uuvv6asrIyysjLu37/P2bNnGTBgABYWFgaytFotzz//PNbW1qhUKgoLC9m/fz/29va0adOGvLw8Dh48SElJCUVFRVy6dInExEQGDRoEwOLFi/ntt98oKyujoKAAKysrrly5Qnp6Om5ubpSUlNC9e3cDHebl5TF37lzJIKnq18GDB/Pee+/h4OBA+/bt2bt3L0uWLKFp06ZkZ2dz//59Dh48yODBg7GxsalzXly+fJnvvvsOExMTSkpKyM/Px9TUFFdXV8aMGcMnn3yCEKLOuXzt2jXefPNNmjVrRlZWFrm5uWzcuJGhQ4dKD/nqzJs3j2vXrqHX68nIyOD69et0796dtLQ0PvvsM7Zs2UJpaSlHjhzh4MGD2Nra0rlzZ+bPn19jvoKCAj766CNpl2XHjh0cOnQIZ2dnunXrRlZWFqtXr8bc3JyZM2caVwcqjbG1a9dK/RsaGoqZmVmNhnRCQgKjRo3ixIkT3Lt3j0OHDrFv3z7Cw8Pp2LEjzZo1Y8+ePSxbtoy8vDxiYmLYsmULp0+fxtfXFx8fH06dOsXUqVMJDw/n/v37rFy5EkdHRzw9PZk3bx5LliwhNTWVtLQ0duzYgY+PD+3bt+fFF19k8+bN9OjRA39//0eWc/r0ac6cOYOPjw/jxo0zboqMzH8G8ZQxd+5c4e7uLmbMmCH9mz59urC3txc7d+4UQghRUlIiSkpKxLVr18TRo0fFuHHjRK9evYQQQiQmJgoPDw9x9uxZIYQQ+/fvF/7+/iInJ8egnCrefvttMXbsWKFWq4UQQty5c0fUr19f5ObmipycHOHl5SX2798vhBBCr9eLjz76SAwbNkwIIUTv3r3FO++8I4qLi4VWqxVpaWlCpVIZyBdCiIqKChEcHCzmzp0r9Hq9EEKI0tJSkZqaKtasWSPVXQghCgsLRXp6ujh79qzYvHmzsLOzEydPnhSijvKOHj0qfHx8RFJSkigvLxeFhYWiU6dOYvv27aKsrEy4ubmJ5cuXi/LycqHT6UR8fLzQaDRSmVUcP35ceHl5iYSEBCmsQ4cOYuvWrUIIIV5//XUxZcoUUVpaKsrLy8Xly5dF48aNxYMHD6pJ+T969+4thgwZIq5fvy60Wq1QqVR1ynj77bfF4MGDRW5urtBqtSI/P19kZGQIjUYjvLy8xPHjxyXZFRUVws3NTUydOlXcv39flJeXi/z8fOHp6SlOnTolhBBi0aJFolu3bqKgoEDKd+/ePREbGyuaNGkiLl68KIUnJyeLsrIyMX36dPHdd98JIYRYuHCh6NWrlygtLRVCCBEfHy/c3NxEeHi4VP6GDRskGdOmTRMvvfSSEELU2Sf3798Xtra24tChQ0Kj0QidTifu3LkjyanOo/pk+fLlolevXiIvL0+Ul5eLlJQU4ebmZtC2KqrqvHnzZilswYIFolu3bkKj0Yjy8nJRXFwsbt26JY4fPy4+/PBD4erqKqV95513RPv27cXJkyeFTqcTxcXFYt26daJHjx5SGiGEgQ4PHjwomjVrJpKSkqT4uLg4IYQQ/fv3F+vWrRNCCLFq1SrRpk0bUVxcLIQQIjs7W3h4eIiDBw8K8Yh5MWXKFDFx4kRpTGu1WhEfHy/S0tKEg4ODEEI8ci6fPn1aNGjQQKpnWVmZQfnG7N+/Xzg7OwtATJs2Taxbt04kJCSI5557TgBixIgR4vTp02Lx4sXCwsJC1K9fX9y9e7fGfElJSeLevXti8eLFYv369WL27NnC19dXACIwMFAIIUR0dLRQKpWiXr16xlURorJvg4KCxPfffy+FrV+/Xvj7+xukq6JKnrm5ufjkk0/EokWLRJcuXQQgXnjhBSGEEOfOnRMrV64Ua9euFR9//LFo2rSpAMS4ceOEEELs3LlTAMLR0VG8//774sMPPxT79+8Xs2bNkuq+bds2cfbsWTFv3jwRFhYmhBDCz89PAGL79u2PVU6VvJEjR0r1l5H5T/PwdsFTQOvWrVm6dKn0b8mSJTRs2FCKj4mJ4YcffmDXrl2Eh4ej0Wgk3wkPDw/69u3LL7/8QkVFBRs2bGDMmDE0aNCgWgn/oupYZvDgwQ/twgCkpaWRn59Pt27doPIYqV+/fpKT64gRI7h+/TrLli1j+fLlhIeH17jNXFxcTExMDEOGDJGOAKysrGjatKlBuvLycrZt28ZPP/3EiRMnuHPnDubm5lLbaivv4sWLWFhYcOjQIdavX8/mzZuxsbEhJycHU1NTxo4dy8GDB1m+fDnLli0jKSkJExMTg7KpdNZv3bo1Xl5exlEIIQgPDwfg559/Zv369Zw7d0466qyN4cOHExgYiImJCba2tnXK6Nu3L0VFRSxdupRly5axb9++Gt/6qzNp0iTc3d2xsLAwOCoCCA8Pp1evXgYyWrRoQUxMDHZ2dnTo0EEKd3Nzw9LSUvqbSmf+7t27S8cezZo1w9XVlZs3b0ppmjdvLv2/i4sLhYWFUKnL2vrE3t6e5557jvXr17N8+XKWL19e6wWFuvoE4Pz581hbW7Nt2zbWr1/P/v37sbOze8jXpzpubm7S/3fp0oWEhATUajWpqan8+OOPbNmyhbCwMFQqFRUVFQZ5g4KCpJ1GY33XxKVLl/Dz88PDw0MKq66z6jg6OkoyGzZsiJeXF3fu3KlzXuj1ei5evMjgwYOlY2gTExOaNWtmIPtRcxnAxsaGJk2aAGBpaYmjo+NDvltVPPPMM9jZ2QEwYMAAXn31VRo3bszly5cBmDBhAr169eKNN96gfv36FBQUEBMTU2M+Dw8P1Go1Op2OsLAwTp48KbkJVM39R1FSUsKtW7fo27evFNarV69HXrKwtLTkk08+4YMPPmDEiBFQebuNSp+loqIiTpw4wblz56RjV5VKZSDD2dmZxYsX8/333zNs2DBCQ0MBGDJkCOPHjyc4OJjPP/+cHj16GOSr4nHLkZF5mngqjae6EELwww8/EBYWhre3NyNGjDBYMBQKBa+88gonT57k2LFjREdHM378eAMZ1dHpdAaGhKjm71F1FKWr5qBaPf1rr73GuHHjyMvLIz4+nnnz5hEXFyelraLKX6a6nJq4efMm3377LaampvTu3ZuXXnqJ+vXrS/F1lVdUVERubq70r2/fvrRv3x5TU1M++eQT+vbtS2ZmJtevX2fu3Lk1GjxarbZGo4pKvSgUCnJycqQyioqKePPNN3F0dDROXiOPkvHcc8/x1ltvUVZWRkpKCkuWLJGMrar8T0JtOq/yk6kprjpKpVLy2aBykdfr9TUeUVL50K5ObX1Sr1495syZg7+/P+np6Zw5c4bvv//+IUOFR/QJlW3Jz883KGf8+PG0bNnSOGmNlJeXY2FhgVKpZPv27ezatQtXV1eeffZZRo4caZy8Rurql6o+qCtNTQghUKvVWFlZPXJeKBQKg36qiUfN5ZqoySewJqoe9tRQTvW2G5dVPd+6dev4+OOPSU5OplOnTnTu3Nkg7aOoWmOq60Gn00kva49CCCGNP2tra9RqNQsWLGDmzJno9XrJh+xxqNJBdQd0nU5X4wvCHyknLy+PY8eOcfLkSeMoGZl/GzU/BZ5ihBBcv36dgQMH8sILL+Dt7S35g1TRuXNn3N3d+eabb+jWrZvk8GqMQqGgTZs2hIWFoVar0Wq1XLlyRVrUXFxcaNy4seT4WFZWxqFDh+jcuTNCCEJCQpg4cSILFy5kzpw5pKen13gbxsbGhoCAAPbu3Ut5eTk6nY6UlJSHrtQnJiai1+uZMWMGPXv2pKKiguLiYqhsd23ldenSBSsrK4YOHcpnn33GZ599xqRJk3BycqKsrIxz584xffp0Fi5cyAcffEBkZCT5+fkGZQMEBARw9+5d0tPT0el0JCQkkJOTA5ULYo8ePbC1teWtt97is88+Y+bMmQwYMKBGH6+aeJSM0NBQevfuzYIFC1iwYAHm5uZERUWhUCiwsrLiwYMH6HQ6g4dOXQQFBXH+/HlSU1PR6XSUlJQQHh6Ov78/ZWVlnD59Gl2lA/TFixcfWtyDgoIIDw8nIyMDnU7H1atXycrKeuTiTuWOTm19kp2dzb179/jiiy9YuHAhkyZNIjQ0VLoIUJ26+gSgR48eWFhYMHHiRKmc5557zmCn1piysjLpYbZ//36CgoKwsLDgxo0btG3blqlTp9K2bVvu379vnPUhbGxsyMvLk2QaG0mdOnXi7t27REdHo6u8zVrdUb46VXNQp9Nx5coVMjIy6NixY53zQqlU0q1bNw4fPkxBQQE6nY68vDyuXr1qILuuufxHqBqTVH76YNu2baSlpUm7Kzt27GDr1q2sWrWKgoICGjdujJ+fX4354uPjiYyMBKBRo0Z07tz5sV9IqrC2tiYwMJCDBw9Kejx06NAjjWi1Ws3evXvZsGEDR48eBaBfv37SeAfw9PSkQ4cOj7XTSOWOmkKh4Pjx46xZs4bt27ezfPnyh/qESqPqSctJTEzkyy+/5JtvvjGOkpH5t/F4r1b/RqreoIypemtTKpWMHj2a0NBQdDodlpaWPHjwwCCPpaUl48aN44MPPuDbb7+tUV4VkydPZt68eSxfvhwLCwsyMzOlshwdHZk+fTr79u0jJycHtVrN/fv3+eCDD6DSQfPatWvUr1+fsrIyunfvTqtWrYxKAHNzc9577z3Wrl3L8uXLMTc3JycnR1pkqupXdRNl2bJl2NnZYWJiYmAo1Faes7Mzffr0YdWqVdKDPScnh379+tGoUSO2bNnC7du3sbS0JDs7m1GjRtV4g6dHjx74+vqyePFi3NzcMDMzQ1ftTX3y5MksXLiQFStWSLekEhMTmT17do0LnlKpfOjNty4Z586d48SJE7i4uKDX63F1dSUoKAgTExOGDh3Knj17yM3NpU2bNvTo0eOhN3mqvfVSeWQYERHBsmXLaNq0qXSz7oMPPuDll19m/fr1xMbGApCUlMScOXMM6jxs2DDOnz/PsmXLaNSoEdHR0YwYMUK6eGBcfvW+rDreqqlPPDw8+Omnn4iJicHExIT4+HhefPHFh44NeYw+GT58OJcvX+aHH36Qbj0mJyfz2muv0bhx42qS/o+TJ09y69YtysrKSE5O5qOPPkKhUPDMM8/w66+/smLFCszNzUlISDBoo0KheKg/AwMDsbCwYNmyZdja2vLKK68Y6DAoKIi+ffvyww8/4Ovri16vJzMzkx49ejw0PvLz8/npp59Qq9Vcv36dkSNHEhgYiK2tbZ3zYsqUKcyfP5/ly5dTr149SkpKcHd3p1GjRo89l6mhP+taN5SVNy/j4uLYtGkTISEhLF++nHfeeYfi4mIOHz5MVFQUubm5NGvWjKlTp+Ll5VVrvhEjRnDjxg327dtHbGwsDRs2xMTExKBOxn9Xp2qNWbduHStWrECpVHLq1ClmzJhhnNQAjUbDDz/8QEpKCiqVimHDhjFx4kTMzc0ZPXo0a9asYc2aNbRo0QIzMzNMTEwM9FJTnSZMmCDdiP74449p0KAB2dnZ0idoqud5nHIUCoXB3yqViqioqEce6cvI/J08dbftKioqaNKkiYE/CkBpaSldunShcePG0i2j3NxcTExMGD58OM7OznTt2lVKHxkZSW5uLjNnzqzRn6kKLy8vzMzMuHfvHqWlpTzzzDM0aNCAPn36YGZmRrt27SgqKiIxMZGysjImTJhA//79pTfIu3fvUlhYiFqt5o033sDf39+4CKj047Kzs+PWrVuoVCrq1asn3YhydHSkU6dOODk50aBBA+7cuUNRURFdu3bFy8uLLl264OzsXGt5FhYWBAUFcf/+fdLT01GpVDg4ONCvXz8cHBzQ6/UkJCSgUqkwMzPjH//4By4uLsZVxMbGBh8fH6KjoyksLMTX1xc/Pz86duxIkyZNcHFxwcfHh2vXrpGfn09RURFt27alQ4cODy2gVPZZmzZtDHxs6pLh4ODA3bt3yc/Pp7i4mNGjR9OvXz+o9FW6f/8+BQUFNGrUiNatW1NaWkpQUJDBW3rVjS9HR0fpCnV0dDT5+flUVFQwYMAAPD096dq1KxkZGaSlpaFSqQgMDKRjx45oNBq8vLzw8vLCwcGBgIAArl27RkFBAU2bNuXDDz/Ezs4OIcRD5avVaho3bkzbtm3r7BMnJydUKpX0wGrYsCHvv/8+tra2UjuqeFSf2Nvb06lTJ27evElOTg4qlQovLy+Cg4MfMsZ0Oh0rVqygVatWFBUVUVZWxsSJE6Vj79atW5OXl0d6ejpqtZoRI0ZQv359evfuDZVz08vLCx8fH0lmw4YNsbCwICkpSdK9QqGQdGhpaUnXrl25e/cu2dnZlJSU0KNHD1q3bk1ZWRmBgYE0bdqUyMhIIiMjcXV1JTc3F1dXVz788ENsbW3rnBdOTk64urri5eXFjRs3KCwsRFl5Lb5BgwZoNBr69OkDUOtcrtKNubk5wcHB0kO6pKSEDh06SH5QxrRu3RpTU1Patm2Lj48Pffv2pWPHjvj5+WFnZ4e3tzcdO3Zk7NixvPbaa9IcqSlfnz59MDExwd/fnzZt2jB58mQcHR0JCgqiR48e0q5et27dDNwUquPt7Y2lpSU3b96kqKiI/v37M2HChIcMXiq/sbV69WosLS2ZMmUKPj4+dO/enX/84x/4+fmhVCoJCAjA1NSUwMBAunXrxpgxY2jcuDHBwcG0b98ejUaDjY0N3bt3p3v37pJsBwcHgoKCsLKyonXr1vj4+NCzZ0+eeeYZHB0dKSkpISAggD59+uDi4vLIctRqNc7OzvTo0YO2bdui0+kwMzOrUxcyMn83CmG8z/4/gEqlYvDgwbz22mtMnjzZOFpG5v9L1Go1LVq0YPPmzdInE54WfvzxR3bu3Cn7sfybiImJoU2bNtja2pKUlCTtAsvIyDweT93O019BaWkpqampvPzyyzUeJ8nI/P+IEIKioiJ69OjxxD41fzcVFRU4Ojr+YR8kmSdDV+nr17VrV/r161fn7ryMjMzD/E/uPMnIyMjIyMjI/F3U7hEpIyMjIyMjIyPzELLxJCMjIyMjIyPzBMjGk4yMjIyMjIzMEyAbTzIyMjIyMjIyT4BsPMnIyMjIyMjIPAGy8SQjIyMjIyMj8wTIxpOMjIyMjIyMzBMgG0//JahUKpKTkw1+10zmP09ubi5paWnGwTIyMjIy/8M8dcaTEMLgRz+fFh7nW6J/tu615RdCsHHjRs6fP28c9aeIjIyUfhj3acBYx3q9/qGwmnjcdH+GmsqoqKhg5cqV3L592yD8SRFCPCT7cfgj+VJTU9mzZw/Hjh0zjvpbqK63a9euce3aNeMkfwvnzp0jKSnJOPjfjk6n48iRI+Tk5BhH/W08ePDgL+3fkydPsmfPHpKTk42jnioiIyPZs2cP0dHRxlF/C7m5uezZs4fff//dOOoPU1RUxN69e/n999+pqKgwjv63kJSUxJ49ezh69KhxVI38kXXoz/J36P5JeeqMp4sXL7J3717j4P8oJSUlrF69GpVKZRxlQH5+PitXrjQOfmxqy5+cnMzWrVtxdnau8Qd4/yg7duwgJCTEOPg/QkxMDDt37jQICwkJ4eLFiwZhNbFt27a/9aGsVqtZs2YN8fHxBuFRUVEcP36cxo0bG4Q/CaWlpfzzn/9kxYoV5OXlGUfXyh/NFxMTw8yZM1m6dKlx1F+Osd5+//139u/fb5zsb2H9+vVERkYaB//b0el0fPfddyQmJhpH/W3cvn2bxYsXGwf/YVauXMnMmTP/1jn2V7Bjxw5mzpzJkSNHjKP+Fu7fv8/MmTP56quvjKP+MDk5OXz++efMmjWL4uJi4+h/C5cuXWLmzJksXLjQOKpGfv/9d5YtW8bly5eNo/42/g7dPylPnfF0/Phx1qxZYxwM1SxcvV5f4w6NMdWtYeP/r5JhbDHXFKdSqfjss8/Izc01sLKr/1cIgVarrfHtzFheFVVlVYXXlr/qF+CNf0G8evk1ya+J6mkfPHhAbm5urfF1UdXm2tJXhdcWV73uQggiIiJYsWKFQVxeXh6FhYUP5TWWmZGRQVFRkRRfvV7G46SuuCqMyxBCkJaWRmlpqUGaiooK3nvvPXx9fQ3Cq/LVVUYVRUVFfPrpp3zwwQdkZWUZtIsa6lJFXfmqt696fQCKi4u5e/dunbsy1fMY56+tT6mhrsJIb9nZ2WRnZz+UrjrGdX8U1dNXJzU19aGxU53qdaytrNriastr/HcViYmJlJaW1hpfPX/1uNraVhtVaYuLi2vs3z+iVyEEycnJ3L1796GXx+r1M6539bbU1Ya6dFL9X20yqud/8OABd+/efWiXr7Z6VsVVhdVWl+px1ePr16/PkCFDGDhwoEG6mtI+iqo8arWae/fuERcXZ9DePyPTOE/1NhuHCSFwdXVlyJAh9O7d+6E0xvKEEKxdu5b333+fEydOPCS7pjzV46rLqSlN9bi/S/d/FFPjgKeZkJAQ6YhECIGLiwvPP/98jbsxOp2On3/+maCgICIiIigsLGTUqFE0atSIbdu2UVhYiBACBwcHXnjhBSwsLIiPj+fgwYNSJ9SrV4+XX36Zffv2UVFRwc8//4yjoyMDBgzA3d2dTZs20b9/f06cOIFWq2XKlCk0a9ZMqoNWq2Xfvn2kpKSgUChQKBQ8++yzNG/enCtXrnD27Fkprbe3N8HBwQb5hRAcPHiQuLg4FAoFP/74I+PHj8fR0ZGioiI2bdpE8+bNuXXrFkII6tevz4svvljrj3zm5OTw22+/odFoALhz5w7u7u5SfFJSEvv375cmbdu2bR+aQFWcOnWKoqIiMjMzpYfjwIEDJUNi69atZGVloVAoEELg6+vLoEGDpLxCCDQaDbdu3cLHx4fQ0FDS09NZvnw5JiYmvPLKKzRt2tTgh51r0tmQIUPw9PSUfuj2xo0b3Lx5E51OR05ODkIIOnXqRI8ePeARY0gIQWhoKDExMVJ89+7d6dChg0EZGo2G3377jezsbBQKBb/88gsvvPAClpaWUvl6vV4yFNq1a1ejHrVaLVu3bkWj0aDX6/n1119p1KgRM2bMQKvV8vvvv5OcnIwQAoVCQZMmTRg9ejQKhaLWfNeuXZP0C6BQKLC3t+eFF17AysrKuAo1smvXLry8vIiPjyc9PZ1+/frh5+fHvn37SE5ORqFQYG5uzsSJE7G3t39svVG5u/rTTz9RXl4OwKBBg/Dx8QGgvLy81rlZE3l5eWzfvh21Wo0QAg8PD0aMGIFSWfc74ePMnfPnz3Pp0iVp3j733HN4enpK64qHhwc3b95ECIGdnR0DBw7kwIEDqNVqAEaOHImHh4dU5vXr17l27RpCCCwtLZk0aRI2NjakpqYSEhJCt27dOHHiBJaWlrz++utP1DatVsvu3btJT09HoVBw69Ytg3idTldr39XErVu3CAkJQa/Xo1AoyMrKMogXQhAeHs7FixelcWZjY8MLL7xAvXr1uHfvHocOHaJevXrY2tpKPoEtWrRg2LBhKBQK1Go1u3btIjMzUxrfLVq0YOjQoSiVSiIiIoiIiMDV1ZWSkhJpdzUgIIABAwZA5fHkrl270Gg0KBQK7ty5U62W/+LWrVscO3ZM8hU1MzNj9OjRuLi4UFFRwbp161Cr1QQEBBAdHY0QAnNzcyZMmCCN29u3bxMSEiLJUCgUDBo0CGdnZzw9PaUxo9Vq+eWXXygqKjKYfz179qRDhw5SnaojhODQoUPcu3cPIQS5ubnS+luFSqXit99+k14QFQqFwZpmTF39Y25uzi+//EJZWZkkIz4+nv3796NUKpkwYQINGzbEw8NDar8QguPHjxMbG2vQrmeeeYbU1FRpV/X8+fMsW7aMPn360LZt2zp1n5OTw+bNmzEzM6NZs2bcvn0bIQT29va8+OKLWFhYIITg4sWLhIeHS+WamJgwevRo6tWrZ6B7Ktet1NRUgzr6+/tL4+WvxmT27NmzjQP/k5w9e5bk5GQmTZpkHMXJkyeJi4tDpVKRn5/Ptm3b6N69O40aNTJOilarZfTo0eTk5JCZmUleXh6+vr4cP36cvXv3YmJiQmFhIUePHqVJkyY0a9aMr7/+WvIBKiws5P79+wwYMIBjx44RFhaGp6cn5eXltGrVCjMzM0aOHIlCoSA9PZ3c3Fy6dOnC888/zyeffALAkSNHWLVqFRYWFqhUKrKysnBxcUEIwZw5cygqKqKsrIyCggJUKhU+Pj4G+S9evMiCBQswNzdHpVIRERFBdnY23bp1Izs7m1GjRuHm5kZWVhaFhYVs3LiRHj160KRJEwNdUKmPJUuWcObMGUxNTSkoKOD27du0bt2afv36UVhYyPz580lKSkKtVpOdnc2BAwfo1atXjYvs4sWLOXr0KLa2tuTk5HD9+nWioqIYPHgwpqam7Nu3j8zMTFQqlbTIDRkyBDs7OxYvXsxvv/1GWVkZ+fn5WFlZERUVxYMHD3B1daW4uJgePXrw448/kpOTQ48ePUhISKhRZ8HBwbz33ns4ODjQvn179u7dy+LFi2natCmZmZncv3+fQ4cOMXjwYGxsbOocQ5GRkXz33XcoFAqKiorIy8vDxMSEgIAAxowZQ8+ePfH09OTAgQOsWbMGS0tLVCoVoaGhWFhYEBgYyN69e1m0aBFNmjQhKyuLhIQEDh06xMiRIx8yAtRqNR999BEpKSkIIUhKSuLKlStMnz6dffv2MXPmTA4fPkxhYSE7d+7k7NmzuLi44O3tXWu+3bt3s2TJEnJzc7lx4wabNm3i9OnT+Pn50bp1a27evMnOnTtp2LAh06ZNM6hPFdOmTSMqKkra+XNzcyMuLo41a9ZgYmKCSqXi7Nmz6HQ6Onbs+Nh6O3z4MAkJCVhbW5Ofn8+NGze4cuUKgwYNwtTUlE2bNtU4N1u1amVcRTQaDcuXL5ceEIWFhfz++++0adOGJk2asGnTJvz9/Wnfvr1xVrKysuqcO3FxccyaNQuNRkNJSQm3bt3ixo0bBAcHo1QqGT16tDQnCwsL2bJli7QOFBQUcPz4ccrLywkODkan07FixQoaNmxIcXExhYWF7N+/n/r16xMQEMDVq1eZMmUKFhYWUv6+ffvW2TZjjh8/zrJly7CyskKlUpGenk52djbvvvuuFF9b3xmTlZXFl19+yaJFi4iPjycjI4N79+6h0WgYNWoUgYGBXLx4kVmzZrF582aKioo4cuQI+/fvx9nZmU6dOnH69GmmTp3KuXPnuH79OgcOHGD//v1ER0fTu3dvnJyc2LhxI59//jmXL18mKyuLTZs2cfXqVdq3b4+rqyvr16/ns88+4+rVq5w/f55Dhw5x4MAB7t27x6hRoxBCsGDBAmbPns3169fJz8/nzp07lJaW0r17dwYMGEBcXBxff/01P/zwAyqVinPnzrFt2zZMTU0JDg6mvLycYcOGsX//fhITEzl06BB79+7l+PHjeHt707ZtW+7du8e8efNYtGgRKSkppKamsn37dnx9falfvz4jR44kLCyMmTNnolarmTRpEvfu3SMlJYWjR4/y22+/kZWVxZAhQ7C0tDRWN+fPn+eDDz5gy5YtFBQUcPfuXdLT0zE3N2fGjBmYmJiwYsUKZs2aRXx8PImJifzyyy8kJSXRvXt3gxeTKurqn7Zt27Ju3ToWLFjA/fv36dKlC0uXLuWbb75BqVQydOhQIiMjmTp1Krdv32batGlcvnyZjz76iO3bt1NaWiq5WLRr147Lly9z9OhRNBoNOTk53LhxAx8fH2xsbOrUfXJyMiNHjuTEiRPExcVx4MAB9uzZw9mzZ+nbty9ubm5cvHiR2bNns3r1anJzc7l79y6bN2+mX79+KBQKA90D/OMf/+DChQs8ePCAM2fOsHnzZu7evUv//v2pX7++sZr+POIpY+7cuWLgwIHGwUIIIQoLC0V+fr4IDw8X+/btEx4eHmLdunXGyYQQQlRUVAg3NzcxZcoUkZSUJMrLy0Vqaqpo3bq12L17t9BoNEKj0Yg5c+aIYcOGibKyMuHm5iZWrFgh1Gq10Ov1Ij4+Xmg0GvHgwQPh4OAgEhMTJfnJycnCxsZGfPHFFyInJ0cUFRWJtLQ04eDgIJXfs2dPMXv2bKHX64UQQpSWlorU1FSxePFi0a1bN1FQUCDJu3v3rkF+IYR45ZVXxJQpU4ROpxNCCHHq1CnRtGlTkZqaKpKTk4WdnZ0ICwsTQgih1+tF3759xapVq6T81bl3755o2rSpOHfunBQ2adIk8dlnnwkhhAgJCRE+Pj4iOTlZaDQaUVRUJDp16iR+++23alL+j3feeUeMGjVKaDQaIYQQ0dHRomHDhuL27dtCVPZVRkaGCAsLE5s3bxa2trbi5MmTUt527dqJ0NBQodPpRHFxsVi3bp3o0aOHQRnTp08X3333nRBC1KozIYTo37+/NA5WrVolAgMDRXFxsRBCiKysLOHu7i4OHjwoxCPG0KuvviomTJggtUmr1Yq4uDihVquFp6enOHXqlKioqBBBQUFi4cKFlbUQYt26dSIgIEAq39/fXxQWFgohhLh//76oV6+euHPnjpS+Co1GI1avXi0sLCyEUqkUX3/9tVi7dq0oKioSbdq0EYB45513xJkzZ8T7778vFAqF8Pb2Fjk5OTXmE0KIsLAw8cMPP4i1a9eKjz/+WLi4uAhAjBs3TgghxM6dOwUgWrdubVSb/6N3795i8ODB4tq1a0Kr1Yrc3FzRr18/sWDBAmne7NixQ/j7+wvxmHoTlf0+YsQIUVFRIYTRmMnPz691btbEnTt3hIeHh4iKihIajUao1WrxwgsviE8//VQIozFhzKPmzsKFC0XPnj1FaWmpEEKIuLg44erqKsLDw6V15eeff5bkPfPMM2LcuHFS+//5z3+Kzp07C1FtHfrll1+k9AsWLBBBQUFCo9GI06dPCzs7O/HPf/5TlJSUiIKCgke2rTpqtVr0799ffPHFF9I6c+DAAdGqVSspvq6+M2br1q1CoVAIV1dXsWHDBnH27FnRrFkzAYhNmzYJnU4nxo8fLwDRu3dvsWzZMjFp0iShVCqFh4eHUKlU0hhzcHAQc+fOFfPmzRPNmzcXgJg3b55IS0sTTZs2FRYWFuL1118XS5cuFR06dBCAeOONN4QQQsyaNUsAokWLFmL+/Pni888/FxYWFkKhUIjLly+LixcvCktLS2FnZycWL14szp8/L3r37i0A8dFHHwkhhJgzZ44AREBAgPj+++/FjBkzhIWFhbCxsRH37t0TBQUFwt7eXgBi8uTJYtmyZSIoKEgA0rirqkdAQIDYsmWLOHPmjJg7d64ICwsT0dHRQqlUinr16glRqetFixaJn3/+WSxZskQMHTpUKJVKoVQqRUxMTDUt/wudTidGjx4tADFw4EBx9OhR8csvvwilUilsbGxEVlaWuHz5srC2thYODg7iww8/FAsWLBBeXl4CEMuXLzcW+Vj9k5iYKPr06SMAMWnSJGFpaSnatGkjLl26JEQNa0SVHu3t7cUXX3whNm7cKObOnSsuXbokwsLCREBAgADEqFGjxJo1a0RMTMwjdV+lO3Nzc/H++++LxYsXi1atWglALF68WOh0OjFu3DgBiD59+oj9+/eLY8eOiZkzZ4qYmJiHdC+EEGvWrBEbNmwQP/zwg5g4caIwNzcXgNizZ4+U5q/k4T3gpxS9Xs+hQ4dYuXIlR44c4erVq1hZWT3yRsLLL7+Mh4cHFhYW5OfnS9uMa9euZe3ateTk5PDgwQNMTU15/vnnJee3ZcuWcf/+fUxNaz/ZNDc354033qBBgwbY2toaxBUXFxMdHc3QoUNRKBQAWFlZ0bRpU8LDwx/a0WnZsmW13P/aKo2MjKRv377SVn3nzp3R6XTExcUBYGpqiqenJ1RuUTZp0oSysjIDOVVER0djaWlJ586djaMAiIiIwMLCgoMHD7J27Vo2bdqEtbX1Q1v21XFxcZH007JlS6ysrEhKSqK8vJzt27ezevVqjh8/zt27d7GwsKCkpETK2717d6lt1Y/mauNxdFZFgwYNJJlOTk40a9aMO3fu1DmG9Ho9ERERDBkyRGqTiYkJzZs3N5BdtRPRr18/Kax3797cv39f+tvJyYl69eoB4ODggJmZmYG/VBWmpqaMHDkSU1NTlEolY8aMYerUqWRnZ3Pr1i1MTEx4/fXX6dmzJ2+99RZmZmbExcWRlZVVY74qSktLOXnyJGFhYdIRgLG/yqN47rnnaNOmDSYmJiiVSq5du4ZKpZLmze3btykoKHhsvVXh6uqKubk5GI2Z1NTUWudmTURHR1NRUcHFixdZu3Yt69atQ6/Xk5KSYpy0RuqaO5cvX6Z79+7SMWfz5s1xc3Pj5s2bUv7qx+vOzs64u7tL7W/cuLF0xFKFl5eX9P9dunQhPj5eOuJzcHBg6tSpWFtbY29v/0RtKy0t5dq1awbrTHVKSkpq7buaOHfuHEIIOnTowOTJkwkODsbBwUGKV6vVhIWFQeVx4KlTp6Tj64yMDAMfykaNGvHll1/y+eef061bNwBiY2O5ffs2aWlpmJiY8ODBA06fPi2NU+PbvwEBAcycOZNPP/0UOzs7hBCoVCoiIyMpLy/H1dWV6dOnExQUhJubm0He0NBQqByP586dIyEhAVNTU0pKSh7yCZsxYwbvvfcew4YNg8qTh+oynnnmGSZMmEDPnj358ssvazwyU6vVWFlZERsby9GjR0lOTkapVKLX6w3Wvio0Go10Iebll19m0KBBdOvWzeBoNiIigtLSUkxNTbl37x4XLlzApNJNxVhXPGb/eHp6MmvWLBo0aMCmTZvQ6/V88MEHdOrUyVgcAK1bt8bGxoaioiKOHj1KZGQkdnZ2ODk50aNHD0nvnTp14rXXXsPPz++xdW9packXX3zB+++/T5cuXaCyDdXb8corrzBs2DAGDBjA/Pnz8fPzk/JXodVqMTc3JyEhgZCQEG7evCnpqSbd/xX81xhPmZmZfPXVV+Tl5dGlSxfGjx8vLX5PglarJT09nczMTDIzM3F0dOSll17C1NSUmTNn0qdPH9LT07l69Spz586VFgNRg5NdXSgUCpRKZY3fZVIoFDWGV0cI8VD+6mfuNVE1WGpCp9OhVCoN8hq3R6VSSXrJzMykd+/eNR571IRWq0Wn02FpacnNmzeZP38+CoWCXr16MWnSpMfaNjWuT3UeR2c1IYSQFrVHjaHHKaOqX7VarRSm0+lq7ROlUmmwGNaGqHR0pLKMKnlVYdXrZdyHVWnUajULFizgk08+QaPR0LVrVwNn9j+DEMJg3uh0Ot566y14TL3VhE6nQ6/XS8cZtc3N2igvLzdI37p1a4YOHWqc7LGoPneqHnhVVOm4tn40nnfGfxujVquxsLCoVR5P0DZ9pXNs9TKN51FdfWdM9XFd05onKv2TqHx59PLyonXr1rz77rtMnTq1Rr86UenfCGBtbS2Fq9VqGjVqhJeXF7169WLGjBkMHjy4Ws7/w9TUVDK6qVZPhUKBvtI52Liu1fHy8qJZs2a89tprvPPOOzg7OxsnAaP6UTkWMJp/er2+xpfUixcv8uGHH7Jt2zZ8fX3p27dvjUd1VVT1HdV0XVs7KioqcHd3x8vLi2effZYZM2bU+CL8uP2j0WgkfSoUCukFsiZ69+7NBx98wLRp03B1deXXX3/l/fff5/Tp0wbpasv/uLqvPnZE5fMPI7larVbyl6xOYmIin3zyCcuWLcPLy4s+ffrUeKRZm37/CLXP3v8goprHfNW/qrfQd999lyFDhlCvXj0yMzONs9aJi4sLzZo1w9fXly+++IJZs2bx0Ucf0aFDB8rKyqTz5yVLlvDRRx9x+fJl8vLyMDMzw8TERHIAfhzl29jY4O/vz759+ySnz9TUVOLj4+nWrRvnz58nLS0NIQRlZWVEREQY5FcqlXTr1o2QkBBKSkoQQnD69GksLS1rfauvi5YtW1JUVCQ5/eXk5Bi8AXTu3BkrKyuee+45Zs2axaxZs5gyZUqtA53KCV2lj9DQUKysrGjZsiUJCQnoK99m+vTpg1qtfuS1W2tra/Ly8iSZxjyOzqrQaDTodDqEEFy9epUHDx7QsWPHOseQUqmka9euHD58GJVKhRCCgoKCh65nW1tbExgYyKFDhySD8fDhw7Ro0cIg3eNiZmaGmZkZer2ePXv2sGXLFpycnAgMDESn07F+/Xq2b9/O2rVrUavV+Pr60rhx4xrz6XQ6rly5ApULVufOnaUdsD+DtbU17dq1o2nTpnzyySfMmjWLzz//nJ49ez623qqoPmZOnTqFpaUlLVu2rHNu1oSfnx+Ojo4EBwfz1VdfMWvWLN59911at25tnPSJ6datGxcuXJBuMV67do3MzMw/ZYiWl5cjKm9oHjx4kG7duj3kA1fFk7TN2tqa5s2bS7uMGo3GQPd19V1NVOn76tWr0g589XXWwsKC4OBgABwdHfH396dHjx60bNkST09Pg/FWUFDAzp07WbNmDZcuXcLExIRevXrRqlUrPDw8UCgUNG3alM6dO9OlSxc8PDweex4FBgZiZmZGcnIyS5cuZdmyZQ85yvfv3x+FQoGdnR2tW7cmODgYHx8f3N3dcXJyMkhbG1UyqvzGtm/fzooVK7h69apxUmJiYigrK8PS0pKuXbvSvHnzWl+qqNSlv78/AL/99hvLli3jl19+MTAWOnfujL29vbRTGhQURIcOHXB3dze4kFDFo/rHzs6OmzdvMnv2bHJzc5k8eTIWFhbMmzePM2fOGIsD4MKFC9SvX5927drRsWNHLC0tEUKQnZ0Nlc86Kk8HduzYwY0bN/6Q7qvrysLCQhqj27dvZ8OGDWzZsoWlS5c+9MkYKj9dkJmZiampKe3bt8fPz0/aCa6ioqKCH3/8kaioKIPwP0rtZ1L/QVJSUlixYoVB2MSJEwkODmbVqlU0bdoUKyurGq3/unB0dGTGjBkcOnSI/Px8TE1NpUUtICCAjRs3cvv2bSwtLcnOzmbkyJE0bNgQa2trevXqxdq1a7lw4QIDBgx45EPJ3Nyc9957j7Vr17Js2TLMzc3Jzs6mf//+PPfcc0RERLB06VJcXV2lo0djJ/lXXnmFb775hmXLlmFjY8O5c+d46623cHFxITU11SDto/D29mbYsGEsW7aMNm3aYG5u/tAxWp8+ffjnP/8pTejs7Gz69etX64KWmJjIypUr0el0hIWF8eabb9KkSRN8fX1xd3dn6dKl2NnZYWpqavBGWxNVi+HSpUuxsbHhlVdeMYivTWddu3Y1SEflLazVq1dLD5IRI0YQGBgoOZjXNoamTJnC/PnzWbp0Kfb29hQXF+Pu7m6wTWxubs706dOlflUqlZw8eZIZM2ZIaZ4Ea2trBg8ezM6dO1m0aBG2trZMnDiRjz76iOXLl7N69WoOHDhAeno6nTt35t1336V+/fpUVFQ8lG/8+PGMGjWKNWvWsHr1alq2bImpqelDC7jx34+iynl1w4YNkmOyVqslMzOTHj16PJbeqkhNTeWf//wnWq2Wc+fOSWNGoVDUOjeDgoKMxdCyZUtefvllfv75Z2JjY1EoFKhUKtzd3WnXrp1x8idi+PDhnD9/nqVLl9KoUSNu3LghjaE/ypkzZ7h58ybl5eXEx8fz0Ucf1doPT9I2CwsL3n77bclp3czMzOCl6FF9Z8ygQYMYNGgQx44d4/333ycwMBC1Wi3VValU8u6770ovDSdOnMDJyYnU1FR8fHwMdrRUKhXz5s0jISEBjUbDxIkTGTx4ME5OTnzyySds3ryZefPm0bRpUxSVt/qmT5/OuHHjoJZxWhXWvn17xo8fz7Zt2/j0008l14zqeSZOnCjdIP7www9p2rQp6enpODo6MmbMGGmXybgcYxkJCQns27ePDz/8kAYNGpCVlcWGDRseGt+dOnWidevW3Llzh88++wxvb2/0lTcWa0KpVPL2228THx/PgQMHOHLkCN27dzdI365dO95//3127NjBJ598goeHB2VlZRQVFdX4rbZH9c/zzz/Pt99+y4ULFxg9ejTff/891tbW/Pjjj8yZM4emTZuCkQ6uX7/Ot99+S/369bG3t6ewsJC+fftKR7GDBg0iJCSEo0ePcvPmTT744INH6r42qo+zadOmoVarOXToEJGRkVhaWlJcXEy3bt0eOslo3rw5QUFBXLhwgS+++AJvb2+DcUvlJ39mzpzJl19+WeNliSflqbttV1FRgUKhoLCwUPqnUqkYOXIkzZs3JyYmhoKCAunN2s/Pz+C6fRVCCEpKSh66kdCuXTsUldd5CwsL0Wg0DBgwgGbNmqGr9CcqKCjAxMSE999/X/Lr8fLy4t69exQUFNCqVSuaNGmCRqOhT58+0tasvvI7HVX+MD4+Ptja2hITE0NhYSF2dnbSZw7atGnD9evXyc3Npby8nAEDBuDq6mqQ39XVFVdXV65evUpBQQGBgYFMmzYNU1NT6S2zevllZWW0atWqxuNMU1NT2rZty82bN8nNzcXJyYng4GC8vb1p1aoVFhYWBAUFkZCQQFpaGoWFhdjb2zNgwADs7OyMxXH48GFyc3OxsrIiPz+fNm3a8M4772BqaoqTkxOOjo6Sjrt27Yqnpyddu3bF2dmZsrIyPD09Dd7knZycMDc3JzExUbptR7UtXwcHhxp15u7uTklJCYGBgbi6uhIZGcnly5dp2rQpOTk5NG3alI8//hhbW1tsbGzqHENubm54eXlJ+lYoFNJiX1xcLI0lb29vLCwsiI2NRaVSMWDAACZOnIii8gp2gwYNJP8BIQSlpaX06tWrRoPb1NSUli1bYm1tTZs2bfD392fQoEH4+flJ14Vbt25Nly5dmDJlCqNHj6413+DBgwkICMDExITAwEC6dOnCmDFjaNSoET169KBDhw7SEWb37t1rfHhS6SPQtm1bAx+SVq1a4eTkxPXr1ykoKKCkpITg4GBat2792HorKyvDwcGB9PR08vLy8Pf3l8YzdczNmuZ31Y5XXl4eCQkJFBYWYmpqKpVbfUwY86i54+DggJ+fH1evXiUvLw8XFxc++ugjyefGeF0pKyujefPmeHt7Q+XOp7W1NT169JDSOzo6cv/+fUpKSpgwYQL9+/eHymMIMzMzaRePx2ibMb6+vhQWFpKcnIxGo2HYsGHS/OYRfWdM/fr18fb2xtbWlq5du/Liiy/i7++Pn58fffr0wcXFBTc3Nzp27Ii1tTWtW7emZcuWdOrUieeff542bdpw+/Ztdu7cibOzMxMmTMDPz4+ePXvy6aefSrcFO3XqJO1CtG7dGh8fH4KDg6Wr7OXl5VIb2rVrJ+mxXbt29OvXDxcXF9q2bYupqSmdO3dmxIgR9OvXD09PT3r27Im3tzcODg706NEDKysrWrVqRcuWLWnfvj3PPfcc3bt3x9TUlLKyMjp27Ej//v2xs7OjoqKC+vXr06NHDzp37oyDgwNBQUFYWlrSunVrWrduTc+ePRk6dCj29vbodDq6detG//79cXV1pX79+ri7u+Pj48Mrr7yCi4sL7du3p1+/fg898KnsGzs7O5o1a0b37t154403cHBwoGvXrvTr1w8rKyt69OhBw4YNcXV1pVWrVvj5+dG3b1+GDx9e49FUXf3j6elJbGwsXbp0YcaMGXh6ehIQEABAkyZN8PHxoUGDBgZrhJ2dHfXr15dkdevWjbfffpvu3btD5ScoTCpv13p7e9O7d2/atm1bp+6VlS4p3bp1o2/fvpiZmVFWVoarqyu9e/emWbNmuLm50b59e6ysrPDx8cHPz4/+/fszcOBALC0tDXTv4OCAm5sbDRs2xM/Pj9GjRxMYGIiPj480bqvW4uDgYAMfxD+KQogazkhkZB7BtGnTUCgU/PDDD8ZR/1F+/PFHdu7cycmTJ42jZGRk/g3s2rWLMWPG0Lp164eO0mRk/ld46naeZP47KC0txcvL60/5gfwdVFRU4OjoWKMzpYyMzN+PWq3G0tKS7t27S7tfMjL/a8g7TzIyMjIyMjIyT8BTedtORkZGRkZGRuZpRTaeZGRkZGRkZGSeANl4kpGRkZGRkZF5AmTjSUZGRkZGRkbmCZCNJxkZGRkZGRmZJ0A2nmRkZGRkZGRkngDZeJKRkZGRkZGReQJk40lGRkZGRkZG5gmQjScZGRkZGRkZmSfgqTSerl27xrx585gzZw5z5szhp59+4sGDBwDk5eWxcOFC4yxPDTk5ORQXFxsH18rhw4c5fPiwcTAAOp2OZcuWGfxK+t9NcnJyjb/W/Z+gqKiIBQsWGAfLyMjIyMj8R3nqjKfTp0+zePFiCgoKEEKg0+k4evQoe/bsAaC8vJzr168bZ3tq2LRpExcvXjQOrpXDhw9z5MgR42Co/PX35cuX/1uNp5SUFNl4kpGRkZGRqYOn7oeBZ86ciVqtZtGiRQwaNIhevXrh4OCApaUlPj4+AGg0Gtq0aWOcVeLGjRscP36cpKQkGjRogLW1tRQXGxvL8ePHycjIwN3dHRMTE4O81SkpKeHYsWNERkZia2uLg4ODFFdUVERISAiXL19GrVbTuHFjMjMzmTVrFhqNhgYNGlBcXEyDBg1ITEzk3LlzXLx4kezsbJo2bYqpqSlUGk8KhQJ/f38OHz5MXl4e7u7uKBQK9Ho9P/zwAyNGjMDT0xMq23769GkuXLgAQKNGjaQ6CSG4dOkSp06dIjc3l6ZNm0rty8nJ4ciRI8TExODs7IyNjY2UrzopKSns3r2bf/zjHwB11t0YtVpNTEwMjo6OqFQq4uPjcXZ2hsodrSNHjhAfH4+rqyvm5uZSvsLCQg4fPkxsbCx2dnakpqbi7OxMUVERq1at4pNPPpHSXbhwgQsXLnDv3j0aNGiAra2tJEelUhEbG0v9+vUxMzOTwmVkZGRkZP5KnrofBu7duzdeXl6sXbu2xod0Xl4e06ZNY+vWrcZRAGzcuJGoqCgcHR0pKirC0tKSr776CjMzM3755Reio6Oxt7cnMzOTpk2b8o9//MPAuKoiPj6e9evXo1AoEEJQUFDA2LFj6d27N/fv32fVqlWYmJhgampKTk4OEyZMAGDKlCl4e3vTuXNnPD09mTRpErNnz6a0tBRbW1syMjJo1KgRH374ITY2NkybNo3Lly8zZswYysvLuXPnDn379mXy5MloNBpatWrFzz//TO/evcnLy+OHH36gtLQUCwsLsrKy6Nevn5R35cqVpKSk0KBBAwoLCwkICOCVV14hIiKC3bt3Y21tTWlpKWq1mtdffx0/Pz/jZnP+/HleeOEFkpOTAeqsuzE5OTlMmzaNtm3bkpmZSUZGBtu2bWP//v2cOXOGevXqkZeXh5WVFTNmzKBx48bcunWL9evXA+Dg4IBGoyEjI4PVq1eTnp6Ov78/eXl5UGloHjx4kCZNmlBUVER5eTmvv/46/v7+AERFRTF37lxWrFiBh4eHQd1kZGRkZGT+Kp66Y7sJEyZw4cIFZs+ezZw5c/j+++8NjunKy8s5evSoQZ4qKioqWLhwIY6Ojrz44osMHz6chg0bAnD79m1+/PFHfH19mThxIgMHDmTHjh1cu3bNWAxCCFavXk1iYiLPPvssEyZMwNzcnGXLlgEQFhbGvn37GDZsGBMnTqRjx44olUoaN26MnZ0dTZs2pX379rRs2RIAT09Phg0bxksvvUS/fv346aefiIuLMyjP3d2dF154gQ4dOrBgwQKysrKk+Cp27drFuXPn6Nu3Ly+++CLNmjVj4cKFqFQqTp8+zebNm+nSpQuTJk2ib9++mJubU15ezvfff49Wq2X06NGMGTOGtLQ0Nm7caCy+Rh5V9+qUlZVx6NAhsrKycHBwwN/fn+zsbL7//nucnJwYP348zz33HOfPn+fIkSMIIVi1ahWJiYmMGjWK559/nrKyMk6dOmUsGoB69erRt29fJkyYwKhRo7hx4wZhYWFSvI2NDS1btjTY1ZKRkZGRkfmreeqMpxdeeIHXX38dExMTMjIy2L9/P3PnzmXbtm3GSWvE1taWlJQUDhw4gImJCe+++y7m5uacPHmS5ORkUlNT2bJlC9evX6esrKxG46msrIwdO3ag0+k4duwYu3fvprS0lPDwcABpp+rEiRNcvXqVZ555hqCgIFq0aEHDhg3x9fVl6NChdO3aFYC2bdty5swZfv31V6Kjo6moqCAtLU0qr3PnzowdO5bmzZszZcoUCgoKuHv3rhRfxdatW9FqtURERLBt2zZycnKIjY0lIyODvXv30qFDByZMmICXlxdDhw5lwoQJZGRkEBISQkVFBXv37uXIkSNotVpOnjxpLL5GHlV3Y5RKJa+99hpfffUVn3/+OTExMVy5coWCggK2b99OWFgYer2eU6dOUVZWxr59+3j99dcJCgrC29ub4OBgY5ESfn5+pKamsnnzZkJCQtBqtdKuFECLFi2YNWuWwVGmjIyMjIzMX81TZzzZ2dnxwQcfMHv2bGbNmsVHH32EmZnZY92ws7Cw4OOPP8bZ2ZnLly+zfPlyFi5cSFlZGQ8ePJD8b4QQCCGYMGECbdu2NRZDeXk5hYWFODs7S2ldXFx47733AAgODubFF18kPT2dPXv2MHfuXM6cOWMsBoCkpCS++eYbHjx4QNUJaZU/UxUKhUL6f0tLSywtLWu8sVd1bFZVJ2traz766CPq1atHZmYmrq6uxlkkx3t7e3spX9u2bXnppZeMkz7E49TdGBMTE+zs7KS/MzMzqVevHpaWllL5AwYMYMiQIVRUVFBUVCT1S11otVqWLl3KmTNnJDlKpeHwNTU1xc7O7qFwGRkZGRmZvxTxFKHT6URsbKxxsPj555+Fh4eHEEKItLQ04eDgYJxECCGERqMRxcXFory8XFy6dEl89913okGDBiIhIUH89NNPomvXrqKsrEzo9XqDf8aUlpaKFi1aiD179tSYtqCgQOj1epGWliZ2794t+vbtK9566y0hhBBDhgwR33//vSRrz549wsXFRaSnp0syWrVqJQ4cOCCEEOKdd94R06ZNk9InJyeLxo0bi+joaKFWq4Wnp6c4deqUEEKIAQMGiPnz59dYp2nTpolx48Y91J7k5GTh7Owsrl+/bpBHp9MZpKvi3Llzws3NTYjHqLsxycnJwsHBQaSkpEhhZ8+eFW5ubiIrK+uhepeVlQkfHx+xYcMGKf3atWtFq1athDDq6/z8fOHk5CR27Ngh5f/ss8/EvHnzpLx5eXkiLCxMFBcXS2EyMjIyMjJ/NU/VbTudTsdXX33FlStXiI+PJzU1lePHj3PgwAH69+9Pv379HrqBVZ3i4mIWLFjA7du3MTMzIzs7m9u3b/Paa6/h6urKvn37SEtLIy8vj9jYWPbt24e9vT2NGzc2kGNmZkZxcTH79u1DpVKRlZXF8ePHiYiIoGvXrhw+fJjdu3dTUlKCTqfj6tWr+Pv706tXLyIiIoiMjMTOzo6kpCTs7e3Zu3cvTZo04f79+5Lz9PDhw2nVqhWHDx8mMjISS0tL7ty5w8aNG3F0dOTVV1/FxMTE4LadmZkZW7ZsobCwkNzcXMLCwggJCaFt27bUr1+fTZs2UVJSQk5ODiEhIcTFxdG5c2fi4uI4c+YMhYWFpKamcvjwYeLi4mq8sVj9tl12dnaddTdGpVKxevVq3nrrLerVqweVO4lhYWHExMRQUFBAfHw8v//+OyUlJbRu3Rq9Xs+OHTtISkri7Nmz3L17l8TERN59912DvtZqtWzduhUbGxvJ7+306dN4enrSs2dPAKKjo/nqq6/o27evwc1IGRkZGRmZv5Knynii8mp8lcGSk5ODSqXCw8OD119/XXogm5mZ1egbo9PpiIyMJDMzk/z8fNRqNc888ww9e/akQYMGODg4kJGRQU5ODllZWWi1Wnx9fR8yngC8vb3JysqioKCA7OxsCgsLsba2pmvXrqSlpXH37l0pvsrZu6qM7OxsCgoKsLa2plevXmg0GpKTkxFCoNVq6dixIz179qRhw4bS8ZtarSY5ORkLCwumTp0qfZoAoGvXrjg4ONC8eXOKiorIz88nJyeH3NxcTExM6Nq1K82bNwcgOztb0lvDhg1p164drVq1Ij09nfz8fLKysqRPKNRkPFFp8AQFBeHo6Fhn3WvC3Nyc4OBgLCwsALCyssLDw4MHDx6Ql5dHVlYWFRUVuLm50bJlS1q3bk1+fj4ajQYqfabS0tJ4/fXXoVpfm5ubY29vT3JyMiUlJSgUCtzd3QkODpZu1pWWlpKfn09QUJDBJwxkZGRkZGT+Sp66TxUIIVCr1SQlJVFSUoKLiwuNGjUy8AvS6/W1+rXo9XpSU1PJzc3Fw8MDBwcHg7wVFRXSbbEWLVpgbm5uEF8dIQQZGRlkZGTQuHFjGjduLH26oLS0lPj4eCwsLGjRooXB96Jyc3NJSUnB3d0dR0dHtFotd+7cwcbGBg8PD4QQKBQKSZYQgqysLLKysmjZsiVWVlaSLL1eL6WtqlN+fj7JycnUr18fd3d3SRfV45o0aYKzs7OUT6/Xk5ycLBl7xnqpwtifqK6610RtfaPT6YiPj6esrIzmzZtjY2ODQqEgNTUVlUpFq1atyM3N5YMPPqB+/fqsXLnyIXlCCFJTUykoKKB169bSpyyq6+ZR9ZORkZGRkfmzPHXGk8z/X0RFRbF9+3YcHBxQq9VkZmby6quv0rFjR+OkMjIyMjIyTwWy8STzHyUzM1P6NlS9evUYNGiQdAQpIyMjIyPzNCIbTzIyMjIyMjIyT8DDzikyMjIyMjIyMjK1IhtPMjIyMjIyMjJPgGw8ycjIyMjIyMg8AbLxJCMjIyMjIyPzBMjGk4yMjIyMjIzMEyAbTzIyMjIyMjIyT4BsPMnIyMjIyMjIPAGy8SQjIyMjIyMj8wT8x42n0tJS0tLSjIP/I2i1Wnbv3k1eXp5x1J8iLi6O48ePGwc/lRw5coQtW7YQHx9vHFUjycnJbNmyhQMHDiB/b1VGRubfSVFREbt27aKiosI4SqYO/pueSU8r/1HjKTY2liNHjvzhh25UVBRff/219G/OnDnS/3/zzTdkZ2cbZ6mTzMxMvv/++798Ih44cIBjx44BEBMTw6JFi1Cr1cbJnpiNGzcSFRVlHPyHKSsr49tvv2XOnDlkZGQYR9fIsWPHmDNnDnv27DGOempISkpixYoV6HQ64ygZGZn/YmJjY1m9erVx8L8drVbL8uXLSU5ONo56Kvm7nklHjhzh6NGjxsH/k/zHjKfz58+zb98+rKysaNq0qXH0E3Pu3Dl++eUX4+An4saNGxQVFeHo6Ggc9YcRQhASEoKbm5v09x81FqtTUVHBwoULycrKMo76w9y/f59Lly7x4MED3N3djaNr5NixY9y7d49GjRqhUCiMo58KwsLC2LFjh3GwjIzMfznnz5/H2toaCwsL46h/K9nZ2SxcuJDy8nLjqKeOv+uZBLB69Wpu3rxpHPw/yX/kt+0uXrzImjVrGDp0KCNHjvxLHrrvvPMOKpWKTZs2SWFarZYtW7Zw//59hBDUq1ePN954A2trawASExPZtm0bGo0GhULB1atXsbW1ZdOmTQghOHjwIFevXkUIgbm5OVOmTKFRo0bVSv0/dDodu3fv5vbt2wghUCqVPP/88zRt2pSAgAB+++03unbtyqZNm/D29qZz584AnDp1irCwMIM8Pj4+qFQqfvrpJ1q2bMmNGzcQQuDi4sKrr76KVqvl+++/Z/78+UyePBlnZ2cmTZqEl5dXrfJqIjs7m19++YXS0lIUCgUpKSmsW7eONm3acOnSJczNzbl8+TIhISHSro2ZmRkTJ07Ew8ODsrIyAgICiI+P56OPPsLOzg69Xk/9+vV58803sbCwQKvVsmPHDuLi4hBCoFAocHJy4tVXX8Xc3Ny4SgBs2rQJCwsL4uLi0Gg0mJub8+abb+Lg4AB16Eyj0bBy5Ur69u1LWFgY+fn5tG7dmp9++omMjAzGjh2Lh4cHL7/8MgUFBfzyyy8UFhYC0LRpUyZPnoyJiQlHjx4lPz+fjIwMVCoVCoWCsWPH0rp1a6g0XDdt2kR6ejpCCOzs7HjzzTextraudRz4+Phw48YN9u/fj06nQ6FQ0Lt3b3r27AnAL7/8QqtWrbhz5w6pqakMHTqU9u3bV9PKv/pr9erV0mKnVCoZP348LVu2NEhXxf79+7GxsaFfv35QubO6efNmpk2bhoWFBZs2bcLGxoa7d+9SUVGBqakpr732Gs7OzgD89NNPZGZmSv3Wtm1bhg8fblTKv/j111+5f/++QVifPn0IDg4mMzOTX3/9lbKyMhQKBQEBAYwcORIqd4+vXr2KXq+Xdjur8gGcPXuW06dPS4u7vb09b775JpaWltVKqp2jR4+Sk5NDRkYGJSUlKJVKXnzxRby8vADqHAeXLl3izp07uLu7ExYWhqenJy+++CLh4eGcOHECvV7/yDkWHh7O/fv3GT9+PFTu7q5cuZLJkyfTsGHDR461J+mDw4cPExkZaRDm7+/PqFGj/lQf3Lp1i507d0p9YG5uzmuvvUbDhg2rlfQvdDodK1eupGnTpty6dQu9Xo+DgwNvvvkm5ubmxMXFERISwttvv41CoUAIwerVq+nbty/e3t5Qx/ymsq6HDx+WdH/06FGGDx/OJ598gl6vZ/fu3dy6dQshBGZmZkyZMoXGjRsb1ZI611el8l97Cnfu3GHXrl1otVoUCgV9+/alR48exqLIzc1l7ty5rFu3jvfeew9bW1s+++yzOuvzOOXXpoeCggLp+Xn48GG0Wi3Tpk3Dzs7OoF7l5eVs3LiRjIwMhBCYmJgwdepUrK2t//JnklKpZN26dXz55Zf07NkTPz8/hg0bRrt27WqVV1payvr168nPz5fiJkyY8F/zw/D/lp2nwsJCzp8/D5VnrQsWLCAwMJARI0b8JYaTVqvl0qVLBAUFSWFCCDZs2EBISAh6vR4hBBs3buTgwYMApKam8t1335GdnY0QAp1Ox4ULF+jevTtUbmtu2bJFynv48GF+/vlnSX51hBD8+uuvHDx4UEqfm5tLXl4ed+/eRa/X4+3tjVqtZvHixTx48AAqd212794t5bly5QqrVq1CCMHdu3f57rvvSElJQQhBXl4e8+bNk3aarl69SpMmTWjYsCF6vf6R8ozJyclh3rx5zJ49m19//ZULFy6wc+dOADp16oS5uTnHjh1j9uzZbNiwgdLSUs6cOcPs2bNZsWIFVPo7paamSoZXSEgIc+fOZfbs2Vy5cgWtVsvKlSuZM2cOZ8+epby8nLVr1zJnzhwuXLhgVKN/oVar+f7774mIiJDasWHDBul8vq42ZmdnM3fuXGlB0el0qNVqLl++TJcuXdDr9ej1elQqFYsWLeLBgwcIIdBqtaxYsUJ6Y1qzZg179uxBp9MhhODAgQOSbqraFBsbK9Vhy5Yt0gO+tnFw9epV1q5di0ajQQhBcnIyCxcupKysjPLychYuXMjmzZupqKiQyjWmtLRUyl9Vr9qOS4UQ/POf/+TOnTtSWFRUlLQ7W6XnM2fOGOj59OnTAOj1eoqLi6W4uLg4Fi5cKMkypkq3er2eo0eP8uuvv6LX68nLy+Pbb7+VXmAKCgqYP38+CQkJAOzZs4cNGzZQXl6OEILw8HBWrVolyVWpVFIdquZP9TY9ijVr1nDo0CFJp/v372fr1q1QKbuucbBr1y4WLVpERkYGOp0OvV5PeHg4K1eupKKiAiEEkZGRLFmyBI1GY1Tyv/jtt984d+6c9HdKSgpLly5Fq9XCI8ban+mDqKgoVqxYQXl5+Z/ug+LiYql+VePk0qVL1Ur+P3Jycpg/fz737t0z6LMbN24AcPLkSYMxW1RUxIIFCyTjta75fe3aNZYtW0ZZWRlCCIqLi7lx4wZdu3YFYOvWrQbj+dixY5IujXnU+lr1nKp6sCclJfHNN99QUFBgLAohBBEREQQGBmJubo6+cj2uqz6PKr8uPdy+fZu5c+dy8eJF9Hp9je4IarWaZcuWSWmEEKSlpVFWVva3PZPi4+OpqKjA29vboM21yfv555+5cOEConJcZWRkUFRUZNSSpxjxb+D8+fNi4MCBIjIyUrz++uvixRdfFEVFRcbJ/jDp6emiQYMG4vLly1LYrVu3RGBgoDh48KDQ6XRCp9OJqVOninHjxgkhhPj666/FiBEjRFZWltDr9SI3N1e4urqKqKgokZ2dLbp16yZ+/PFHodVqhU6nE0uWLBFt2rQROp2uWsn/V1bbtm3F3r17hU6nE3q9XuTk5Ijc3FyxatUq0bdvX6HX60VSUpJwdnYWiYmJIicnR/Tu3VvMmDFDXLhwQYSHh4t58+YJHx8fodfrxcqVK0W3bt1EcnKy0Ov14t69e8LGxkbcu3dPCCHEBx98IKZOnSq1LTs7u055xqxcuVKYmpqKdu3aiZ9//lmcOXNGNGnSRADi559/Fnl5eSI4OFiYmpqKyZMni9DQUPHll18KQLi4uAghhNiyZYsARIsWLcSuXbvE0aNHRePGjQUgVq1aJcLCwkTDhg1Fo0aNxIIFC8SpU6dE7969BSDmz59vXCUhhBCJiYmicePGIiwsTGrbiBEjxPTp0x+ps5CQEOHp6SkOHTokNBqN0Gq1IjU1VTRq1EjcuXNHkvfrr7+KNm3aiL1794rw8HBx7tw50bx5c7Ft2zZRXFwsmjVrJtatWyc0Go3Q6/Xi1VdfFZMnTxZCCHHmzBnh5+cn1q9fLy5cuCAuXLgg+vbtK7744otax8GDBw/EhAkTxNixY0VYWJgIDw8XGzduFI6OjiI3N1fExcUJZ2dn8fPPP4vy8nKh1Wpr7LOSkhKRk5MjwsLCxPbt20WvXr3EtGnTjJMJIYQoKCgQrq6u4uLFi1LYF198IV588UUhKvXcqFEjcfz4camu3bp1E4sWLRJCCKHT6UR+fr64evWq2Lt3r/joo4+Eh4eHJMuYKt3u379fjB8/XmzYsEHodDqxdu1a0bNnT5GUlCT0er3Iz88Xbm5uYteuXUKn04k+ffqImTNnitLSUqHX68XixYtFly5dJLmFhYUiMTFRHD16VKxfv144ODiIM2fOGJRdG8XFxaJ58+Zi06ZNkk4/++wz0b9/fyGEqHMc6HQ6ERwcLN566y3x4MEDodVqRWlpqRg1apT4+OOPRXl5udDr9eLw4cOiYcOGIi8vz7h4odFoRJcuXcSmTZuksG3btolOnToJjUbzyLH2R/sgPDxcvPTSS2LBggWirKzsT/dBUVGRePDggQgNDRVbtmwRLVq0ED///LNB2VWEhoaK5s2bS/OtvLxc+Pr6ig0bNgghhHjppZfEzJkzpfRRUVHC1dVV5Ofn1zm/1Wq1eOmll8S7774rSkpKhF6vFzExMaJJkyYiMzNT3LlzR7Rr10589913Ut5XX31VjBw5slrt/o+61le9Xi8++ugjMXbsWJGXlyf0er24ffu2qFevnoiOjjYWJfR6vRgyZIhYsmSJ1AePqk9d5delB71eL5YtWyY6deokwsPDhVarFVqt1rhKIjQ0VLRr106Eh4dLdUpJSRGlpaV/2zNpw4YNokePHkKj0QjdI55JWq1WtGnTRsycOVOq34MHD0RhYaFxU55a/i07T/b29qSnp0s7Dh9//DG2trbGyf4wMTExmJubGxxfHD16lAYNGjB48GCUSiVKpRJnZ2d0Oh1FRUVs3ryZqVOn4uTkhEKhID4+HhMTE1q0aEFkZCRZWVlMnDgRExMTlEoljRo1qtHCp3K7vH79+jz77LMolUoUCgUNGjTA0dGR8+fPExQUhEKh4Nq1azg7O+Pi4kJkZCSxsbHY2Nhw7NgxQkJCyMzMpEuXLgBcuHCBwYMH4+bmhkKhICMjAwcHB5ydndHr9Vy8eJHu3btLbYuKiqpTXnXKy8tZt24dWq2Wl156iZdffpmWLVtSWlqKubk5HTt2JDo6WtodSk5O5vvvv5d2JaqO26rie/fuzejRo+nfvz/29vYAWFpasnv3bnJycqByK3jBggXSzUpTU1Nq4tq1azRp0oQuXbpIbbOwsMDa2vqROouIiCAoKIhnnnkGU1NTTExMiImJwcHBAXd3d5RKJUII1q9fj4eHB9evXyckJIQTJ07QqlUrXF1dSUxMpLy8nBEjRkh1TE1NxdfXF4AtW7ZQr149UlJSOHbsGMeOHaNBgwa0bNmy1nFQVFTE0aNHcXV1JTQ0lJCQEGJjY+natSsWFhZcvXoVNzc3XnzxRSwsLDAxMXloR1alUvHPf/6TH374gTNnzhAfH09CQgJt27Y1SFdF1e5Mq1atoNrbcdXO6tWrV3FxcaFXr14olUoqKirIycnBx8cHIQQ7duxg2bJlHDhwgFu3bhETEyMdJdWEUqnkwIEDbN68mYEDB/Lyyy8jKnd7x4wZg4eHBwqFAjs7O2xsbNDpdBQWFnLv3j3GjRuHlZUVCoWC1NRU6Yjm+vXrLF++nF9//ZWoqChpR6hZs2ZGpddMYmIiZWVlDBkyRNKppaUlVlZW6HS6OsdBfn4+8fHxvP322zRu3BgTExNSUlI4f/48r7/+OhYWFigUCho1aiS9VRuTk5NDUlISHTp0kMLCw8Pp0qULpqamdY61P9oHERERrFy5En9/f6ZPn46Zmdmf6oOUlBSWL1/O6tWrCQ8P5+7du+Tk5NR6VBwREUHHjh1p1aoVSqUSMzMzzMzMsLKyoqKigsjISLp16yalv3z5Mt7e3tjb29c5v1NTUzl+/DhvvfUW1tbWKCrdLLy8vGjQoAGHDx+mqKiIsrIyKa9er6dNmzYG9auirvVVpVKxa9cuXnvtNRwcHKR5bGJiIu0qVae4uJibN2/StWtXac16VH3qKr8uPVTlfe655+jatSsmJiaYmJgY1ehfu15dunQxWEddXV2xsrL6W55JVfFdu3bF1NT0sZ5JgwYNIjw8nK+//pr58+dTUFBAvXr1DNrxNPNvMZ78/Px49dVXCQ0NZcqUKfj7+xsn+VOEh4fj5+dnoPjY2FhatWolDSydTsfVq1fp2LEj2dnZpKenG9Tj8uXL+Pj4YGdnx+3bt3FxcTE4Q46KiqJdu3YoK8+jqxMTE0PLli0fMgjKy8u5cuWKtFicP3+ejh07Ym5uzs2bN3FxcaFHjx7SIH/mmWeYNm0aFRUVBvmorJ+fnx92dnbk5eURFxdHx44dpfi65Bk/iAsLC4mLiwOgffv2KBQKYmJiUKlUuLi44OXlRUpKCjqdjvr16xMUFETnzp3p06cPX375Je+++650VApIx6W3b98mIyMDS0tLAgICpGOBli1b0rlzZzp37swLL7zAJ598Ij3EjTl//jwdOnTAzMwMKrf1qwyNutpI5Tio2sKvIjw8nHbt2kk+MhUVFdy9e9dARpcuXZg+fToBAQFcvnyZ5s2bS/5VxcXF3Lp1S5IbHR1Nhw4dDPJOmTKFfv361ToOEhISMDExoU+fPlKe3r1788knn2BtbU14eDidOnV6KF91du3axcGDB7Gzs6N79+4MHjwYnU5nMAaqc/nyZVq0aCEZs0VFRdy5c0fyazh//jydOnWS9JySkkJBQQGBgYHcunWLpUuXIoQgMDCQ4cOHY2FhYXAsbszu3bvZuHEjQ4YM4eWXX0apVKJWq4mLizPwB0pNTUWlUuHr68vt27cxNTWVfBx0Oh2XLl2ie/fulJeXs2DBAhISEnBzc2PgwIF4e3vj5eVVq9+hMZGRkTRr1kzqS51OJ710PGoc3L59GwsLC8k3ispbm6ampri4uEhhV65coVWrVjW+DMbGxmJpaYmHhwcYtY/KPqptrP2RPjhz5gwrVqygTZs2TJ8+HUtLyz/VB6LSH+nixYs4OTnRp08funXrhrW1dY1GnBCC8+fPG8zBlJQU8vLy8Pf358GDB2RmZhIYGCjFh4eH061bNxQKRZ3z+969e5iYmBj0R9V8NzExITo6Gh8fH7p27SrlHTt2rORrVh3jdRmj9TU3N5ecnBxatGghxd+6dQt7e/saLzfFx8ej0Wgkny0q14na6vOo8uvSQ0VFBdeuXaNLDS/F1akytI3XfuOy/6pnUpV7RPX4uuSZmJjw3nvvMXToUPR6PSdPnmTNmjVS3v8GHrYE/iaef/55vvzyS1566aWHOvTPICrP6KsmYBX16tUjPj5eOsffu3cvmZmZDB8+HCEEer1e2hWJi4tj165dkjVer149MjIyyM3NhUqn1bCwMF566SVJfnXs7Oy4c+cOJSUlUOnYGxUVRWpqKnl5eQQGBqLX6w3e/B0cHCgqKqJFixYMHjyYQYMG0aBBA1xdXUlJSSE/P9/AuLtw4YJUv7S0NEpLSyWL/1HyjFEoFJIRuGvXLjZs2MCPP/6IEIK2bdtiY2ODh4eHtMNkaWlJy5YtadiwIUqlkuHDh5Odnc3du3ehcmH56aefmDdvHoWFhTz77LP4+flJux6AtDtjY2NDgwYNpId4dap0FBAQAJXn9mvWrKFhw4Z07969zjYWFRVx8+ZNOnXqZCAzOjraQAcmJibUq1ePsrIyBgwYwODBgwkKCsLa2hp7e3tp8a/ST5XTetXDx8HBgcLCQnr16sXgwYPp06cPZmZmNGnSpNZxUK9ePXQ6HQ4ODgwePJjBgwfTvHlzadciIiLiIaPPmL1799KmTRvef/99unbtypkzZ7C0tKzVuTIuLg47OzsUCgVlZWWsW7cOpVJJixYt0Ol0BmORyp0oV1dXGjVqJO28zpw5U+rr6Ohog4WxCiEEv/32Gxs3bmT48OG89NJLku5MTEywsbEhNjYWKo2D5cuXExQURIsWLYiIiMDf318yPPLz80lISKBTp06oVCoOHTrE5MmTmTJlCs7OzoSEhBgYfDt37mTt2rU17vpQ+WDw9fVFWbnjuGPHDrKyshgxYsQjx0FERAS+vr7Y2NhI8mxtbSkvL5cc42/evMmWLVuYOnVqjZcfEhMTsbS0xNzcHJ1Ox86dO0lKSpIuAtQ11p6kDwBCQ0P54Ycf6NChA9OnT5dun/2ZPtDpdOzatYuhQ4fyzjvv4OPjQ0hICC1atJAMvuoUFxcTHR2Nn58fVO6WLlmyhB49etCyZUvS09NRq9VYW1sjhODEiROcO3dOMgjrmt9CCMrLyyXfqMuXL3Pq1ClpDDs6OlJQUEDHjh0ZPHgwAwYMwNLSUrpRVp1Hra+WlpaYmppy+/ZtADIyMli5ciVjx46t8Sb2nTt3sLa2Nnh5r6s+jyq/Lj2kpKRQWFgo6bg27OzsuHHjhuRbl5CQwN27d/+2Z1JRURHJyckGa21d8sLDwzEzM+ODDz7gq6++onnz5iQlJUl5/xswmT179mzjwL+Dqjfm6ovRX0FxcTFfffUVb7/9tsFWsrW1NYcOHSI5OZnz588TGRnJmDFj6N+/P2ZmZkRFRREVFcWtW7fIy8vjl19+4YMPPqBZs2bY2Nhw9uxZbt26xeXLlwkLCyM4OJhx48bVuEVqbW3NkSNHSEpKIjw8nIsXL+Lo6Mj9+/e5fv06M2bMoKCggG+++YaPP/6Yxo0bY2try40bN7h48SLR0dGcOXOG69ev06lTJy5evEhsbCzTp09HqVRSVlbG7NmzeeONN2jevDllZWVs374dlUpFdHQ0HTt2xN7evlZ5xluhZmZmJCQkcP36denWxLlz5ygtLWXKlCmSoVJRUcH169c5fvw4165d49ixY6SnpzNp0iRiY2NZv349jo6O0hHW1atXGT9+PB9++CEeHh40bNiQvLw8Tp48SUREBJcuXeLYsWM4OTnVeFkgNzeXr7/+GkdHR65evcqpU6eIj4/njTfeIDAwsE6dpaSksGXLFr788kusrKwkmVFRUYSHh5OamoqFhQWenp4oFAr27dtHcnIyYWFhnDt3Dr1ej5+fH3PmzGHSpEnSm/XBgwdJS0vjzTffRKFQSOMqMTGRCxcuEBYWRk5ODkFBQdjY2NQ4Dtq2bUtycjLHjx/n3r17nDlzhsjISFq2bIm5uTnz58/n448/rnNH5d69e1I7EhISJD2+/PLLxkmh8mbdgQMHyM3NJT4+nuPHj+Po6MiUKVPIzc3l22+/5ZNPPpEM8LVr19KoUSOee+45iouLOXToEPn5+Vy5coXk5GROnDjBnDlzHrrRk5OTw+TJk0lPT8fNzY2wsDDOnDmDm5sbTk5OqNVq9u3bR0pKCqdOnaKgoIB3330XDw8PFi9eTJcuXaRbXVFRURw4cIDPP/8cExMTTp06RVpaGjdu3KCwsJD169czZcoU2rRpQ0ZGBm+88QZeXl4EBwc/NJbUajVz5szBysqK27dvc+bMGaKiohg/fjx9+vTB1NS01nHQrl07Fi9eTKdOnaTbkFTO89jYWCIiIoiOjub06dO0aNGC1157rcbbf8XFxezevZv8/HxiY2OJiooiPT2dTz/9FL1eX+dYKykpeew+qKioYNq0aVy4cAE/Pz8iIiIk49rDw+MP94GpqSmRkZHcvHmTu3fvkpWVxW+//UbPnj0ZOHCgQR2oNCbXrFkjGZ8nT56kuLiY6dOn4+bmhkajYd++feTk5HDjxg1pTsydO5d69erVOb8bNGjAsWPHiIuL4/r166Snp/P7778zZ84cHBwcsLOz48yZM9y8eZPIyEjOnj1LXFwcwcHBkrFdxYkTJ+pcXy0sLMjIyJDKO3XqFFZWVkybNq1G4ykvL4+dO3dSVFREQkIC7dq1q7M+Z86cqbP8uvRQFTZ9+vQan0VVmJmZsXfvXtLT0wkLC5PWm9jY2L/lmaTT6dizZw+ZmZncuHGDgIAAnJycapV35MgR9u/fT2RkJGFhYRQWFvLiiy/Wehz8NPJvM54UCsVDC9xfgVqtRgjB0KFDDbbO3dzcsLe3Jy8vD4VCQb9+/RgzZgzKSh8aT09PCgsLUSgUtG/fHi8vL4YMGYKNjQ2Ojo64ublJN/HatWtX69slgLu7O46OjtLNDCcnJwYMGIBWq8XHx4e2bdtSXl6OqakpgwcPxtzcHAcHB1q1akVOTg56vR6FQkGbNm3o2LEjxcXF+Pr6SufjWq0WjUYj1c+u0mehoqICc3NzunTpQsOGDWuVZ3zUaGJiQqtWrXByciIoKIhnn32WwMBAOnfuzHPPPYezszMWFhZ07NiRBg0a0LZtWwICAujSpQtjxoyhU6dOFBcX07hxY4YMGUL79u3x8/OjX79+vP3229LOUePGjfH19aVx48Z06NCBgIAAevXqxYQJE2jSpIlBnag8Zjlw4ACjRo2ipKQEU1NTxo0bR69evaQ3straWFpaSqNGjejZs6fBOGvSpIl0M6pFixa4uroSEBCAQqGguLgYUfmpgUGDBmFvb09ZWRmDBw+WHlAqlYrAwEDpTa9Vq1bY2dmRn58PgIWFBQMGDKBp06a1joMGDRoQGBhIfn6+9CbYrFkzevbsiai8wlw1LmrD09NTunlV1W+dOnUy2N2rjqurK1qtFq1Wi5OTE927d6dz5854e3tTUVGBmZkZAwcOlMpUqVQEBQXh4eFBo0aNMDMzo7S0FAsLC4KDg2nevDl9+vR5aCyVlpZSVlZGYGCgQVxgYCCOjo74+vpSWlpKRUUFlpaWvPrqqwQGBqJQKCgsLKRPnz6S0VhUVIS7uztBQUFYWFjg4uJCQUEBSqWSNm3a0Lx5cwYNGkT9+vVZv349WVlZfP311zW+kKWlpbFkyRJefPFFyiu/vTNgwABGjRol1bO2ceDo6IhKpaJPnz4G19ytra3x9vYmKysLIQQeHh5MmzZNOho1xtnZGTMzMyoqKrCxsaF37974+flJuzp1jbUn6QOdTkdWVhbt27c3OPqtGu9/tA+USqW0TgJ4eXnRpk0bevbsWePx1f79+0lJSSEoKIjy8nKsra2ZOnWqtFthb29PvXr1JN/K3r1706xZM/r27YuJiUmd87t+/fo0btyYwsJCTE1N6datG82bN2fAgAGYmpri6uqKi4sLOTk5iMpr+T169KjxeLHqyLK29dXExAQ/Pz9pvjo4OPDOO+/U+u27Bg0aoFQq0Wg02Nvb065duzrr86jy69JDcXGx9Eypi1atWmFmZiaNbU9PT3r27ElZWdnf8kyysLDA0dGR8vJylEolnTt3xsXFpVZ5CoWCzMxM9JU+ZEOHDmXAgAEGa/fTzn/kO0//Tqo6raZOqSuOyiMJUfn9icehaiA8bnqqlVFXPWqitny1hdfE47avql21yXxUmVXx1CEDYOHChZw7d47ff//9seTVFm9Mbe38I/1VRV06qU3uk9bbmNraURtPmr46f7au1fkzsmqaow8ePGDy5Ml88cUXNX53h8pPjcycOZOoqCjJQKyt7Nr6qzaeRK9/pu1/Jq8xf0aWqDZ36+Lll1/GxcWF+fPn11rW49SjrjQ1jYfq1JX3SXkSWbWlrS38cfgzeat40rHNnyy3pv6pTV5t4f8t/Nt2nv5T1NUxdcXxGPHGPGl6quX5q/LVFl4TT5qutrRPEl9bGiq3vzt06IC3t3edaR9HVnVqS1tb+ONQVx0eFV5T3OPwpHmfNH11/mxdq/NnZNWUr6ioCAsLC4YPH/5QXBUFBQW0aNGCTp061SijOo+KN+ZJ0v8Vbf8jeY35M7IeN19eXh69evXC1dW11jyPU4+60tQWXkVdeZ+UJ5FVW9rawh+HP5O3ij+S/8+UW1O+2uTVFv7fwv/8zpPMfw+6yi9vP8lbksz/f1QtWXUturrKz4rU5Rci89ei1WpRVl6Ll5H5X0c2nmRkZGRkZGRkngD5FUFGRkZGRkZG5gmQjScZGRkZGRkZmSdANp5kZGRkZGRkZJ4A2XiSkZGRkZGRkXkCZONJRkZGRkZGRuYJkI0nGRkZGRkZGZknQDaeZGRkZGRkZGSegP8p40mn07Fy5UrOnj1rHCUj819DWVkZixcv5urVq8ZRMjIyMjJPAf9TxlN0dDTr1q2Tfs+nitDQUL7++mvmzp3L2bNnWbZsmUH804wQgszMTCoqKoyj/hKSk5P/o/pYu3YtMTExxsEPUVRUxMKFC42Dn0oet021ceHCBbZt2yZ9SVtGRkZG5unif8p4io+PZ/LkyfTs2VMKKywsZOHCheTn56PX6ykrKyMqKsog39OMXq9n+fLlJCQkGEf9JaSkpLB06VLj4H8ba9asITo62jj4IYqKiliwYIFx8FPJ47apNhITE3nnnXdo166dcZSMjIyMzFPAU/nDwIWFhYSEhHD79m1sbW1JS0vDyckJIQQ3b97E2toarVbL3bt3sbW1JT8/nwsXLhAVFUXz5s1xd3fHwsICvV7PmTNn+OGHH/j888/p2LEjfn5+qNVq2rZtK5VXWlpKaGgoUVFRmJiY4OTkhE6n4/r160RERHDjxg0AnJ2doXI3qKoeMTExhIWFYWdnh729PUlJSRw7dozCwkLpBzKrSElJ4fjx4yQmJtK0aVPp197j4uLQ6/U8ePCA48ePU1paiouLCwqFgqSkJGbMmIGXlxcmJiZotVrq1atXp7ya0Gg0hIWFERERAdXakpKSwq5du/jHP/5hlONf5OTkkJ6ejomJCUePHiU1NRV3d3d0Oh2nTp3iypUrODs7Y21tLeUpLy8nNDSUq1evYmtrS/369Q1kXrt2jbNnz6LRaPj9998JCgoiICAA6qhnUVERq1at4pNPPpHkPKocYzIyMjh69Cjp6elYWFiQm5uLg4MDFRUV3Lp1iwYNGki/y5WUlIRWq5XaJYQgMjKSsLAwiouLadq0qUHf1tamxx1H1cdzVlYW3bt3x97envLyci5fvkxERAS3bt3CysoKBwcHqdyKigpiY2OxtLTE0tJSCpeRkZGR+ft46oynO3fusHz5cpKTkykqKiIyMpJTp04xdOhQdDodX3zxBffu3ePYsWPs378ff39/QkNDuXDhAtbW1ty9e5fz58/j7++PlZUVv/zyCxcvXsTFxYX09HR8fHxYvXo1o0aNAuDevXusWLGCxMRECgoKCA8Pp3HjxiiVShYuXEhJSQnZ2dmcOnWKkpIS/P39pXpcuXKFnJwc7t69y/Hjx4mLiyMmJobMzEwOHjyIra0tLVu2BODQoUNs376dwsJCYmNjiYiIwN/fH1tbW5YuXcqJEyfIzMwkLS2NI0eOYGNjQ4sWLTh58iR79uyRHqpmZma0aNGiTnnG5Ofns2TJEm7evEl+fj6nT5+moqICX19fUlJS2L17d63G09mzZ/nnP/9JWloa2dnZhIaGEhcXx4ULF8jMzCQqKoqLFy/SrVs3LCwsyMzMZPHixdy+fZuCggJOnTqFQqGgRYsWCCH49ddf+f3331Gr1WRmZhIaGkr//v0JCAios57GxlNd5dTExYsXWb16NTk5ORQWFnLq1Cni4uIIDg4mKyuL2bNnM3DgQCwsLKBy90ij0dCyZUvUajUrV64kPDwclUrFuXPnSE9Pp3379gB1tik7O/uR48h4PJ84cQIzMzNatmxJbGwsa9asoaKigrS0NEJDQ7GyssLLywuA7OxsPv30U+mlQUZGRkbm7+epOrYTQrBq1Sri4uIYPnw4I0aMoKSkhNDQUKg8wjp27Bh3797F0tISX19frKyscHJyon///owfP54hQ4awf/9+IiMjUSqVNGvWDKVSib+/P/7+/qjVag4fPiyVt3r1am7evMngwYMZO3YsPj4+CCEwMTGhXbt2jBw5krFjx+Lg4MDixYsN6pGdnU379u0ZO3Ysly5dIjQ0FE9PT8aOHYuNjQ0//fQTVD7gFi5cSIMGDXj++ecZOnQoYWFhHDlyBIBz586RkJBA8+bNGTduHJaWlqxevRoAd3d3zM3NadasGW3btsXV1fWR8ozZvXs3YWFh9O7dm/Hjx+Ph4cHChQtRqVTGSR8iMTGRsLAw7O3tee655wgMDGTRokVoNBr69+/P6NGj2bp1K7dv3wZgx44dhIWFMWjQIMaMGYONjQ3ffvsthYWF3Lt3j6VLl+Ln58fYsWNp27atwe7Nk9SzrnKMUavVLFq0iLKyMkaPHk3//v1JTEzk4sWLAJSUlHD48GHUarWU59KlS9JRaVhYGDt27KBjx46MHz+ezp07s2LFCpKTkx/ZpscZR8bj+cKFCyQmJgJgYWFBt27dGDNmDM8//zyFhYWsX79ekm9qaoqbm5vBzp+MjIyMzN/LU2U8lZWVsXfvXl577TWCg4Px8/OjV69exsl47rnn+Oqrr/jyyy9p3rw57du35/bt2/z2229ERESg0+lITU3FxMSEzp07Y25uzpAhQxg4cCCmpqaSnLKyMnbt2sXrr79O79698fX1ZerUqbRp0wYHBwcaNWrEoUOH2LNnD3l5eSQnJxvUY+LEifTs2ZMOHTrg7++Pn58fY8aMwdvbm4EDBxIfHw9ATEwMUVFRlJSUSIadEIJTp05JsgYPHszw4cNp3bo1Q4YM4d69ewC0a9cOa2trunbtyrBhw/D3938sedXZunUrOp2Oa9eu8fvvv6NSqYiJiSEjI8M4aY14eHjw6quv0rp1a5599lk0Gg1vvvkm7dq1o3///jg6OpKcnIwQgp07dzJy5EgGDhyIv78/7733Hrdu3SIhIYHTp09jaWnJG2+8gbe3Nz179qRhw4ZSOY9bz0eVY0xmZianTp3ivffeo0OHDrRt25YOHToYJ6uVvXv3olKpSEhIYO/evaSnp5ORkcHNmzcf2abHGUfG47k6np6eKBQK9uzZw8GDBykrKyMuLk6Kd3R05Msvv8TPz88gn4yMjIzM38dTZTxVVFSgUqlo3LixcZQBjo6OKJVKFAoFRUVFzJ8/nxs3bqDVatHr9ZiYmDzWTaWysjIKCgpwdXWVwhQKBQqFgqNHj7JmzRrKy8vR6XQolcqHbvFV+cdQuUNQvUwLCwt0Oh1UPrzt7OwwMzNDrVajVqvp27cvAwYMkNJXl2VpaSnlrYnHkVedBw8e4OTkJKU1NzdnxowZ2NnZGSetkSqdAJiZmRnsrCgUCszNzaX6ZmVl4eLiIsXb29tjbm5OXl4eqampNG3aFDMzMym+Ok9Sz7rKMSY/Px+NRvPIcVUb6enpNGrUCI1Gg1qtRqfT8dZbb+Hq6vrINj3OOKo+nqvrFmDTpk3s2LEDjUZTY34TExMcHR3r9HeTkZGRkflreaqMJysrK5o0acL169elsMzMTIM0xqSmprJ161beeecdvvjiC7766iu8vb2Nk9WIlZUVjo6O3L171yBcCMG2bdtwcHDg888/58svv+T11183SPMoqj8EXVxcMDMz4/XXX2fmzJnMnDmTL774gvHjxxvkqYmqB6pGo5HCnlSeq6srAQEBUtrPPvuMWbNm/WFjwvgBX4VCocDV1dVgZ6TqMwvOzs44OTmRmZlpYBhWNzgft56PKscYOzs7FAoF2dnZUlj1ck1NTaWbmFVUN1Dc3Nxo0qQJn376qVS3r776Cj8/v0e26c+MI71ez08//USXLl344osv+PLLLyVfvSrKy8uJiIggNzfXIFxGRkZG5u/jqTKeqo4/Nm/ezLx585g3bx6RkZHGyQywtrbG1taW8+fPExISwrJlyyR/kUdhZWXFxIkTWbt2Lb/++iv79+9n4cKF3Lhxg0aNGpGdnc2RI0fYtm0bGzduNM7+2Pj7++Pr68vChQvZt28fISEh/PDDD5w4ccI46UMolUo8PT3Zt28fhw8flhzDn0TeK6+8QkhICKtXryY0NJStW7eyZMkSiouLjZP+aV566SUOHjzI+vXr2bdvHwsWLKBbt254eXnRq1cvcnNzWbVqFQcOHGDRokUGBs2T1LOucoxp3LgxXbp0YenSpezfv5/Vq1dz4cIFKd7R0ZFGjRqxYcMGDh06xKJFiwzG0OjRo6WLBceOHWP37t18//33pKWlPbJNf3YcOTs7k5CQwNGjR/n5558lf70q8vLy+Prrr4mNjTUIl5GRkZH5+3jqbtt5e3uTn58vOe8qFArS0tJ44403oPIqe1BQkHRd29bWFhMTE+7fvy8djbRq1YoePXrg6uqKEAJzc3OCg4MxNTWVdgV69eqFovJ2VnZ2Njk5OWRmZlJWVoavry/+/v5kZWVJD0Jzc3M6d+4sfUPKuB4ajYZWrVpJt+v0ej329vZ069YNKysr3NzcSE1NJTc3l4yMDEpLS3F1daVly5Zo/h97dx4eZXX///85W2YyM9n3fYckECCQBAhbEEEWQWtdqOJStda2fqpt1dZKLa12c6u7FbC4U0ERRUVRUHaQnQQSyL7ve2bfvn/8MvcvjIAEEkzwPK7rvsD7nHtmMomZF+c+531sNmkyuPtaX19fJk+ejEwmw9fXl+rqarq6uggKCiIjI+Osj+cpKSmJrq4u2trapK9JJpMxceJEvLy88Pb2ZurUqZ6XQW/V9tDQUGmOkMvlQi6XM2PGDOlWkc1mIysri7CwMBISEujo6JCex8vLi9tvv52kpCSCg4ORy+WUl5djMplwOBxkZGQwffp0wsPDv/N10vt9A876PJ5UKhWRkZFUVlZK9b6qqqqQyWQsXrwYtVqNTqejsrISk8mE3W4nLS2NKVOmEBMTQ1RUFPSObjU3N0sjTePHjycpKemsX1NwcHC/fo7c58aMGUNsbCyBgYHU1tbS3t4OgL+/P5MmTSInJwd6J8NXVFQwYcIEwsLCpMcQBEEQBo/MdS6Tgy6iuro6Ojo6SEpKor29nd///vfo9XpefPFF6J0XpVKpTpkjZLfbKSkpweFwkJKSgkwmQy6Xo1AocDqd2Gw2vLy8kMlkuFwurFartCSd3g+riooKuru7SU5ORq/XI5PJaG9vp6ysjLi4OAIDA7Hb7dJ1nq/DZrMhk8mkCelOpxO73S596Luft7S0FLPZTGJiIr6+vsjlcqxWKwqFAoVCcdpr3R/2bW1tJCUl4efnd9bHOx2n00lzczPV1dX4+/sTGxuLSqXC5XJhs9lOeT/6cjgcOByOb30d7veT3g/wvq/f4XBQWVlJV1cXKSkpaLVaqa/D4aCiogKLxUJKSgqu3pWNfb/2071O9/P0fZ1nex5PLpeL1tZWqqqqSE5O5qWXXmLPnj2sX78eep/XHYBGjBhxys+Qu72zs5Py8nI0Gg2JiYmo1WpkMtlZvyaXy9WvnyN6f5bcz+1yuWhoaKCuro7k5GR0Oh1Op/Nb3w+lUim9VkEQBGFwDbnwdPDgQWmeiNVqpaGhgTvuuIPs7GzProJw3h5//HH27NnDunXrPJsEQRAE4axOP0zxPYqMjCQ1NRW5XE5ISAi/+c1vyMrK8uwmCBdk6tSpZ5xgLwiCIAhnM+RGngRBEARBEIayITfyJAiCIAiCMJSJ8CQIgiAIgtAPIjwJgiAIgiD0gwhPgiAIgiAI/SDCkyAIgiAIQj+I8CQIgiAIgtAPIjwJgiAIgiD0gwhPgiAIgiAI/SDCkyAIgiAIQj+I8CQIgiAIgtAPIjwJgiAIgiD0gwhPgiAIgiAI/SDCkyAIgiAIQj+I8CQIgiAIgtAPIjwJgiAIgiD0gwhPgiAIgiAI/SDCkyAIgiAIQj+I8CQIgiAIgtAPIjwJgiAIgiD0gwhPgiAIgiAI/SDCkyAIgiAIQj/IXC6Xy/OkIAjCUGW322lpaaGzs5Ouri46OztPObq6urDb7TidTs9LkcvleHl54evri5+f32mPoKAg5HLx70pBEM5MhCdBEIYUl8tFeXk5BQUFVFZW0tjYiMPhwOFwEBwcTGRkJN7e3igUCpRKJQqFAofDgdFolA6Hw4HL5UImk0mPCSCTyVAqlWi1WumQyWQ4nU7sdjt2ux2DwUBtbS0dHR0oFApUKhUREREkJCSQkZFBVFSUxysWBOGHRoQnQRC+N3a7nSNHjnDo0CHKy8ux2+3ExcURGhqKWq2mvb2dzs5O6A0+/v7+hIaGEhQUhF6vR6fTodfrUavVyGQy6XDzDE9uLpcLl8uF0+nEbDZjMBjo6emhp6eHlpYWmpqa6O7ulgJYQEAAfn5+GI1G6urqqKurw8vLi5EjRzJ+/HjS0tLEaJUg/ICI8CQIwkVVWVnJxo0bqaioIDIykpiYGCwWC83NzcjlciIiIkhJSSE+Ph4vLy/kcrl09A1Gg83lcuFwOHA6nVLIKisro7i4mKamJgAiIiKQyWSUlZXR1tZGWloac+fOJTQ01PPhBEG4hIjwJAjCoCsvL2f16tVYrVZGjhyJ3W6no6ODiIgIJkyYQEREhHQb7mIGpPPldDpxOBzYbDaqq6s5cOAALS0thISE4HA4KCoqIjAwkCVLloggJQiXIBGeBEEYFC6Xi48//phdu3aRkpKCzWZDoVCQmZlJWloaarUahULhedmwZbfbMZlMHD16lPz8fBQKBXa7naqqKhYsWMDUqVM9LxEEYZgS4UkQhAG3Y8cONm7cSFxcHBaLhaysLMaPH4+Xl9ewGFm6UC6XC5PJxK5duzh+/DhqtZqKigpuvvlm0tPTPbsLgjDMiPAkCMKAcTgcPPPMM9hsNnx8fJg/fz6xsbGDOsJkNptZtWoVlZWVAISGhnLLLbcQHBzs2RWAw4cP09bWxmWXXUZ5eTkACQkJnt0GjN1up6ioiC1bttDV1UVkZCS33367ZzdBEIYRsTxEEIQB4XQ6+fvf/47RaGT69OncfffdJCQkDGpwstvtPP744zQ3NxMVFUVUVJRU6uBM1Go1Wq0WgJ07d7Jr1y7PLgNKqVQyevRofvnLX5KVlUV5eTkvv/yyZzdBEIYRMfIkCMKAWLt2LVu3buUPf/gD0dHRns2D4siRI/zqV7/itddek0aP2traMJlMtLa2Ul1dzaJFiwB45plnuO+++8jPz6e+vp5JkyZx7bXXYrfbyc7O5o477mDEiBEezzCwXC4Xx48f59lnn+XGG28kLy/Ps4sgCMOAGHkSBOGCOZ1O/vvf//LLX/7yogUngH379jFixAiSkpJQKBQoFApCQkKIjY3lxIkTfP3111Lft99+G4CKigoOHjyIQqHA398ff39/4uLi8Pb27vPIg0MmkzFq1ChuvvlmVqxY4dksCMIwIcKTIAgXzGQy0dPTQ1pammfToOrp6UGv1592Erq7CKabw+GQzrtcLnQ6HdnZ2eTm5vLLX/6SmJiYPlcPrsmTJ/PFF194nhYEYZgQ4UkQhAvm3iLldPvJDaYRI0aQn5+P1Wr1bEImk0mB6Wy+j5kLXV1dhISEeJ4WBGGYEOFJEIQLplarycnJYc2aNZ5NgyorK4vAwED++c9/Stu8PPnkkxw6dIjo6GiOHj3KsWPHeOutt2hubva8nKCgIA4dOkRRURHt7e2ezYPmlVde4Wc/+5nnaUEQhgnFsmXLlnmeFARB6A+ZTEZsbCwffPABnZ2dZGRkeHYZFBqNhqioKLq6urDZbLS1tWG320lOTiY+Ph6j0SjtTzdixAhyc3MBCA4OJiYmBp1OR3d3N06nk5iYGGkV3mBxOp289NJLVFdXc9ddd+Hj4+PZRRCEYUCsthMEYUC4XC62bdvG9u3bsdls3HPPPYN6a8pisVBUVAS9c67q6uqQy+WEh4ej0WiQyWT09PTQ0NBAVFQUMpkMjUYj3V5UqVS4XC7a2tpoa2tj0aJFeHl5eT7NgCkrK2PlypXo9XoWLFjA2LFjPbsIgjBMiPAkCMKAcS/F//LLLzEajahUKm677bYzFqy8EFarlerqas/T5y0pKcnz1ICorKzkjTfewNvbGy8vL6666iri4uI8uwmCMIyI8CQIwoAzmUxs3LiRpqYmnE4nNTU1zJ49m7y8vNOujLvU2O12Pv74Y/bu3UtiYiI2m43k5GTy8vIGdXRLEISLQ4QnQRAGhcvlwmg0smPHDk6cOEFAQAC1tbV0d3eTkZHB7NmzCQoK8rxs2KqtreWzzz6jtLSU4OBggoKC6OrqIjMzk+zsbNRqteclgiAMUyI8CYIw6Gw2GzU1NezYsYOOjg5CQkKwWCycPHkSlUpFamoqmZmZJCcnD+p2LgPFarVSWFjI4cOHKSkpQS6XM2LECFwuF+3t7YSGhjJt2jRCQ0NRKpWelwuCMMyJ8CQIwkVls9kwGo0cPnyY48eP43A4CA8Ph96tVSoqKqSJ37GxscTFxREXF4e/v7/nQw0ql8tFS0sLVVVVVFVVUV5eTmtrKzKZjMTERPz9/bHZbDQ1NaFWqxk7diyjRo1Co9GIwCQIlzgRngRB+N44nU5sNhs2m42qqipKSkqoqanB4XDg6+tLQEAATqcTq9VKR0cHtbW1WK1W5HK5dPj4+ODr64ufnx9+fn7o9XpUKhVyuRyFQoFcLpdW2DkcDmw2G11dXXR1ddHW1obBYKCnpwen04nL5cLhcKDVaomKisLX11eao9TS0oLRaMTLy4vY2FhSUlKIiIhApVKhUql+EHO5BEH4/4jwJAjCkOJyubDb7djtdmw2Gy0tLTQ2NtLY2EhzczMWi0XqR2+tJ61Wi1arRa1Wn7INS199w41cLsdsNvPhhx8ybtw4VCrVKX20Wi0hISGEhYURFhZGUFAQSqUShUKBUqkUQUkQfuBEeBIEYVhxOp3S4erdp67vqJHRaJRGmtznZTIZCoUCmUyGUqlEq9Uil8v55ptvKCkp4ZZbbkEulyOTyaQRLUEQhDMR4UkQhB8sh8PBa6+9xpgxY8jOzvZsFgRBOC3xzytBEH6wFAoFc+fOZcuWLRiNRs9mQRCE0xLhSRCEH7SoqCgmTpzI+vXrPZsEQRBOS4QnQRB+8KZOnUp3dzeHDx/2bBIEQfgWEZ4EQfjBUyqVzJs3jy+++EJazScIgnAmYsK48IPT2dlJTU0N7e3tdHZ20tnZSUdHB52dnZjN5lNWcXlyL1F3r8jqW1/Iz88Pf39/QkJCiI6O/sEXSnRv3Nva2iq9v+4/3XWVnE4nnKWsgHv1m7e3t/T+uv8MCAggJiYGvV5/yrUX4ssvv6S1tZUbbrjBs0kQBEEiwpNwSaqpqeHw4cOUlpbS2tqK3W5HLpcTERFBUFAQarVaqtdjNpsxGAwYjUbsdvs51fBxL3/vW2NIpVLhcDiwWq0YjUbq6uro6OhAqVSiVquJjo4mLS2NsWPH4u3t7fmQw5LBYODw4cMUFRVJBSztdjtBQUGEh4fj7e2Nl5cXCoVCel+MRiNms/mc3md632svLy/pfdZoNDidTux2O2azmebmZhobG3G5XCiVSkJDQ0lKSiIzM1OqXH6ubDYby5cvJy8vj1GjRnk2C4IggAhPwqWgtraWffv2UVBQgMFgICQkhMjISDQaDW1tbdIqKpVKRXBwsFT40MfHB61WK9X/6Vvn52wf7O5RKXd9IfdIldVqxWAw0N7eTn19PU1NTXR1deFyuZDL5QQEBKDRaOjq6qK0tBSn00l4eDgTJkwgMzMTjUbj+VRDislk4uDBgxw4cICmpiYUCgVJSUn4+PhgMplob2+XQqW/vz+hoaGEh4cTEBCATqeTqn73fY/dx5m43+O+fzocDgwGA11dXVLxTHdAdrlc+Pj44Ofnh9lsprq6mo6ODnx8fKRyBKGhoZ5Pc4qysjI++OADfv3rX0vFMwVBEPoS4UkYdux2O7t372br1q3Y7XZSUlLQaDQ0NjbidDoJCgoiJSWFpKQkNBoNCoVC2qbjbB/Ug8H9Ye9wOLDb7bS1tVFUVER5eTlWqxW9Xo+vry8NDQ3U1NSQkJDA/PnziYqK8nyo70V1dTWffvoplZWVxMbGEhoaSmdnJwaDAbVaTWJiIiNHjiQgIECqwO0OoxdT3/fZ4XBgMpkoKSmhuLiYjo4OFAoFYWFhGI1GTpw4gU6nY9asWUyYMOG0BTE///xzenp6+PGPf+zZJAiCIMKTMDw4nU62bNnCV199RXBwMFFRUbS0tKBSqRg7diwpKSl4e3ujUqlQKBSelw85rt4tSGw2G62trRw+fJiKigp8fX2Ry+UUFxfj5+fHTTfd1O9bTxeqvr6et99+m66uLkaMGIHD4aCrq4uEhATGjRtHYGAgKpVq2GxT4t7PzmAwUFRURH5+PgABAQFUVlbS09PD/PnzmTRpknSN1WrllVdeYc6cOYwcObLPowmCIIjwJAxxBoOBt956i/r6euLj4+nu7iYsLIyJEycSFhaGWq0eFh/g58Jut2MymTh27BhHjhyB3jk4jY2NLFq0aNArYH/zzTd89NFHRERESMFo7NixjBo1Co1Gc8lMgHf2bjRcU1PD3r17aWtrQ6/XU15eTkpKCosXL0alUnHy5Ek++eQTfv3rXw+LQC4IwsUjwpMwJDmdTt58800qKyuJiIgAYNasWcTExPwg5qE4nU5MJhM7d+7kxIkTKJVKamtr+elPf0pSUpJn9wtSUlLCa6+9RnR0NDabjbS0NCZPnoxWq71kgunZWK1WSkpK2LZtGwqFgpqaGsaPH8+iRYv49NNPsdvtXHXVVZ6XCYLwAybCkzDk1NbW8vLLLxMUFERQUBALFy7Ez8/vtHNTLhabzcbGjRulD9T58+d7dhk0VquVY8eOsX37djo6OkhKSuKmm27y7HZe3nrrLcrKyvD392fatGmMGjUKLy8vqd1oNGKxWJDL5fj4+Fy074HNZqOwsBCHw8GIESPQ6XSeXc7K6XTS1dWFv7+/Z5PEPZk8IyMDem/vtbS0sGHDBmle1913380777zDwoULBzy0CoIwfInwJAwpJSUlvPzyy8TExPCjH/2ImJiYi/aBfTYGg4EbbriBjz/+mOuvv541a9Z4dhl0FouFzz//nH379hEdHc3Pf/5zzy798vLLL1NfX09WVhZz5849JTS5vf3227S0tBAREUF5eTkxMTHceOONnt0GVFFREe+88w7p6ekAnDx5kssvv5zc3FzPrmdkMpn473//y69+9SvPJsnmzZspLi7m7rvvPuW8w+HgxIkTfPrppzQ2NnLVVVexf/9+fv3rXw+Jn0VBEL5/4jeBMGSYTCaefPJJUlNTufvuu4mLixv0DyuLxcJHH33EG2+8QVFRES6Xix07drBq1Sreeecd2tvboXcko7KyEnpHLNysVisbNmzgtddeo7a2Vjo/GNRqNQsXLuTaa6+loKCAzz77zLPLOfvss884duwY1157LQsXLjxtcALYvXs3LS0tREdHExAQwAsvvIDRaDzj+7Rz5042bdokHS0tLQDk5+fz6quvsnPnTtz/XisrK6O8vJzPP/+cN998k87OTgDWrl1LS0sLY8eOJTMzk4SEBKmMg/t5X331VQoKCqTX2dXVxbvvvsvq1aupqanB6XRSX18PQE9PDx999BErVqxg06ZN2O126A3E7tfdl0KhID09nbvuuouQkBA++eQT4uPj2bhxo2dXQRB+oAb3k0kQ+uGLL77Ay8uLW2+99aLUPLJYLDz++OM0NTWhVqvZs2cPTqeT4uJiNBoNVquVf/7znxgMBs9LoffW0lNPPUVzczNKpZLnnnuOhoYGz24Dyj2J++abb2blypU4HA7PLt/JbrezYsUKbrnlFsaMGfOd85oSExPJzc1l5syZtLa2Qm+YPN375K7H1NHRwXPPPYfFYmHr1q2sXbsWjUbD9u3bWbt2LQDbt2/nxRdflCbFv/TSSwB0d3fT3d2N3W4nOTmZJUuWMGbMGOgNVtu3b0ej0bB27Vq2bdtGW1sb//jHP7BYLCgUCnbv3g1ARUUFAO3t7TQ3N6PVasnPz+eNN97o/crOztfXl5///OdUVlYSEhJCUVERVVVVnt0EQfgBEuFJGDLWrl3LnXfeecZRkIF24sQJNm/ezOWXX86VV14pBYnRo0ejUCioq6vj9ddfp62tzfNS6L2d9PHHHxMeHk5iYiL5+fkcOnTIs9ugyMrKQiaTnTL6cq7Ky8uRy+VkZWV5Np3WBx98wNKlS1m+fDn/93//h0ajOeP7lJmZyaRJkzh8+DCZmZkEBASwatUq4uLiuPrqq8nOzmblypXQO7fNYDAwZcoU5s6dy3vvvQfAddddR1xcHG+99RYPPvggf/7zn6mvr8disbBixQpycnK4+uqriYuLY9WqVWzbto2SkhLmzZvH3LlzSUpKwul0SisWfXx8SE5Oxmq1kp+fz+rVq0/5+s7Gz8+P+fPn8/XXXzN79mw+/PBDaeRMEIQfLhGehCGjsbFRWll3MZSVlREREUF8fDw6nY7x48dTV1fH+++/j9PpJDY2Fh8fH8xms+elAJSWlqLT6bBarTQ1NTFz5swB3WftbORyOcHBwdJIUH+0trYSHBx8zrdEfX19CQoK4rPPPiMzMxO5XH7G90mn0/HFF1/Q1dXF3XffjVar5dixY0yZMgWdTkd2dvYpozdpaWnSHnVWqxWACRMmcPfddzN58mTi4uKoqKhgzZo1WCwWqquryc7ORqfTkZubS0FBAceOHWPMmDGEhITg6+vL+PHj+7x62LNnD9u2bcPHx4f09HS6u7tPaf8uERERNDY2kpGRQWRkJJs2bfLsIgjCD8y5/fYUhItg3Lhx7Nq1y/P0oAkLC6O2thaLxQK9c2BOnDjBvn37yMvLY9GiRfj4+HheJgkNDaWjo4OUlBQyMjK4+uqrSU5O9uw2KKxWK8XFxaSlpXk2faf4+HiKi4ux2WyeTac1Y8YM7r77bu644w5efPFFamtrz/g+7du3j88//5zbb79dqpIeERFBaWkp9I42nW7lXN/q73v37iU8PJyrr76ae+65h1GjRlFaWirtb+eeW1ZaWkpERASRkZGUlpZKI0Ke4eijjz5CpVIxZ84c8vLyTmk7F/v27WPcuHHIZDLmzJlDfn4+dXV1nt0EQfgBEeFJGDJuvPFG3n33XWmi72BLS0tj3LhxPPLII9JtqcjISLRaLS+88AKvv/76WecUpaWlkZeXxxtvvMGqVat46623pEnPg+2tt95i3Lhx51V9PCwsjHHjxvHWW295Np2WUqnE29ubn/70p0RGRvL3v/8dX1/fb71Pdrudf//73+zbt481a9bw0EMPceTIEX72s5+xfv16li5dyvPPP8/PfvYzz6c4xeHDh1m6dClLly7lT3/6E/X19Vx33XWo1Wp+9rOf8fzzz7N06VI++OADfvazn5GXl4dKpeLhhx/m4YcfZt26dac83vjx4ykoKODJJ59k165d3znHq6/8/HyOHj3K7NmzofcW4KxZs/jwww89uwqC8AOiWLZs2TLPk4LwfXCP5HzwwQekpqaetUbPQNBoNCQmJkoVpmNiYpg8eTJqtRq5XE5ERAQ5OTmMGzcOb29v/P39GTt2LHq9ntGjR6PRaEhOTqa1tRWdTkdAQABjxow562jVhXK5XLz22msUFBRw9913ExQU5NnlO8lkMuLj4/n000+pr69n7NixZwwU3t7ejBgxgtDQUDQaDampqRiNRmbMmIFer//W+2Sz2RgzZgwBAQH4+fkxcuRIxo8fj81mk573+uuvR6PRoFarSUhIICIiAlnvZsJjxoxBpVLR09ODVqvFx8eHyZMnM2PGDBQKBSNGjKCrqwu1Ws2YMWNYsGABQUFBhIWF0d3dja+vL4mJiSQmJkrfr5iYGAwGA3q9ntTUVMaOHcvo0aNRKpVERESccR/BQ4cO8eqrr3LllVeSk5MjvUdhYWFUVFTQ0NBAYmKi52WCIPwAiDpPwpBiMpmkZf/jxo3jxz/+8Rk/2AeK0+nE6XRK24+4N5k91w1u3defa//z1dDQwMsvv4xGo2HWrFlkZ2ef9/O5XC727dvHl19+icVi4Re/+EW/R7H68z71py99+tM78nW6Ns/Hcvc/3VYqTqcTl8t12jZPdrud119/naqqKmm7Fs/X0NHRwYoVK7jtttsICQk5pU0QhEufCE/CkOOuvVRfX09zczOzZs1ixowZ5/Sheylqb2/nzTffxGAwoNVqWbBgAUlJSRf8frhcLkpKSvj0008xGo3o9XpuvvnmQR/xG6ocDgeffPIJ+/fvJzg4mJEjRzJr1qxvBSe3ffv2ceTIEe68807PJkEQLnEiPAlDktPppKamhq1bt2K32zl69CjJycn89Kc/RavVena/JB09epQ333wTf39/YmJiiIiIYNq0aQNeA8tsNrN9+3YaGhqoqqqio6ODW265Rdq25FLX3t7OypUraWpqYvTo0ajVai677DJCQkLOGlCdTicffPABPj4+zJkzx7NZEIRLmAhPwpBmt9uprq5mz549OBwOqqurqaurIz09nR/96Ef9vtU0lDmdTnbt2sXGjRsxGAyMHj0aLy8voqKimDhxIjqd7qwf5hfC5XLR09PD3r17qa2tlfbT0+v1LFiwgIkTJ55zaYPhoLKykg8++ICSkhLi4+MJDw9HrVYzZcoUwsLCzun2Hr2371555RXuvPPO85p/JgjC8CTCkzAsOJ1OOjs72b9/P/X19Xh7e9PW1saxY8fw9/cnJyeHiRMnDqv5Jw6Hg+PHj7Nnzx6OHTuGj48Po0aNwm63o1QqGT16NCkpKajVas9LB5XFYuHkyZMUFBTgcDhQKpUUFBTQ09NDRkYGkyZNIi0tbViFqfr6enbv3s3+/fsxGo1kZGRItaliY2MZP368NAG+vw4ePMjevXv5xS9+4dkkCMIlSoQnYdix2+0YjUZOnDhBcXExLpcLHx8fWlpaKC4uxmAwEBAQQFZWFqmpqcTFxV20quVn0tbWRmlpKUeOHKGoqAij0Yivry+ZmZmo1Wo6Ozul1Xrh4eF4eXmd1wf5QHI6nVitVurr6zl69CgdHR34+flhNpupqqqisrISb29vRo0axZgxY0hKSvre50uZzWYqKiooKiriwIED0mtOSUkhICCAzs5OVCoVqampJCcn4+3tfc6jTGfidDpZs2YNYWFhzJw507NZEIRLkAhPwrDm/oDv6emhsrKSqqoqenp6kMvl+Pr6YjAY6OzspLa2ltbWVpRKJRqNhujoaAIDAwkICJAOf39/AgICzmmkx+l00t3dTXt7O+3t7XR0dEh/b2xspKWlBZvNhlwuJzo6mtDQUHx9fZHJZHR1dUm332pqaggKCuKWW24Z8LlMA8nlcmGz2bBardTV1VFRUUFTUxMOhwN/f38cDgddXV00NjZSW1uLy+XCy8uLkJAQwsLCTnl/3Yderz+n25Amk+mU99d9tLa2SrcY7XY7oaGhREZG4ufnh7e3N52dnbhcLnx9fYmLiyM2NhatVjsowbS1tZUVK1bwi1/8Aj8/P89mQRAuMSI8CZccu92OzWbDaDTS0tJCc3MzbW1tdHV14XQ6AdDpdHh7eyOXy7FarVgsFukwGAxYrVYcDgdOpxOHw4FcLkcul6NQKJDL5dL1Xl5eqNVqvLy8UKlUUpCzWq3I5XJUKhUBAQEEBwcTEhJCYGAgXl5eKJVKaV5Rd3c3NpuNkpISbrvtNry9vT2/pCHJ6XRKgaqtrY3m5mZaWlro6OjAZrPhdDrRaDRSYLHZbFgsFun9NplMGI3GU95nequNKxQKFAoFXl5e6HQ61Gq19D57eXnhcDgwm81SUG5qamLz5s089NBDhIeHExwcjLe3NyqV6oJHls7Vvn37OHz48HcWARUEYfgT4Un4wXB/QLsP92iK0Wg85TCZTNjtdlwul1QfiD5biMjlctRqNVqt9pRDo9FI4cr94e++5mysViulpaVUV1ej1+vZs2cPt95667CdgOx+3/q+106nUwpLfQ+r1Sq9x+5g636P5XK5VN3c871WKpWnvM8Gg4E9e/ZQXl7Oj370I8LCwjxf1qBzOBysXr2a+Ph4pk6d6tksCMIlRIQnQRgibDYbtbW1FBYWEhoaypYtW7jhhhuIjY317Cqchs1mY9euXbS0tBASEsL06dM9uwy6xsZGVq1axT333HPRNokWBOHiE9uzCMIQoVAo8Pf3JzExEYVCgdPpRKVS8c4776DVai+psgyDQaFQEBsbi0wmo62tja+++orMzMzvHPkbSHq9HqVSyddff01mZqZnsyAIlwgRngRhiJHL5ej1epKSklCr1djtdrRaLevXr6enp4eEhATPS4ReMpmMkJAQ/Pz8MBgMfP7554wcOfKiTsaPiIjg6NGj2Gy2M+6bJwjC8CZu2wnCEOfqLWB54MABdDodxcXFqFQqfvzjHw/4qrFLicViYceOHTQ1NUkbFF8sdXV1vPHGG9x7773DZgGAIAjnToQnQRgmXC4XZrOZ/Px8aaVZTU0Nt9566zmVV/ghcjqdHDlyhKamJlpaWrjppps8uwyanTt3UlJSwq233urZJAjCMCfCkyAMQxaLheLiYurr69FoNBw4cICf/vSnosbQabhcLhoaGsjPz+fEiRPceeedF2U0yG63s2rVKiZMmHBRR70EQRh8Ys6TIAxDSqWS0NBQYmNjcTqdyOVyTCYT77zzDvHx8fj6+npe8oMlk8nw8fEhMjISg8HA3r170Wq1g14KQi6XExoayvr168nJyblo9aYEQRh8YuRJEC4BDoeDhoYGjh49Snh4OFu2bGH+/PmkpaV5dv1Bczgc7N+/X6oAf/XVV3t2GXBbt26lpqbmot4yFARhcImRJ0G4BMh7t6NJSkqSKnBrNBref/99bDabqBXVSy6XExUVhZeXF93d3Xz22WdkZmYO6qhQVFQUu3fvxtvbm9DQUM9mQRCGITHyJPzg2O126urqaGtr+9Z+ae3t7VitVlwul3S4uesFuStg+/j4nLJXm/tw7+X2fXI6ndIKPb1eT2FhIX5+fixcuFCs0OvV3d3Nrl27qKqqYt68eURHR3t2GTAVFRW8++67/O53v0OpVHo2C4IwzIjwJFySjEYjBw8epLi4mLKyMmm/Ol9fX6KiovD390ej0aBWq1EqlVgsFsxmMxaLBZfLdUphRZlMdkqIoncSskqlQq1Wo9FokPfZI89oNNLU1ERtbS0AKpWKsLAwkpKSyMjIIDk5+aIVbnS5XBiNRo4ePYrD4aC1tZW2tjaWLFmCSqXy7P6DY7PZ2LNnD62trej1ei6//HLPLgPC5XLx1Vdf0dTUxOLFiz2bBUEYZkR4EoY9s9nMoUOH2Lt3L1VVVbhcLlJSUggPD0ehUNDV1YXL5UKhUKDVagkMDCQoKAidTodWq5U2CO67p9p3hae++7E5nU7sdru0X1tnZyetra20t7djt9ulW2h6vZ6Ojg4qKyupr69Hr9czduxYJk2aRHx8/CmPPxjMZjMnTpygpaUFuVxOQUEBt912Gz4+Pp5df1CcTiclJSVUVFRQUVHBnXfeOSijcxaLhRUrVjB79mxGjhzp2SwIwjAiwpMwLFVUVLB+/XrKyspISEggJiYGp9OJ2WxGrVYTFRVFfHw8fn5+KJVKlEqltFHvxeIOV3a7Hbvdjs1mo66ujsrKSlpbW3E6nfj6+tLV1UVhYSF2u528vDwuv/zyQa3bZLVaqayspLS0lICAAHbs2MGSJUu+l810h5K2tjb27dtHWVkZ119//aCsxistLWXdunX87ne/u6g/i4IgDCwRnoRho6SkhDfffJPu7m7S09PR6/XYbDaio6NJSkoiKCgIlUqFSqW6aLfFzpfD4cBms2EymaipqaG4uJju7m60Wi0lJSU0NDQwYcIEFi9ejJeXl+flA8Jut1NfX09BQQFhYWF89dVXLFq0iJSUFM+uPxhWq5UdO3bQ2tpKTEwMkyZN8uxyQVwuF5s2baKnp4cf//jHns2CIAwTIjwJQ5rL5eLzzz9n48aNpKSk4Ofnh5eXFyNGjCA5ORmtVjuoK6UuFpfLhdVqpb29naNHj9LQ0IBMJqOwsBCdTscdd9wxaBsDu+dCHTp0iLCwMLZt28akSZPIycnx7PqD4HQ6OXbsGHV1dTQ0NAx4hXCTycTy5ctZuHAhiYmJns2CIAwDIjwJQ9a2bdtYt24dY8aMQaFQMGrUKNLT06UJ2pcym81Ge3s7u3btoru7m4qKChQKBffcc8+gFcB0Op10dXVx4MAB/P39OXLkCBEREcydO3fIj+QNhsbGRg4fPixtsaLX6z27nLcTJ07wySefcN99913yP8uCcCkS4UkYckwmE0888QQajYaIiAimTp1KdHT0oKwOe++994iMjCQ3N9ezaUhwuVxSVezKykoKCgq4+uqrmT59umfXAeN+ziNHjiCTyaivr8dkMrF48eIBXWbvnqPmnlTvnoSvUCikw70a8vtiNpvZvn07jY2NjBs3jtGjR3t2OS8ul4uNGzditVovSqFOQRAGlghPwpDS0dHBI488QmpqKpMnT2b06NGDEpoAWlpa+NWvfsVf//rXIb/6yeVy0dXVxeeff87BgwfJzs6+KHNmTCYThYWFdHR04HQ6KS4u5tZbb0Wr1Xp2hd4SEeXl5ZSUlFBaWkpDQ8Mp4Ugmk+Hr64uPjw++vr6o1WpkMpm00tHlUV/LarXS09NDV1cX3d3dWCwWafK/QqHA39+fpKQkkpKSSExMHJRJ3g6Hg0OHDtHc3ExPTw/XXXedZ5fzYjAY+M9//sN1110nipgKwjAjwpMwZDidTu6//34SExP5yU9+MigfhH21t7ezdetWFi5cOGzmTTkcDnbt2sW7777LTTfdxOTJkz27DAqr1UpZWRlVVVXo9Xp2797NmDFjOHbsGNXV1VitVkJCQggPD8fPzw+dTofRaMRkMn2rDIS3tzcajUaqs+U+77595epTAsJqtWI2mzGbzZhMJmw22ykBS6lU4uPjg9Vqpauri+bmZurq6gAICgoiKyuLnJycC/5Zcrlc1NbWcvz4cYqLi7nzzjsHZEXk8ePH2bRpE/fdd59nkyAIQ5gIT8KQ8eWXX/L+++/zr3/9a8Dm9axatYq6ujrsdjudnZ0sXryYUaNG8eyzz0rLxT/77DNCQkKYNGkSn332Gfv378dms2EwGMjMzKSwsBCFQoG3tzcPPvggDoeDZ555hs7OTsxmM3PmzGHOnDkcOXKEHTt20NjYiNls5mc/+xkvv/wyer0eq9XKAw88cMEf4vSGzK1bt7Jy5Urefvttz+ZB0draykcffcSRI0eorKxEJpNxzTXX4OXlhdlsRqlU4uvrS2BgICEhIQQFBaFWq6URor4B6kL0DVZOp1NatdjR0UFzczOtra10dHRgtVqRyWTo9XpaWlooLi7GarUSHh7OwoULSU9P93zoc9LT08POnTupra1l5syZJCQkeHbpF6fTyYYNG1AqlSxYsMCzWRCEIUqEJ2HIuPPOO7njjjsGdDTllltuITk5mczMTPLz82loaGDZsmXMmTOH3bt3o1KpWLZsGYmJidxyyy3861//ory8nHnz5lFWVsZnn33GHXfcgVqt5umnn+add97h0KFDbNq0icsuu4yenh7Wr1/Pe++9x0cffcQLL7zAkiVLAPjmm29ITEwkOTmZvXv3EhgYyO9+9zvPl3he7HY71113HU888QTJycmezQOiqKiIDz/8kLq6OlJSUggNDcVkMqFWq4mIiCA+Pp6goCC8vLyGVHkIl8uFw+GQbvlVVFRQU1ODwWBAqVRitVopKChApVIxa9YsZsyY0a95VXa7nW+++YbW1lYUCgXz58/37NIvXV1dLF++nJtuuomIiAjPZkEQhqAL+2egIAygioqKAZ97ZLfbycrK4sorr2T+/PkcO3YMelezubnn47j/npyczKJFi5g/fz6tra1cc801LFq0CLVaTVNTE59++ilHjhzhq6++Yvfu3ezatQt6RxECAgK49tprWbRoEVu3buWmm25i0aJF/OhHP+Ljjz+WnvNCKZVKIiIiqKmp8Wy6IEajkf/85z/cf//97N69m5iYGHJychg/fjyzZ89m8eLF3HDDDcyYMYO4uDj0ej1eXl5DJjjRWxFeqVSi1WoJDQ0lJyeHa665hsWLF7No0SKys7PJyckhNTWVlpYWHnvsMR555BHKyso8H+q0lEolkydPJj09HaVSyX/+8x/sdrtnt3Pm6+vLnDlzeP/99z2bBEEYokR4EoaM9PR0Dh065Hn6grk/3NVqtfQh577tczru/l5eXigUCpRKJTKZDJVKhd1ux2QyMXbsWLKzs5k8eTJ/+9vfpGv9/f3RarUolUpsNptU4FKtVmM2m/s8y4VxuVwUFxcP2KhTe3s7jz76KP/85z/R6XRkZWWRnZ3NokWLWLx4Mbm5uQQEBEgTvIcjlUqFTqcjPT2da6+9luuvv57c3FyysrJITk5mw4YN3HfffRw8eNDz0m+RyWQkJSUxceJEEhISePXVV2loaPDsds5Gjx5NREQEmzZt8mwSBGEIEuFJGDJuueUWXn75Zbq7uz2bBpRWq8XLy4uvvvpKOk7HvQrM09y5c6msrCQiIoK0tDQ6Ozs9u6DRaJgwYQIrVqzg+PHjrFixgjlz5nh2O29r164lJSWFyMhIz6Z+cblcvPrqqzz++ONER0czceJE5s+fz/XXX8/o0aPR6/XDZjJ9f8hkMjQaDTExMSxYsIBrr72WSZMmMW7cODZv3swf//hH2tvbPS/7Fj8/P2bOnElqaio7d+5k27Ztnl3OiVwuZ9asWRw6dIiWlhbPZkEQhhjFsmXLlnmeFITvQ2hoKC0tLaxZs4bJkyfj7e3t2aXflEolaWlpBAQEIJPJ8PPzIzMzk4CAANrb21Gr1cTFxZGTk0NYWBgKhYL4+HgplPj4+DBu3DjoHbnIyMhgxIgR0LvRa3d3N3q9nlGjRiGXywkLCyMlJQW5XE5cXBzd3d20tbUREBDA1VdfTWBg4Cmv73y8//77bNmyhTlz5tDZ2cnRo0fZs2cPX331FRs3bmT37t2cPHmS2tpaOjo6sNvt0rykvnp6eli6dCkqlYpx48Yxb948Ro8ejVarPW1oPBu73c4HH3xAeno6FosFm832ree7UE6nk46OjlN+Lk6cOMGrr77K5MmTz3syuntUMTo6mvT0dLRaLWazmffee4+goCCioqI8LzmFQqEgNjYWmUxGa2srW7duJTMzs9/voUajQafTsWnTJrKzsz2bBUEYQsSEcWFI6ejo4N1336WwsJArr7ySyy+/3LNLvxiNRmm/O4fDgclkQq/XY7FYqKurQ6/Xo9PpUCqV0sox9y0+p9OJ0WiUKksbDAY0Gg0KhQKz2UxDQwMul4vg4GB8fHyw2WzY7Xbpw93pdNLe3k5rayvh4eH4+Pj0+wO1r56eHp566ikAZs6cyciRIzEYDN863OUAvL290Wq10t8tFgttbW20tbXR1NTEzp07GTVqFIsWLSIuLu68wwe99aB+/OMf8+mnn3L48GHa2tq47LLLPLtdEIPBwIsvvsiDDz4onVuxYgXe3t7ceOONF/T6PXV3d7Nx40a2bt3Kbbfdds5hpqWlhQMHDlBaWsqNN96Iv7+/Z5ezcjqdrF27ltDQUGbOnOnZLAjCECHCkzDk9PT0sHHjRqqrq6mpqeGnP/0pGRkZnt1+MCwWC6+//jqlpaXSPJuMjIwzhgX3Ev6+y/kdDgcWi0UKWP/617+IiYnhgQceICAgwPMhzllVVZVU6uHhhx/m+PHjHDp0iKamJq644goOHz5MdHQ0NTU1KBQKMjIyOHHiBF999RWxsbHMnTsXuVyOxWLhk08+oa2tjcmTJzNq1KhvnUtISODJJ5/kkUcegd4FBk8++SRTpkzhuuuuQ6lU0tDQQHNzM52dnRw7doz58+cTExPj+bLPid1uZ+PGjaxevZoVK1ag0+k8u5yWxWJhx44dNDU1MXLkSMaPH+/Z5axaW1tZuXIld9111wV9bwRBGDyn/+0rCN8jvV7PNddcw5w5cxgzZgzbt2/nvvvu47333rugVU3DTXV1NY8++ih//etfUalUTJo0ieuvv56xY8eeMTjRO39GpVKhVqvx9vZGr9fj5+dHaGgoCQkJxMbGStXVL+TDuaSkhCeeeAJ/f3/kcrm0grGrq0sqVLl27Vr+8Ic/sGXLFgoLC9mxYwdvvfUWwcHBFBYW8t///heLxcKyZctob28nKCiI3bt3n/acy+WSVkseP36cf//738yYMYOmpiaefvpp6C2v8Le//Y3Ozk5UKtUpk/n7S6lUMm/ePIKCgti6datn8xmp1Wry8vJIS0ujqamJd955x7PLWQUFBTFr1izWrl3r2SQIwhBx5t/AgvA9UigUjB49mp/85CdMmTKF8ePHYzAYeOSRR3jggQdYt24dPT09npcNeydOnODJJ5/k3nvv5f3335fmYy1YsICrrrqq37eBTqesrIzw8PDvnMvzXdavX49Op+OKK64gOztbqpXU2dkprTwrLy8nLCyMGTNmMH78eFatWoVMJiM8PJygoCDeeustjh8/zjfffMPs2bO5/PLLmThx4mnPOZ1Ojh8/DsC6desICAhgzpw5XHHFFXz44YfQe9u3p6eHCRMmcOWVV7J79+4+r7j/lEol06dPZ/PmzZ5NZ6VQKBg7dixjxowhODiYF198EaPR6NntjDIzM9FqtezYscOzSRCEIUCEJ2FIU6vVjB07lp/85Cdcfvnl5OTkMHr0aOx2O8uXL+fee+/l6aefZteuXZhMJs/Lh7zq6mrWrVvHH//4Rx544AF2795NZGQkOTk5TJw4UaoxFRoaetbRpv5QKBQDMoJ39OhRcnJy8PPzw9/f/4yFJqdPn86ECRNITk6moKCAiIgIGhoa8Pb2ZsaMGVRWVhIaGkpsbCw+Pj5kZGSc9lxfhYWFjB8/Hj8/P0aOHHnK1xMVFUV4eDihoaEDsoWKXC4/rxWHMpmMyMhIpk6dSkpKCmvXruXEiROe3U5LoVAwZ84cduzYMeirTwVB6L+B+W0sCINMpVIRFRXFVVddxeLFi8nLyyMzM5OsrCwiIyOpq6vj1Vdf5be//S33338/zzzzjDTvZChM67NYLJw8eZJ169bxyCOPcO+997Js2TI2b96MXC4nNTWVnJwcsrKypNpKkydPRq/XX9Ak89OJj4+noaGB2tpaz6Z+CQ4Olh7DYrGcMZD1DR6RkZE4HA4mTJhATk4O119/PREREVRXV2OxWKB3ztvpzvUVExNDUVER9NaoMhgMp7S7DUTg3LBhwwWVmdBqtVx22WWkpqZSUlLC+vXrPbucVmhoKHl5eaxZs8azSRCE75mYMC4Ma3a7HbPZTFtbGxUVFdTX12OxWKSl+T09PbS2tlJXVycVrfT39yc2NpbAwED8/f2lIyAgAK1W6/kUZ2S32+nq6qKjo+OUo7GxkZqaGsxmM1arlcDAQCIiIvD19cXb25vu7m7kcjl+fn7ExMQQExODVqtFo9EMeFA6k9dff52dO3fyzDPP9Otr7mvPnj088cQTxMXFERoayqpVqzhx4gQfffQRx44d46GHHuLGG2/k9ttvl1ZNfvnll6xdu1ZakZiQkMBtt93GX//6V8xmM2q1mqCgIO65555vnfv1r39Nbm4u+fn5HDp0iGeffZaAgACMRiNxcXH88Y9/ZP369WzcuJFXXnkFgEmTJrFnz56+L7tf3njjDXbt2sUTTzyBj4+PZ3O/uFwuKisrOXHiBGVlZdx5553fWc7B4XDw5ptvkpaWxsSJEz2bBUH4nojwJFxSXC4XNpsNq9VKe3s7zc3NtLW10dHRgcViweFwoFAo0Ov1UhVwi8WC1WrFYrFgMpno6enBarWeslpNLpcj793cVqFQoNPp0Ol0qNVq1Go1Xl5eqNVq5HI5RqMRk8kk9fXx8SEgIICgoCBCQ0Px9vZG3btp7velq6uLlStXUl5ezh/+8Ifzmv9ktVrZtGkTHR0dhIeH09XVxTXXXENVVRUdHR2MGTOGrVu3nlLM02q1sm3bNurr65HL5cTExDBt2jRKS0vZu3cvLpeL0NBQZs+e/a1zM2fO5JNPPuHqq6/G4XCwfft2qqurUSqVzJw5k/DwcKqqqqipqSE3NxeATz755Lw23LXb7Tz//PPU1dWxZMkSxo4d69nlvHV1dbF7926qq6u54oorvnM1YH19Pa+//jq//vWvzzvoCoIwsER4En4wHA4Hdrsdu90u/d1kMmE0GqXAYzKZMJvN0lJ/l8sl3fZzhyd3HSiNRiPVUnLXU3KHIqVSiVKpRKFQDMito8HQ2trKBx98QGFhIRkZGdx88839DnQulwu73S5tYXOu7Ha7FC7dHA4HLpcLhUIhPdbpzrm5n3ug3+MDBw7wxhtvkJSUxNSpU8+r4OV3sdls7N27l5aWFvR6/XfWM9u5cyclJSXceuutnk2CIHwPRHgShB8wk8nEF198QX19PUVFRWRmZrJ48WJpT74fkm+++YY1a9YQERFBcHAws2fPJiIiYsCDk5vT6aSkpISKigoqKyu54447zhgCbTYbr7/+OuPHj//OulFff/01hYWFaDQazybhNORyuQilQr+J8CT8oNjtdqqrq6mqqqK9vf2UuUruSc/u0Q73/xruP90fou4RE/fh4+Nzyrwpdz2lC6mhdDEYDAYOHDjA3r17aWtro7Ozk3HjxlFRUYGvry/XXnvtgG08PFR1dnby3nvvUVBQQHp6urQFT0ZGxkULkG1tbezbt4/y8nKuvfZagoODPbsAUFNTw9tvv81999131lWEL730EvHx8fj5+Xk2Cafx0Ucf8a9//cvztCCclQhPwiXHbrdz7NgxDh48SHl5OUajEYvFgp+fHxEREfj5+aHX61GpVFitVulwOp3SrTn6hCVP7mDlPpRKpTTvSaFQYDKZ6O7uprm5mfr6elwuF2q1msDAQNLT08nOziY8PNzzYQeV0Wjk8OHDfPPNN8jlckaNGkVcXBwdHR00Nzej0WiIiIhAr9ezf/9+enp6sFgsFBYWotPpmD17NpMnT+73bb2hqKysjI8++oiKigri4+Px9vbmyy+/RKvVsnjxYmbOnHnRR22sVis7d+6kubmZ2NhYJk2a5NkFgK1bt1JdXc2SJUs8myTPP/88N91004Dso/hDsGzZMsQWr0J/ifAkDGsul4uCggL27t1LcXExZrOZ2NhYIiMjUavV9PT0IJPJkMvl6HQ6aeJ2YGAg3t7e0nyZvod7XtN3hSf3CJV7YrnT6cRms9Hd3U1LS4s0Ud1ms+F0OlEqlXh7e9PW1kZ5eTkGg4GAgAAyMzPJzc0lKCjI86nOi9ls5siRI3zzzTfY7XZGjRpFQkICXV1dNDU1oVariYiIICwsDG9vbyn0ublcLgwGA6WlpZw4cQKLxYJCoeDEiRN0d3cTHBxMVlYW2dnZQ350zWq1cvToUfbu3UtFRQUul4u0tDS0Wi0Oh4PY2FiSkpJoaGigsbFR2qfwyJEjVFZWMmXKFCZOnPidq+IGgtPp5NixY9TW1tLU1MQtt9zi2QWr1cp///tfpkyZ8q3aV24iPPWPCE/C+RDhSRh2DAYDmzZtYs+ePSiVStLS0tBoNBgMBry8vAgJCZGWz6tUKmny9pnmkwwmd8hyT1Q3mUzSirDu7m5cLhc6nY66ujpKSkqIiIhg/vz5Z/xg9OQOB/v27cNoNJKenk5ycrI08qVQKIiMjJSCUn9X+TmdTsxmM42NjRQUFNDR0YFcLkej0dDS0sLJkycB8PPzIz4+nqSkJBITEwkPDz9j+BwMnZ2dlJWVUVpaSnl5OS0tLVgsFhISEqTXYjab0Wg0jBgxgsTERHQ63SnvhdPpxGKx0N3dTWVlJU1NTYSFhaHRaDh48CBNTU1SpfT+vIf91djYyJEjRygpKeHmm2/+VomEiooK1qxZw29+85vThjoRnvpHhCfhfIjwJAwLNpuN999/nz179hATE0N0dDQWiwVfX1/S0tIIDw+Xbp19HyHpfNjtdiwWC0ajkeLiYioqKqTSCEVFRahUKpYsWcKIESOg9z0oKChg3759dHZ2kp6eTkpKCgaDgebmZmQyGREREYSHh0tB6UxVv8+XuwzEjh07WL16NdnZ2fj4+CCTydDr9TidTnp6emhra6O2tha73Y5KpUKhUKBSqfD19SUgIECaH6bX66W5Y+5RP0fvRsZOpxOj0SjNSXPPUbNardLcNKfTSXh4OCEhIfj6+kqjjXa7HS8vL8LCwoiPjycoKEj6+TjXUOcOjp2dnVRWVtLW1kZERARyuZwDBw7Q1dXFzJkzz7pJ8/kymUzs3LmThoYGxo0bx+jRo6U2l8vFV199RVNTE4sXLz7lOkR46jcRnoTzIcKTMKS5d5jv6OggNTUVuVxOdHQ06enp+Pn5oVarz/nDcKhzOByYTCaqq6spLCykp6eHzs5OiouLSUhIYN68eVgsFpqbm3E4HERGRhIeHo5Wqx2UoHQ6paWlfPrpp+Tk5GAymRg/fjwajQabzYa9t2hoa2srLS0t0iR8961NeveKc4cYesOY+1eQu0/f26buEcO+9bhcLpcUtFQqFX5+fgQGBhIcHExAQAAqlUo6BjLUOBwOzGYzHR0dVFRU0NXVRWRkJHa7nX379uFwOJg1axapqamel54Xh8PB4cOHaWxsxGAwcN1110ltFouFFStWcPnll3/r+UR46h8RnoTzIcKTMCTZbDZeeuklmpubSUlJwdfXl4kTJxISEnLaWxWXGpfLhclk4vjx4xQUFFBeXk5paSl33333RZuD01ddXR1r165l0qRJdHd3M2HCBPz9/b8zuPYdRfI8rFYrZrP5lHlj9KmnJZfLpeKjp5ubJu/dc+67XsNgcYddd3V7k8lEVFQURqORvXv3olarufzyy0lMTPS89Jy5XC5qamooLCykpKSE22+/XZrMXlpayrp16/jtb397ym1EEZ76R4Qn4XyI8CQMOSdPnuSll15ixIgRxMfHM2XKFHx8fAZ0FOG7OJ1Ourq68Pf392y66Gw2GxUVFezatYvS0lLCwsL45S9/eVFCQ1tbG2+++SY5OTl0d3eTmZlJUFDQRf1eDBf23q2CmpubqaiowG63ExkZSXt7O/v27SMwMJBZs2YRHR3teel36unpYefOndTV1TFjxgwSExNxuVx88cUXdHV1ce2110p9RXjqHxGehPMhwpMwpBw5coTly5eTk5PDFVdcQVhY2EUJCZ4MBgMvvvgiDz74oGfT98ZqtbJ3716+/vprVCoVDz744KCFGIPBwGuvvcaYMWMwGAyMHTuWsLCwAX0+h8NBR0cHbW1ttLW10draesrf7Xa7dEuv768p98+DTCbDy8uLwMDAUw73akp/f/8Bfb39ZbPZMJlMNDU1UVFRgVwuJyIigoaGBg4cOEBUVBSXXXYZYWFhnpeels1mY//+/TQ3N6NUKpk/fz4mk4nly5dz5ZVXkpSUBCI89ZsIT8L5EOFJGDK6urq45557WLRoEQsXLjxrIcCBtHv3bqKjo9m8eTNRUVFcfvnlmEwmnnrqKf70pz/hcrnYvn07hYWFJCQkkJeXh5eXF0ajkQ0bNmA2m7nyyisHrNTA2bhcLkpKSnjppZfIzc09ZR7MQLBarbz++uskJSVhs9lIS0sjKirqvFaXOZ1OqqurOXnyJCdPnqS2thaz2YxcLpcmeGs0GjQajTQPyj2J3j1Xij5hyeVynfJ3em/xuW/tKZVKrL17FJrNZsxms1SeweVyodFoiImJYcSIEaSkpBAdHX1Rw5XVasVkMtHQ0EBlZSVeXl7SfnyHDh0iJSWFvLy8s4Yel8tFWVmZVJn8jjvuoKysjA0bNvCb3/wGuVwuwlM/ifAknA8RnoQh45133qGgoIC//OUvF3VOz80338yUKVMIDw9n27Zt5OXlMWvWLO644w7+97//sW7dOoqKihgxYgTt7e3k5eURExPDI488wsiRI9FoNOzZs4dHHnmEkJAQz4cfFPn5+fzxj39k3bp1A/JeORwOVq9eTVBQEAqFgsTEROLi4s75sa1WKwcPHpRuLclkMqKjowkKCsLX11cKNAqFArVajY+PD97e3uh0OrRarbTRsnuCuPtw6zv62PdXVt85VDabDaPRiMFgkA53wVJL76bQ7rpW7ontNTU1yGQyIiMjmTJlCuPHjz/nr/lCuHo3sDYajdTV1VFVVYVOpyMkJITS0lLy8/MZPXo006dPx9fX1/NyOjo62Lt3L5WVlSxcuJBDhw5hs9m46qqrBiw8OZ1OaeL+UOXsLWx7IUR4Es6HCE/CkLF48WKWLVv2rdVDgy07O5tHH32U3NxcPv74Y9avX8+rr75Kbm4u+fn5/OEPf6Curo4///nPuFwu/P39qa6u5g9/+AMrV65Eo9HwwAMP8OMf/5iFCxd6PvygcDqd3HTTTfz6179m8uTJns3nzOVy8eGHH+J0OqUK7MnJyd+5NUlrays7duyQluzHxMQQFRWFs7fUgre3t7RVTWhoKN7e3tIKuIuxKrAvV2+tLZvNJgWWpqYmmpqaaG9vl0KdQqGgpqaG6upqfH19mTBhAlOnTr1oI4rushW1tbXU1NTg6+tLUFAQRUVFFBUVMX78eKZOnYpWq4XewLp7925aWlrQ6XQUFhby4x//mA8//PCCwtOBAwd47bXX6O7uRi6X4+/vz5/+9Cc2b97M5s2b+ctf/kJoaCgAf/nLX6itrQUgKCiIf/zjH7z33nts2rRJejyVSsXvf/97nnjiCaxWK7/85S8ZO3Ys//jHP1Cr1UybNo0VK1ZI/d3uu+8+vvzySwoKCqRzQUFBPProo6xfv54vv/xS+t6FhoaybNmy8xqtFuFJOB8iPAlDxty5c3nttdcu+tYlkyZN4n//+x/x8fEUFBRwxx138OWXX0rhadeuXWzduhWTyUR7ezu/+c1vyM/PZ+3atbz11lsA/OMf/8DHx4d77rnH8+EHzV133cVPfvITZs6c6dl0TjZv3kx9fT0xMTH4+fmRmpp61m1JamtrWbduHWVlZSQlJREeHo7RaESpVBIWFkZiYiLBwcFoNJozjt64XC5pQnVtbS2dnZ10dHTQ1dWF2WyWVufZ7XacTucpc548R0BkHnsMKhQKNBoN/v7++Pn54efnR3R0tFTnyfN6eh/XPdG7paWF0tJSmpqasNvt6HQ6GhoaKCkpITExkR/96EfnNdn7fLjDVE9PDzU1NdTV1REYGIivry/Hjh2jrKyMiRMnMmnSJMrLy6mqquLLL78kMjIShULBkiVLzis8tbe3s2TJEo4fP84vfvELvLy82Lp1K8899xzPP/88zz//PPn5+dKeh++++y4PP/wwBoOBf/3rX9xyyy08+OCDPPvsszz44IPSSOaCBQvIzMzEaDRy7bXXsmrVKi677DL0ej3PP/88Gzdu5MCBA6xevZrbb7+d9PR0fvSjH/GrX/2KnTt38tBDD+Hl5YWPjw/z5s1jwYIF+Pv7s3jxYux2O8ePH+fxxx9Hp9N5fknfSYQn4XyI8CQMGX/+858ZOXIkN954o2fToOobntasWcMHH3zA8uXLpfBUWlqKXC7n5MmTLF++nBtvvJHo6GgeeOABNm/ejFKp5Pbbb2fevHlcf/31ng8/KEwmE/PmzWPt2rX9vlW4b98+jhw5QmpqKiqVijFjxuDt7e3ZDXord7/11luUlJSQkpKCv78/LpeLhIQEkpOT0ev136pa7nA4KC4u5uDBgxQXF0t7C6rVasLDw/H398fHx0ea42S1WrH1bmEj7y1T0Pc4E/evLnfIct9m8vLywsvLC5VKhdlslop2NjQ0YLPZUKvV6PV6RowYwfjx40lKSjrl1o/D4ZCCS0lJCeXl5chkslNqbi1ZsuSibk3j7FP9vLq6msbGRoKCgtDr9Rw5coQjR47g7e3N0aNHsdlsvP766+cVnrZs2cLcuXP5xS9+waOPPopCoeDYsWOkp6fzl7/8hWeffZbjx49L4clisTBt2jRaW1vJz89Hq9XywAMP8PTTT3PTTTfh4+NDaGgod911FykpKSQnJ1NeXs6LL77ICy+8gF6vZ+PGjVgsFlavXs1dd93FmjVrmDdvHhqNhkWLFrF161aWLFmCUqlk9OjRLFiwgNTUVOLj47nyyisZM2YMo0aNIiMj47xGNUV4Es6HCE/CkFFUVMSf//xn/vGPf1xQbZz+ysrKYvLkyajVapqbm/npT3/KhAkTpPD03//+lyNHjqBSqaitreX3v/89CQkJLFu2DLvdjlKpxGg0snTpUmJiYjwfflA89dRT9PT08Mgjj5w1YPRVWFjIli1bGD9+PHa7nczMTPR6vWc3AI4dO8Zbb72FTqcjNjYWpVJJcnIyI0eOlKqC07s8//Dhw+zfv5+KigrMZjPR0dFSlXODwSCNEKnVaqmgpXsURXGG+k19QxRnmPPk6t1jsO+8p76Hw+Ggs7NTWsHnHt1yhy29Xo/BYKCuro76+nq8vb1JSkpiwoQJjB07VgpUDoeDnp4eTp48SXFxMQ6Hg5qaGjo7O/nJT37C2LFjpdd2sTh7q593dXVJ2/O0trayceNGamtrOXr0KPHx8Z6Xfac33niDW2+9lTfeeIObb775lLYHHnjgW+GJ3n98tLa2UlRUhEKhkMLT9ddfj16vJzw8nHvuuYekpCRuv/128vPzaW9vp729nZSUFL788ksA3nzzTW655RY2bNjAlVdeCcD8+fPZunUrN9xwAwqFgnHjxvHTn/6Up556ilWrVtHW1kZsbCzTp0+XRn/7S4Qn4XyI8CQMGU6nk/fff5/Nmzdzzz33nLIlxWDKycnhjjvuQKfTERQUxKxZs5DJZHzyySdcffXVHD58WJp3ERoaSl5eHiqViuLiYvbt24erd7PZzMzMC568+l0cDgfPPfccjY2N/OpXvzqnsFZVVcX69etPqQru6+t72tB1/PhxVq1aRWRkJIGBgURGRjJhwgT8/PykwFRbW8vGjRspKirCz8+PlJQU5HI5ZrMZlUpFcHCwFKC8vLykvQX7jk59X9y3BN2r+urr66mpqaGtrQ2r1YpWq8Vms3Hy5EkMBgOjR49m7ty5UjkBh8NBV1cXBw8epLq6ms7OTqqrq7npppvIzMz0fLoBYTQaKSsro7y8nPLycnp6eoiIiCAqKorIyEg0Gg2tra38+9//5siRIxgMBnbv3k1UVJTnQ32nL774giuuuIL77ruPp556CplMRnFxMeHh4fz1r3895/D0zDPPsGHDBqKjo1Gr1fj6+pKUlMSDDz7IpEmTuOGGGzAajUybNu07w9O+ffvYuHEjGo1G2oKnvr6eqqoq6urqWLNmDXv37uXQoUPSVkb9IcKTcD5EeBKGFLPZzPr16zl8+DCJiYncfvvt5zUU3x95eXm89tprREVFoVQqTxsqHL1Vsj3bHQ4HLpdr0F8jIJUoiI6OZu7cuaSnp3t2OUVTUxP/+9//yM7Opqenh/HjxxMYGHjar6+np4fnnnsOgMjISEaNGsXo0aOl23kVFRW8/fbbtLe3M2LECHx9fbHZbAQFBTFy5EiCg4OlcgODHSAHg7O34rnFYqGpqYmioiLa29tRq9W0t7dz8uRJwsLCWLJkiRRKTCYThYWFHD16lMbGRsxmM/fee2+/C6tarVYqKyspLy+nrKyMlpYWQkNDiYyMJDIyEj8/PwwGA93d3fT09OBwOPD398ff3x9fX18+++wzdDodX3/9NSkpKfznP//hm2++Oa/bds3NzVx//fWUl5dz1VVXoVQqKSsr44UXXuCZZ57hqaee4pZbbsHPzw+v3k24n3nmGUwmEw888AB//OMfpZGnW265BV9fX1QqFT//+c/JzMzk97//PQ888AD3338/L774IrNmzfrO8LR161Zuu+02lEolgYGBzJ8/n3/+85+kpKTg5eXFRx99hNFoZMeOHdJE9v4Q4Uk4H4pl4qdGGEKUSiUjRoxAoVDQ0tLC2rVr6e7uZsSIEYP2oRwREUFqaire3t6nDRb01hNSnGYrEPctpsFUU1PDs88+y7Fjx0hKSmLRokVSQcTT6erqYvny5dK/+NPS0hg9ejQ6ne5brx/g4MGDPPfcc8TGxpKdnc2cOXOIi4tDoVDw4Ycfsnz5cpqamggNDSUuLo709HSys7PJzMwkNTWVwMBANBrNt4LlcCLr3UdPo9FIgTAtLY2YmBjUajVarRatVsuBAwdYu3YtDoeDtLQ0IiMjSU1NRavVYjQa+eCDD9BqtcTGxkqP7b7Nd+jQIb766is++eQT8vPzqa2tpaurSxoFk8lk6HQ6QkNDiY6OJiwsTCr26R7NS0lJYeTIkcTExHD06FGOHTtGXFwcBQUFjB07lvj4ePLz87nhhhvOOI/tbLRaLcnJyYSGhtLd3S3NiZs0aRIajYbk5GQiIiKk8BYUFERaWhqTJ08mIiJCGn1NTk6W5rf5+/uTlZWFr68v06ZNIykpiaSkJMLCwsjLy2PMmDHQ+z2IjIxkxowZ0gpHuVxOeno6wcHB+Pn5ERwczIQJE+jo6MBoNGK1WsnKypJG/s7n5+/rr78mLy/P87QgnJUYeRKGJKfTSX19Pdu2bcNsNlNUVER4eDi33HLLRVk6/n1zuVzs3LmTDz/8kPDwcIKDg0lISCAnJ+eMK+JMJhOvv/46aWlpmEwmRo8eTURExFlvl3300Uds376dCRMmMGfOHGm0YsOGDXz99dekpaXh5eVFamoq6enpaLXaQQ+LQ5HT6aSnp4eCggJKSkqwWCwUFRUxd+5cZs+eDb2T67/44gv27t2LVqtl1KhRREZGEhYWhs1mo6enh+7ubkwmE3q9Hj8/P2n0yH17U6VSnTak93Xo0CH2798vfW9qamqw2+3MmDGDd999l8bGRn73u9+d18gTvV9rd3c3zc3NKBQKQkJC0Ol0mEwmzGaz1E/Wu/+gw+GA3qDj7++P0Wj8Vj8fHx+6u7vRaDR4e3vjdDrp7OxEqVRK85QsFgsGgwG9Xi+Vyuju7sZms0mPJZfL8fX1paenh9bWVmn009/f/6w/52cjRp6E8yHCkzCk2e126uvr2bt3LwaDgdbWVqqrq4mLi2PBggWkpKR4XjJsWSwWtmzZwvbt23G5XCQnJ6NQKEhJSWHs2LFnnNxts9l4++23iYqKwuVykZKSQkxMzHfeSvziiy/48MMPufrqq5kxYwYqlYrm5maefPJJwsPDCQsLY8qUKURGRp6x9MBAqaqqoqOjQxqFOJ329nY2b95MeHg4U6dO9Wy+aKxWK9XV1ezevZuGhgY6Ojq4//778ff3x263s3PnTl5++WWSk5O57bbb8PPzkyqgu+tcnS0cnUlpaSkbN25kwoQJ0oT/3bt309bWxowZMwgPD2fp0qWEhIRw8803n3d4+qER4Uk4H+K2nTCkyeVyqQZRfHw8SqVSqkZdWlrK//73P7Zu3UpjYyPe3t74+/uf1wfT98FgMLBv3z7WrVvH2rVrOXLkCBqNhoCAABISEsjOzmbKlCkkJiaetmil0+lk7dq1VFZWEhQURGxsLOPHjyfoHDbudd8KdNeJUiqVFBcX8/jjj5Oamsrll1/OtGnTCAwMPO9/0dMbCJ944glycnLOGub279/P0aNHycrK8myC3sCybNkywsPDCQgIOKeJ8oNFoVAQGBhIWloa/v7+dHZ28r///Y+MjAwCAgKIi4sjOjqarVu3MnnyZOLi4lCr1ec0qnQ6TU1NvPrqq9ItsIyMDEaMGMHOnTtpbm5m+vTp0p555eXlyOXys5afEE4lbtsJ50OEJ2FYkMlkeHt7S3NuEhMT0el00vJ3b29vysrK+PTTT3n//ffZtWsXDQ0NWCwWvLy8pKrM3webzUZlZSUHDx7k448/Zt26dXz++edUVlbi6K3GHRoayogRI8jOziYrK4uMjAyCg4PPGDg2btzI4cOHCQ4OJioqivHjxxMWFnbOQefxxx9n3LhxXHXVVSgUCrq6uvjTn/7E1KlTue6664iMjPzOAHYujh07xtKlS0lISKCzs5Po6GgaGhp4//33peKTSqWSgoICqqqqmDZtGvSGqY8//hir1UpMTAw7duzgqaeeYsqUKaSkpKDVavnggw84cOAA0dHRaLVa7HY7u3fvllZtms1mKWS55yP17X+hFAoFYWFhpKSk0N7ezurVq5k9ezYqlUoaBVy9ejULFizwvPScdHd3s3LlSlQqFX5+fqSnpzNq1Ci0Wi3bt2+nrq6OadOmSYU7N23aREZGBjU1NSI89YMIT8L5ELfthGHN2Vs80GQyUVdXR3V1NW1tbdjtdnx9fbHb7XR3d9Pa2kpDQwOu3g1ifX19CQwMxM/Pj4CAAGn+iftPtVp9xhECd92fjo4OOjo6pCrZ7r+3trZK80P8/PwICwvD19cXHx8fjEYjDocDtVpNREQEcXFx+Pv7o9FoTju65Gnnzp2UlJSQkJCATqcjPT293x+SRqORBQsW8MEHH+DfuzJs1apVVFRU8Mc//hH1eWxxcSaHDh3immuu4emnnyY8PJzQ0FBefvllcnJyaGtro7m5mT/96U989NFHHDt2jIceeoj33nuP4uJikpOTyc/PJzc3F5fLxW9+8xv+/e9/M3LkSF555RWSk5PRarXs3buXRx55BG9vb2644QYWL16Mt7c3Gzdu5Le//S2JiYn8+c9//lb/4OBgz5d73oxGI3/+85+ZOHEi1157rXTummuu4fXXX5dKHZwLq9XKG2+8QWJiIjabjVGjRp0yd23nzp1UVFQwbdq0UyamP/bYY/zud79j5cqVF7Q9yw+NuG0nnA8RnoRLjsPhwGq1YrVa6enpob29nc7OTnp6eqRq1vSu7HOP7JhMJukwGo3Ye7cHcR/uybHuwz3x1dvbG61Wi5eXF47e/dMcDgcKhQKVSoVWq8XHx0e65eIOSSqV6ozh7HQOHDjAtm3byM3NxcvLi5EjR5736MmRI0d45plnWLVqlXRu3rx5vPrqq0RGRp7S90K1trYyffp0vvjiC3x9fXn22Weprq5m8eLFdHV1sWzZMg4ePCiFp9/+9rfMnz+fG264gdTUVPbs2cPRo0d5+OGHWbJkCVu2bOHYsWM8+uij/Pe//0WtVvP73/+e+fPnc/nll5OVlcW6deuIi4vj97//PVOmTGHEiBH86U9/+lb/H/3oR54v94KUlpZy55138tVXX0nnfvOb35CTk8NPfvKTU/qejsPh4I033sC/d3VdXFwckZGRp4w+bt++nYqKCi677LJT6jjZbDYeffRR/vrXvw7YxsA/FCI8CefjwsflBWGIUSgUeHt74+fnR1RUFKNHj2bKlClcccUVzJ8/nwULFjB37lwuu+wypk6dyqRJk8jNzWXKlClMnTqV6dOnM2PGDGbMmEFeXh6XXXYZM2fOJC8vTzo/bdo0pk6dSm5uLpMmTWLy5MlMnz6dyy+/XHqOefPmMXPmTLKyskhOTiY4OFhaSXSuwamoqIjHH38cu93O1KlTGTVqFOPGjTvv4ERvTSdfX99TzrW2tg7oSIybRqNBoVDg5+eHXq+nsLCQoKAgGhoaMBqN39pI2WKxUFVVhbe3N3V1dYSEhDBp0iS8vb1RKpX4+fnR3NxMUFAQERERBAYGkpiYSE1NDQBqtZrExET0ej0REREYDAZqa2vP2H8gBQcH09nZecq5gICAU1aencmHH37IW2+9xYgRI8jIyGDSpElSZXe3Xbt2UVZWRl5e3rcKYObn5591sr0gCANLhCfhB0XRu02IVqtFr9dLt+8iIiJISEiQKoVnZWWRk5PDxIkTpSMnJ4fs7GwmTJhARkYGKSkpxMbGEhoaip+fHz4+Puj1ery9vVGpVBc0Z6i6upp//OMftLe3M336dFJTU8nKykKv159z8DqTlJQUCgsLTzmXnZ3N5s2bTzk3EGQymTQiBxAfH4/RaCQ3N5fc3NxvjchoNBr8erdwyc3NZdasWVxxxRWn9ImMjKS8vByr1YrL5eL48eOn3Uza/f6fa/8LtXHjRqlsgVtBQQETJ0485VxfO3bs4IUXXiA0NJSsrCwpaHuubty3bx8nTpwgLy/vtJPlt2/fLs0XEwRh8J3/b3dBEAZcS0sL//rXv6isrGT69OmMHDmSiRMn4ufnd8GhyS04OBgfHx/2798vnbv77rtZuXIl5eXlp/S9UGq1mpycHO655x7++c9/ctNNN2GxWPjLX/7CY489xsqVK0/pr1KpeOihh3j33Xf529/+xl/+8hd27dp1Sp/U1FSmTZvGXXfdxc9+9jP0ev1ZSxf0t//5OH78OO+//z533HGHdO7kyZP09PSctqDp8ePHeeKJJ1AqleTm5jJ27FhGjRp12vlmBw8e5OjRo8ycOZO4uDjPZuitDN7fDaIFQTh/Ys6TIPTZs+x0E8C7u7txOBzS4XQ6pblPCoVCuk3Yd8J537+fy0Tw7u5uXnnlFSZMmIBKpWLEiBEEBwdf0OjV2Wzbto3nnnuON954A61Wi8Ph4OOPP+bDDz/k5z//+VlHS/rr2LFjFBcXExwczOTJk8nPz6eyshKZTIa/vz/Tp0+nvr5eqiRvNBrZu3cvXV1dKBQKkpOTiY2NZd++fcyYMQOXy0VlZSX5+fk4nU6Sk5NJT0/Hbrezfft2ZsyYgUKh4MSJE6jVauLi4k7bf6DC6Ndff82bb77JtddeyxVXXIFcLsdms3H77bdz/fXXn3JrsqamhrfeeosZM2Yg762efbbRxKNHj7J3714uu+yy04YweksZrF69mnvvvRdAzHnqJzHnSTgfIjwJl7yOjg5KS0spLy+nsrKS2tpaaTWcTqcjJCREut3mngiu0WikUQBH7/519Fb+drlcyGQy6QOv72Ryq9WK2WzGbDZLE9ANBgPt7e20tbXh5eWFRqMhJCSEhIQEoqOj+eabb8jIyECn00nbVpxryYHzZbVaWb58OYWFhfz73//Gy8sLi8XC5s2b2bFjB2q1mt/85jffmht1PlwuFw6HA5lMJn1ddrsdem+jni44uFwu7Ha7FFBPx/19OVM5B0/97f9d2traeOqpp6TRo5kzZ0oLBx566CGCgoL4v//7P7RaLe3t7Sxfvpzc3FzkcjlpaWkEBASc9mt3O378ODt27JCC05n6rlu3jpiYGLKzs0GEp34T4Uk4HyI8CZcMh8NBYWEhBw4cID8/n87OTry9vaXJ2n5+ftjtdux2OwqFAqVSKa2Y8/LyQq1Wf+twhyJ6Q5KnvqGq7+ayfQ+r1SoFKZvNJoUCtVpNd3e3VOxQpVLh7+9PamoqEyZMYOzYsWfcimUgtLa28s4773DkyBEeffRRIiIisNlsHD16lMLCQr755hsiIyO58847B2Uy+XDV2NjIK6+8Qnt7O9nZ2YwePZr09HSUSiWtra0sXbqUpKQklixZgp+fH6+88gqjR49Go9Gc84jiiRMn+Prrr5k5cyYpKSmn/dlze+yxx/jtb38rLSL473//y9GjR89Ykf5istls0vwtq9V6TqOwF5vBYODf//6352lBOCsRnoRhy2azsXv3bj7//HMaGhqIjY0lLi6OoKAgrFYrKpUKvV5PUFAQAQEB+Pj4SFWelUolCoXiOz/EBpJ7NMXhcEh/uutFtba20tXVhcViQaVS0dPTQ3V1NaWlpfj4+JCXl8esWbMuaJXd6bS0tPDFF1+wZcsWZs+ezfXXX4/L5aKzs5ODBw/S3NzMsWPHaGlp4dprr2XmzJln/SC/VDmdTj7//HM+/PBDaTPgsLAwMjMzpdG5DRs2sH79evLy8pg5cyYbN24kLCxMqhj/XfsMupWWlrJp0yZmzpzJyJEjz/p+OxwOli1bxqOPPiqdq6qqory8/JyeazAZjUY+//xzqSTE22+/zU033eTZ7Xvn4+PD2LFjPU8LwlmJ8CQMK7W1tfzvf//jxIkTBAYGMmbMGGmUKCgoiNDQUIKCglD3bocxULdoLgb3yJXVaqWjo4PGxkZaW1sxGAw4HA5OnDhBZWUlMTExXHfddaSnp3s+xHkxmUxs376d48ePU1RUxM9//nMyMzNxuVx0dXVRVFRETU0NnZ2dHDlyBLvdTk5ODldeeeUlvUlzY2MjH3/8MQcOHECtVjNmzBh8fX2JjY1l5MiR+Pj4IJPJKCgo4KWXXiIpKYnU1FRaWlpQqVTExsYSGRlJTEzMt1bPnUllZSUff/wxM2fOJC0t7azBid45UceOHfvWqsWhwGAw8OKLL/Lggw+CuD0mXGJEeBKGPLvdzvr169m0aRPx8fGMHDkShUJBUFAQ8fHxBAYGSvWELjUulwuz2UxXVxcVFRU0NTVhtVqpra0lPz+frKwslixZgk6n87y0XxwOB1VVVRw4cICKigpKSkq45ZZbyM3Nhd76Sw0NDZSUlEi1jEpLSzlx4gTBwcGMHz+e7OxsEhISPB55eHC5XJSWlrJv3z4OHTpEe3s7qamp0tcTEBBAcnIyYWFh0q2nffv2sWrVKmJjY0lKSqKzsxOLxUJmZiYBAQEkJiaedvXcmVRXV/Phhx+Sl5fHqFGjvjM4Abzwwgtcc801A17cdCBYrVaeeOIJHn74YRDhSbjEiPAkDFkWi4UVK1ZQVFTExIkT0ev1xMXFkZycLNVS+qFxOByYTCaqqqooKSnBYDCwf/9+/Pz8+PWvfy1tt3K+LBYLJSUlFBYW0trayoEDBxg9ejQ333wzAQEBuFwurFYrBoOBiooK6uvrMZvNKJVKGhsbKSsro7m5GV9fX0aNGsWoUaNITEwkNDT0nMLAYHM6ndLrzM/Pp6ioiO7ubsLCwqTXabPZ8Pb2JjIykri4OHQ6nRSYOjo6ePvttzly5Ajjxo0jNDQUs9lMdXU1M2fORKPRMHLkSLz7uWVOfX097733HjNmzCAjI+Oc36ulS5fy17/+9aLefj5XTqeTRx99lD//+c8gwpNwiRHhSRiSNm3axLp168jNzSU8PFzaKPeHGJjOxG6309HRQUFBAfX19ezevZsJEyZw6623enbtN4vFQk1NDYWFhRgMBoqLi6msrGTMmDHccMMNhIaGQu8HpHt1YVNTE01NTXR2dkpzzkwmk7SHXX19PVarFW9vb3x8fIiKiiIgIICAgACpvIP77/0JH0ajUdqCp729nY6ODtrb22lvb6empoaenh7MZjMajYaIiAiCg4OlW7s2mw117+bSoaGhhIaGolar0Wg0UiBpampizZo1HD16lJiYGFJSUtDpdGg0Gnbv3s2cOXNQKBSkpaWh0+nOOfi4NTU18b///U8KTucahFpbW3nttdf43e9+59k0ZPQNTCI8CZcSEZ6EIcXlcvHkk09iMBjIyspi4sSJBAUFnfYDxWKx8Kc//YnHH3/cs2nA7Nixg8zMzAu+LdZfBoOBQ4cOnVMxR/fcpP3795Ofn091dTV///vf+3XL6EwcvfWvSkpKqKurw2azUVZWxsmTJ6WtU6ZNm3bKsnhHn70Fu7u76ezspKuri56eHiwWCzabDafTKc1JczgcUmkH958GgwGj0XjK/oIulwu5XC6VPJDL5Wi1WrRarbRq0l1qQtZb2dxqtUp7GGo0GqmqvHu7GLVajZeX1yk/X21tbWzfvp09e/bQ3NzMiBEjSExMRKVSERERgb+/P++99x7Tp09H3lur6XyLmLa0tPD2228zffp0xo4de9qf8zP5+OOPpUrsQ5UIT8KlSoQnYUh5+umnMZlMLFq0iLS0tLNO+HZv83H48GHPpgFz880389hjj52xsvNgqaysZOnSpbz55pueTWfkdDqpqqrik08+obi4mKeffrpfH8bfxW6309PTQ3l5OTU1NVitVuh9rSdOnEClUpGWlsaMGTNIS0s77Rw0R2+hUXfJCJfLhc1mw2KxYDabTynx4G7ve8h662u5D5VKJdXO6ltiQtW7PY57ZaVSqTzte2G32yksLGTr1q0UFRVht9sZMWKE9P328vIiKiqKxMREZDIZr776KmPHjkWtVjNy5MgzBvtz0d7ezuuvv8706dMZN25cvx/nb3/7G/fdd99FD/b9IcKTcKkS4UkYMvbu3cuKFStYunQpcXFxp/2XvM1m4x//+AcdHR3YbDY+/PBDqqqqsNlsPPHEEzQ3N2M2m1m0aBHz5s3jwIEDvPfee1KtpfT0dO655x5Wr17Ntm3b0Ov1WCwWli1bhre3N4899hhRUVEcOHCAMWPG8Pe//51p06YRExPDv//9b5588kmqqqpQKBTo9XqWLl1KQUGB9BxWq5W0tDRplMZsNvP3v/8dnU5HZWUlTzzxBN7e3hgMBh5++GFkMhlPP/00MpkMp9OJt7c3y3qXnv/nP/9hwYIFTJs2jZ/+9KesWbOGr776CoVCwYgRI7jnnntO+4Hr3uIlOzub66+/3rN5QDgcDiwWCz09PdTW1tLU1ITBYEAul9PW1kZ9fT01NTU4HA5p/lBqaiojR44kKSnpot5+tVqt0uT2oqIi6uvrMRqNqFQqoqOjiYyMxN/fH6fTiU6nIywsjMjISGlkyul08uqrrxITE4Ovr++AFDLt7Oxk1apVTJ06lfHjx5/2+3g2TqeTRx55hMcee8yzaUjpG5j++te/8vDDD1/Q+yYIQ4UIT8KQ8Zvf/IbZs2czf/58zybJ+vXr+fjjj7nxxhsxm83ce++9FBcX88EHH7B9+3auvPJKuru7WbVqFevXr+ejjz7i1Vdf5f/+7/+w2+089dRTLF++nPb2dlpaWvDy8uL1119nwYIFXHHFFeTk5PCHP/wBrVZLdHQ0d9xxB/fffz8JCQnMnDmTrVu3YrfbkclkPPXUUzz22GNUV1dLz9HT08M//vEP/vCHPxAYGMgzzzzD7373O6ZMmcK9994rbSj8zTffYLFYuO6666TRLZVKxd///ndeeuklCgsLeeihh3j66aeJjo7Gz8+Pe+65h7vuuguVSsVrr73GfffdR05OjudbBL1FFu+//342bNjg2TQo3BPJzWYzzc3NUt0qs9mM1WqVRoFaW1ulEgzd3d1SXSv3oVarCQwMJDg4WFpB6T7kcjlOp/OU0Sv3nKq2tjbplqD7UKvV+Pr6EhwcLJWwsNvtOJ1OabTK3e5+Pi8vLym0u1wu/ve//yGXy4mKiiI6OpqoqKgLDn7d3d2sXLlSCk7nEyaOHz/OwYMHWbJkiWfTkNI3PP3tb3/j/vvvH5DbyYLwfRPhSRgy5syZw+rVq89aO+iXv/wl2dnZ3HbbbRiNRiZOnEhBQQF33303R48eJSMjA7vdzqeffkp9fb0UoNwb0F577bX8/Oc/x+l0sm7dOgICAjhw4ADz5s3j5z//OTk5OXzxxReEhISgVCqZPn06r732GikpKQC8+uqr7Nmzh5CQED7++GP+9a9/YbFYpOcwGAzk5OSwY8cOgoKCuPfee5k8eTILFy5k9OjRTJw4EX9/f+rq6rBYLDzzzDPceeedbN26FYVCwbXXXsv//d//ERUVxW233cbOnTsB+Pzzz3n11VdZvXo1MpmMZcuWER0dzV133XXK++PmcDgIDg6mvb3ds+mict+ec9+a6+jooK2tDZPJJN2ac4ch99wm92029605PKq7u39luXqrursfQ95nv0G5XI6XlxdeXl5otVoCAwPx9/dHrVajVCpR9RZLPZNNmzZRVVVFWloawcHBJCQkDEh1bIPBIG3TkpWVddbXcDYvvfQSCxcuJCYmxrNpSOkbnh5//HF+9atfDenbjIJwrvo3ViwIgygxMZHCwkLP06cwGo1SccK+H65Wq5Xp06dz5ZVXcvXVV/PCCy9I17jnv8h7N2y12Ww8//zzXHbZZSxYsID09HScTqfU170Sy/ODrbq6mjVr1rBw4ULmzZtHbGzsKdfJ5XLpg9/9Qevl5YW9dx83uVzO1VdfzYIFC7jjjjt44IEHAE4JC2q1Wurf99817gnT7mAgl8txOBxSu6eGhgZGjhzpefqic0/U9vHxITg4mOTkZHJycpgxYwZz5sxh3rx5zJs3j/nz50vH5ZdfzrRp05g6dSq5ubnk5uYyadIk6XCfmzp1KtOnT5dGKz2P2bNnM2PGDLKzs0lKSiIoKAi9Xn/WmmAHDhzg2WefxcfHh4kTJzJ+/HhGjhw5IMHJZDKxfPlyJk+efEHBid7SBkOxttPZKJVK6WdbEIY7EZ6EIeO2227jqaeewmQyeTZJpk2bxpo1a8jPz+e///2vVLBxwYIFHDlyBI1GQ3h4OGVlZdI1xcXFHDlyhPfff5+uri4yMjKoqqpCr9ejUCg4duxYn2c4VWBgIF9//TUFBQXIZDLKy8sJCQmRJk6fTt9REvffNRoNM2fOZP/+/URFReHt7U1tbW2fq07l4+NDW1sb+/fvp7S0lIyMDGpra9mwYQPbt29ny5YtTJw40fMy6A1df/vb3/j1r3/t2TTkyGQyKWxqNBq0Wi16vR4/Pz/8/PxOKWHgWdbA3Uev16PVaqXbboozbDZ8NiUlJTzxxBNYrVamTJlCRkYGGRkZ/SqZcDYWi4X//Oc/TJo06YKDU0dHBz4+Phf0GN8HlUqFzWbzPC0Iw5JimVj+IAwRISEh0gqkKVOmnPaDKzIyErvdTnNzMxEREYwbN46srCwiIyPR6XR0dnbS0dFBWFgYaWlpFBUVcfToUWJjY+np6WH+/PmMHTuWyMhIWltbUalUpKamkpWVRVRUFD4+PowbN076YIqIiKCpqQm73c7YsWMJCgqitbUVvV7PqFGjyM7OJiQkhIiICJKSkgDQ6/WMGzdOuj3krkydlJSEy+WioaEBp9NJbGysVCF99OjRAKjVatLS0ggNDcXX15empib8/PxISUkhIiJCql80ZcoUpkyZ8q35N1arlaVLl+Lr68stt9yCZhA3Fr4UNDY28uKLLxIYGEhCQgLp6ekkJCQM6Lwcq9XKSy+9RE5ODjk5OWddQXouvv76a+Lj44mPj/dsGnK+/vpr8vLyADh48CAjR44cEhsWC8KFEnOehCGltbWVjz/+mJ07d7JgwQKuuuqqU9pdLpdUBDEkJASXyyVtzGoymWhubsblchEQEICvr6805+kvf/kLcrmc0NBQVCoVZrOZxsZGvL290el0KBQK1Go13d3d0m1Belf31dfXo1AoiIqKwmAwSIHGy8sLtVqNq3fDX61Wi8vlOuUxjEajNLLi6q3H1Nraire3NwEBAahUKulWJL1zYry8vFCpVHR3d9Pc3CzN17HZbFKQCwsL+1Yw+uabb1i+fDmZmZksXLiQ2NjYU9qF/19XVxcrVqxg/PjxeHl5MXLkSAIDA/u96u272Gw2XnjhBbKzs5k4ceK3wu75+Oc//8kvf/lL6ed+KOs752nFihXMnTt3yM/TEoRzIcKTMOT09PSwfft2CgsLKSoqYvHixVx22WWe3c5JSUkJFRUVXH755Z5Nl4yCggL+85//EBoaSkZGBlOnTiUkJMSzm9A7CrRixQoSExPR6/UkJycTGho6KLfA7HY7L7zwAhMmTGDSpEkDEpxcLhdLly7lscce6/etye9D3/D02muvMWPGjGG7/6Eg9CXCkzAkORwOysvLOXr0KA0NDRw5coQRI0Zw6623Ehwc7Nn9jNwTxLVarWfTsGY0Glm9ejV79+6VijqOHDmStLS0AfmQvtQ4nU7efvtttFotoaGhxMbGEhUVdcG30M7E4XDwwgsvMG7cOHJzcwfse3Ly5El27drFbbfd5tk0JPUNT2+99RYTJ06UVq4KwnAmwpMwpFmtVqqrqykqKqKnp0cqcjhixAjmz59Pamqq5yWXrNraWj799FOOHDmCt7e3tG1MUlISSUlJp50jJsAnn3xCc3OzNPcsLi5uQFbPnYnT6eSFF15gzJgx5ObmDuhzLV++nNmzZw+b0Zu+4endd98lIyOD9PR0z26CMOyI8CQMCw6Hg+7ubk6ePEl9fT12u53W1lby8/MByMrKYvr06cTHxw+L2xnnorGxkV27drFjxw4MBgNpaWlER0cjl8sJCgoiLS2NgICAQRs9Ge727NnD/v37GT9+PL6+viQnJ39rnthAc7lcvPjii4waNYrc3NwBnXgO8Mgjj/DII48Mm+953/D0/vvvk5KSwpgxYzy7CcKwI8KTMOzYbDaMRiMNDQ1UV1fT1dWFy+WipaWFqqoqGhoa8PHxITExkfHjxzNu3LghvcLHZrNRUFDAwYMHKSwspLOzE19fXxISEggPD0cmk6HT6aQq11qt9pRK2MKpioqK+OSTT6TwMnLkyItSmNHlcvHSSy+RlpbGlClTBjw4dXd388ILL/DQQw95Ng1ZfcPThx9+SHR0NBMmTPDsJgjDjghPwrDm6t0WpKenh+bmZpqbm+nq6sJisSCXyzGZTNTX19PY2EhLSwsqlQpvb2/8/f2Ji4sjPj6eyMhIqWbQQI5M2Gw2Ojs76ezspLm5mYqKCiorK2lqapIqbPv5+REaGkpkZCS+vr7Y7XbUajU+Pj4EBQURFhaGj48PGo1GhKXvUFtby9tvv82UKVNQKpWkpqbi6+t70d63l19+mZSUFKZOnTqgP0dumzdvBmDWrFmeTUNW3/D06aefEhQUdMb6ZIIwnIjwJFxynE6ntElvV1cXTU1N9PT0YDQasVqt2O12XC4XKpUKq9Uq7bFmMpkwGo0YDAbpcPVW9e5bzVwmk+H+38blcuHq3SbE6XSi1WrR6XTodDqpcKO7HIJWq5We210Dyt0WEhJCQECAVP5gMFZ/Xao6OjpYuXIlWVlZp5QduFihid65SAkJCUydOnXQ5p7961//4u6778bPz8+zacjqG542bdqETqdjypQpnt0EYdgR4Un4wXC5XNKGsu7DZDJhMBiwWCxYLBasVuspm8u691zr+7+Jy+X6VhVxmUyGQqFA1WeTW1XvRrdqtRpvb2/0er20FUvfLVmE82M2m1m5ciUpKSlotVpSUlIIDQ0d8FpN32XlypXExMQwbdq0QV3V+fDDDw+bEgVufcPTli1bkMvlUtFMQRjORHgShLNwjyqdS3i62B/aP1QOh4M33niDgIAAgoKCiI+PJyIi4nuZRL1q1SrCw8OZPn36oM6rKisrY8uWLdx5552eTUNa3/DU0tKCy+USNciES4L4bS8IZ+EeUeo7WqRSqU75b/dmvcLgW79+PatXryYlJYWMjAwmTZpETEzM9xKcXn/9dcLDw5k6deqgBic8tjkZroKDg0VwEi4Z4je+IAhD3rZt23j55ZcJCQlh/PjxZGVlkZSUNGDFJ/vrrbfeIjg4mClTpkhb6wymyspK4uLiPE8PWV9//TW/+93v2LVr1ymjtm6HDx9m3bp10Ltp8oYNGzy7CMKQJsKTIAhDVkFBAf/+979RKpVMmjSJzMxM0tPTB2U127lavXo1fn5+TJ069aLsL2c0GqU5dMNBbW0t69evZ/bs2chkMo4dO+bZhf3797N8+XJOnjyJxWLh008/9ewiCEOaCE+CIAw5VVVVPPHEE3R2djJlyhRGjx7NuHHjBnVC9rlYs2YNWq2WadOmXbRVbwcOHBhWtZEKCwvx9fXl8ssvJyUlRSpk21dXVxdjxozhP//5Dw6Hg7a2Ns8ugjCkifAkCMKQ0dbWxhNPPEF5eTlTpkwhLS2N7Ozsi1qv6Uzef/99vLy8mDZtGv7+/p7Ng2bv3r3DqjZSS0sLISEhKJVK/Pz8MBgMnl0AyM3NxWq1snfvXs8mQRjyRHgSBOF7ZzQaee655zh48CCTJ08mNTWVSZMmXfR6TWeyfv16ZDIZ06ZNIzAw0LN5ULW3txMQEOB5esjy9/enqakJeucznem163Q6br31Vl5//XXsdrtnsyAMaSI8CYLwvbHb7axcuZIvv/ySzMxMKTSFhYUNmRWMGzZswG63M336dIKCgjybB1VlZSUxMTFDIkCeq3HjxlFaWsr999/Pli1bSEtL489//jMul4tly5bR3d2NXC5HLpczduxYUlNTRXgShh3FMncRDkEQhIvE5XLx3nvvUVBQQGJiIsnJyYwaNYqAgIAhE5oANm7ciMFgYMaMGd/LMvuPPvqI3Nzc7+W5z5dWqyUqKoqIiAg6Ozv58Y9/jK+vLzExMajVamJjYwkPDyc2NhZfX18SExMZN24c0dHRng8lCEOWKJIpCMJFtWXLFkpLS0lLSyM4OJiEhIQB30R3IHzxxRe0traSl5dHeHi4Z/NFsWzZMv74xz/i5eXl2TSkuVwu7HY7zz33HHfeeedFm1wvCBfL0PknniAIl7RDhw7x3HPPodFomDhxIuPHjyc1NXVIBqctW7bQ3NzMjBkzvrfgZLFYkMlkwy440VtcVqVS4eXlhc1mA8BkMrF9+3bProIwLInwJAjCoCorK+PJJ5/EaDSSm5tLRkYGY8aM+d7LDpzJtm3bqK2tZcaMGURERHg2XzQHDx5k/PjxnqeHFZVKJYUnh8PBkSNHPLsIwrAkwpMgCIOiqamJJ554gpqaGqZOnUp6ejoTJky4KBW5z9euXbuoqKggLy+PqKgoz+aLavfu3UyePNnz9LCiUqmwWq0AKJVKuru7PbsIwrAkwpMgCAOqp6eHZ555hqNHj5Kbm0taWho5OTkEBAQM6VVj33zzDSdPniQvL4+YmBjP5ouutbX1oq/uG2h9R56USqVYVSdcMkR4EgRhQNhsNl555RW2bt3KhAkTSEtLY9KkSYSEhAypFXSnc+DAAQoKCsjLyyM2Ntaz+aKrra0lMjJySIfNc9E3PCkUChwOh2cXQRiWhvZvNEEQhjyn08nq1atZv3496enpjBo1ikmTJhEVFYVCofDsPuQcOXKEQ4cOMWPGDOLj4z2bvxfbtm1j+vTpnqeHnb7habgHQUHoS4QnQRDO2+eff87rr79OTEwMY8eOJScnh/j4+GGziW1BQQHffPMNeXl5JCYmejZ/b06ePMmIESM8Tw87fVfbCcKlRNR5EoRhymQyYTAYpMNqteJ0OnG5XDidTpxOp3SbRKFQSFWdZTIZcrkcjUaDTqeTjv6UDNi3bx979+4lMzMTPz8/kpKS8Pb29uw2pBUVFbF161Yuu+wykpOTh8zIiM1m47HHHuMvf/mLZ9Ows3HjRgICApg0aRL01q0SdZmFS4EIT4LwPbFarTQ3N9PY2EhjYyNNTU00NDTQ1taG1WrFYrFgt9txOByoVCq8vb1Rq9VoNBrUajVqtRovLy/pUCqVAFJA6hsG3P+bu4OVy+XC4XBgtVql57JarZjNZulwn1MqlSiVSuk5LRYLNpuN6Ohopk2bRmJiorQR7HBRXFzMl19+ycyZMxk5cuSQCU4A+/fvp6qqimuuucazadj58ssvUavVTJs2DUR4Ei4hIjwJwiDp7u6mpKREOlpaWjAYDMjlcgIDA/H19cXHxwcfHx90Oh1yuRy73Y7L5UKhUKBUKqURo77/7f67SqU65XDPL3IHp74ByuVyfetwOBzYbDbpsNvtUljr+3f3KJbdbsdms2E0GlEoFOh0OgwGA93d3XR3d9PR0UF7ezsymQydTkdYWBgpKSkkJycPqZGp8vJyNm7cyMyZM0lNTR1SwQngmWee4cYbbyQ0NNSzadjZunUrDoeDyy67DER4Ei4hIjwJwgVqbW1l37597N+/n6amJkwmEwEBAYSHhxMUFISfnx92ux25XI6XlxcajUYaPdLpdGi1WrRarRSA+oak040iXUx9g5b7sNvtOJ1OrFYrRqMRg8GA0WjEYrFII1YWi0UKgR0dHbS0tNDQ0EBXVxc6nY6oqCiys7Mvet2nqqoqNmzYQF5eHunp6d/b+3o2S5cu5a9//euQX6F4Lnbt2kVXVxdz584FEZ6ES4gIT4LQDy0tLezbt48DBw7Q0NCATCYjMTGRyMhI5HI5KpUKtVqNVqvFx8eHgIAAfH19pc+IUmsAAGy2SURBVK0q+o4QXarcI1Q2mw2r1UpnZyft7e10d3djMpmwWCzSLcPq6moqKytRKpXExMQMaqCqra1l3bp15OXlMXr06CEZnBoaGnj33Xe59957PZuGpX379tHQ0MDChQtBhCfhEiLCkyCchc1mY8eOHWzevJmWlhZSUlKIiYmRgpJerycoKIiwsDD0ej1qtRqVSjUkP5iHAqfTic1mw2Kx0NXVRUNDA+3t7RgMBil0lZeXU1VVRUxMDHPnziUzM/OCR2EaGhpYs2aNFJwu9PEGy3vvvUdCQgITJkzwbBqWDh8+TFlZmTR/S4Qn4VIhwpMgeLBYLGzYsIGvv/4avV5Peno63t7e6PV6IiIiCA8PR6fTodFohs2S/KHM5XJJk9a7urqor6+nsbERk8lER0cHx44dQ6FQsHDhQqZPn97v4NPc3Mzq1auZPn36/2vvvsOjqPr//z93k+xuspvdTa+QEFrooQcE6aJI0xuxN6q94m1XULDcN5aPBRHBgigqiEi5RUB6772FVNL7lmT7zu+PbzI/shRBKSGex3XNZZw5MzubQPbFOWfeh/bt21/0+VfSm2++yaRJk+rN/LC/6/Dhwxw6dIjbb78dRHgSGhARngShRk5ODrNmzcJms5GSkoJOpyM8PJyEhARCQ0MJCgqq1x+8DYnH46GqqoqSkhKys7OpqKigsrKSPXv2kJSUxPjx49Hr9b6nnaGsrIx58+bRu3dvUlJS6vXPz+12M2XKFN58803fQ9estLQ0tm/fzj333AMiPAkNSP39TSIIV0hZWRkvvPACc+bMoV27dgwbNoyBAwcyZMgQUlNT0el0OJ1OKisrKS8vv6iif06nk0WLFl3wml4Oh4Py8nLKy8ux2+2+h2VutxuTyeS7W2az2c57fi2Hw0FlZaVcyuBC/dn1HQ4HNpvNdzd5eXmsW7fOd/cZ/Pz80Ov1aDQalEolQ4YMYcCAAYwYMYKoqCimTJnC+++/f96fRWVlJd9++y29evWq98GJmoKd7dq18919TTu9wrggNCT1+7eJIFxmq1at4rXXXqNt27YMHTqUIUOG0KdPH2JiYlCr1Rw9epSnn36a77//Xt6Kiop8L3NOTqeT2bNnX3B4yszMZNq0aUyZMoUTJ074Hpbl5+czY8YM392y1atXs23bNt/dZ/jiiy948MEHycrK8j1UR1FREW+//bb8/392/QMHDpw1JGVkZLBkyRLf3edU2z4wMJDExEQ51A4fPhydTsdjjz3GyZMnfU/DbDbz9ddfc911110TwQlg48aNcj2khkKEJ6Ghqv+/UQThMvnjjz/45ZdfGDFiBMOHD6dr164EBwfXmexdUVFBeno6ffr0kTej0YjX62X16tXMnDmTw4cPy+0dDgeLFi1izpw5HDlyBEmSyM3NJTs7my+++IJNmzZBzTyf9evXM2vWLObOnUt5eTkAUVFRUBO6YmNj5QnrmZmZdc5XqVR1hq2OHz/OrFmzWLJkCdXV1XJBzdrX2rBhAzNnzuTAgQPyOTabjQULFhAUFMTy5cvl/dSEj++++465c+dy6tQpduzYwU8//cRvv/3GoUOH5OsXFBSwf/9++byysjJ2794tl2KotWnTJmbNmsWePXsoLi4G4OTJk3z77bfMnDmTQ4cOyW3P1Z6aAqChoaFcf/31jBgxgkGDBjFt2jQyMzPlNlarlS+//JKePXvSqVOna+bpxqKiIvnn31CI8CQ0VCI8Cf9ILpeLjz/+mDvvvJMBAwacd/6Mx+PBbDZjNptRKBTodDref/99Dh06RGRkJDNmzGD//v04HA5eeOEFSktLCQsL448//gDAZDKxfv16IiIimDVrFocOHcLj8XDs2DEiIiJQKpU899xzVFVVERISQkxMDFFRUYSHh+N0OnnjjTf4448/6pxvt9vZtWsXAGvXrmXGjBlERERgsVjYv38/2dnZ5OXlAfDNN9+wevVqIiMj+eqrr1i9ejUAu3fvJiQkhHHjxvHLL7/IH3KlpaU8++yzAOh0On7//XfcbrdcYsDr9crXd7vdvP322/IQ3k8//cSRI0coKyuTA80PP/zA8uXLiYyMxGw2U+vEiROoVCqioqL45JNP2LFjx3nbn06hUBAVFcXQoUO5/vrr+eyzzwCorq5m9uzZpKam0rlz52smOJWWlhIaGnpN9JBdDBGehIaqYf1NFYQLVFxcjMvlokePHn/6AetwOMjPzyc/P5/S0lKKi4tZtGgRcXFxhIeHo1Ao2LZtG4cOHeLQoUPceOON9O3bl4EDBwKg0Wjo0aMHffv2RafTcfDgQZRKJd26dcNsNpOWlsaKFSsoLS31fWk5qHTv3r3O+Q6Hg/T0dADmzJlDp06d6NevH/369aNJkyYUFxdTXl6Ow+Fg7ty5DB48mP79+9O9e3e+/vprABYsWMDQoUPp2rUr1dXVHDlyBIA1a9bgcDgYOHAgffv2pVevXiQmJqLT6UhNTSUpKUm+fkREBFVVVezcuRO73c6iRYvo2LEjZrOZ4uJiedhy0KBB9OvXr85it+3atUOtVpORkcGuXbvYvXv3edufjUaj4dZbb2Xu3LnYbDZmzZpF9+7d6dKly5/+XOuTLVu20LNnT9/d17yAgACcTqfvbkG45onwJPwjabVaKioqLmiitMFgoGfPnvTs2ZO2bdtSXl5ORUUFNpuNrKwsmjZtSkJCAqdOnSIiIoLGjRtjNBpp1aoVAGq1mmbNmmE0GomNjcVqtZKbm8vHH39MQEAAKSkp6PX6c37InO380x07doyuXbvKx6Ojo+VjtcGvXbt2GI1GUlJSOH78OJWVlSxfvpylS5cyadIk8vPzWbRoEdQ8IdWiRQuioqIIDQ0lOTkZnU5HQEAA4eHh6HQ6+foajYZRo0Yxf/58du3aRVhYWJ3A43A4OHXqFJ06dcJgMBASEgI1vXkzZswgPT2dpk2b0qZNGywWyznbn095eTmxsbF8/vnndO3ala5du15T6+wBHDx4sMFNFkf0PAkNmAhPwj+SXq9nwIABvPXWW3i9Xt/DdWg0GuLi4uSeppCQECRJomXLlvTu3ZuRI0fSvn17YmJiyMrKwuFwAFBVVeV7KXlY5tixYxQVFdGvXz+uv/56NBqNb9OzOtuwTlxcHMeOHYOa+U2nv27tEjCnTp2CmqGyuLg4Nm7cSLt27ZgwYQLDhw/njTfeYMWKFVRVVdG4cWOOHTsmB0uz2Yyfnx8Oh+Os36sbb7yRAwcO8NlnnzF69GhUKpV8rHY5mrKyMjjte2K321m+fDn9+/enb9++xMXFnbf9uZjNZl577TWioqLo0qUL3bp1u+aCk8fjwWazodVqfQ9d8wICAi74YQlBuJac+ZtYEP4BlEol48ePJyAggCeeeEIOFxciNDSUhx9+mM8++4wPPviAd999l7S0NFq1akXPnj159NFHefzxx3nrrbd8T5U1bdoUl8vF22+/zccffyz3Om3ZsoUFCxawdOlS1qxZ43vaWT3++OP89NNPPPHEEzz88MN1JoWrVCqefPJJ3nrrLZ544gnmz58vt7/77ru58cYbGTx4MLfddhtarZadO3fSv39/AgMDefjhh3n00Uf58ssviYiIICQkhMcff5x58+bVef2IiAi6d+9ORkYGffv2rXNMpVIxZswYXnzxRZ544gn5PQUEBNClSxc+/fRT3nzzTXl+1Lnan8327dt56qmnSE9P55lnnqF79+7XZNHSo0ePyr2UDY1SqaRRo0ZQU4ph/fr18kMPgnAtE0UyhX+0nJwcNm/ezPbt2wkLC2PChAl1nngqLS3lxIkTZ8xHKS0tZffu3djtdlQqFe3btyc2NpasrCwOHz6MJEmEhobSrVs3Nm7cSJ8+ffDz8+P48eOo1Wri4uLYvHkzZrOZsLAwbDYbqampmEwm9u3bBzVzgmJiYs56flhYGPv27aN3797Y7Xa2b9+OyWTC39+fTp06YTabUalUJCYmYjKZ2L59OzabDYPBQGpqKrt27aJ169aEhobK72n79u3Ex8cTExPDkSNH5EATHx9PSkoK27Zto7i4mCZNmqDRaOTrU/PkXH5+Pr1790ahUFBQUIDFYqFFixYUFxezfft2lEol4eHh+Pn50blzZ44dO8aJEyfQarVotVrCw8Np3rz5Wdt36dJFvs8jR47w5Zdfolar2bFjB8888wwDBgyo0+N1LZkxYwbDhw8nPj7e91CDsHDhQvLz8+nSpQtmsxmDwcDBgweJi4tjyJAhYikj4ZokwpPwj1ddXc3u3bvJzc3l4MGD2Gw2hgwZQv/+/c876djr9eJ2u/H3968znFb7RJq/v/95PxgkSZLPP1+7CyFJEi6XCz8/v7Pec+29Xsy6e263G0mS5N6c2tfwfb8XwuPxIEnSGUNqtffsez3f9jabjV9//ZUNGzbQqFEjmjRpwqpVq7jjjjvo06fPNRucAF599VUmT5581p/btUqSJFasWEF2djbt27dHrVaTlJSEwWDAarWSlZWFxWIhMzMTpVLJ6NGjz/izIQj1mQhPgnDaXKHMzEzy8vLIz89n48aNqFQq+vTpw80334zBYPA9TbiM8vPzWbx4MTt37iQwMJDevXsTERFBo0aN+Omnnxg4cCCdO3e+poNTWVkZX3/9tVwa4lrn8Xj47rvvsNlsdOzYUX6IQavVnhHabTYbhYWFlJaWcvLkSUpKShg/fnyDWddPaNhEeBIEH7VLpJw6dYry8nJMJpNcOykxMZHU1FRSU1OJiIjwPVX4G3Jycti6dSs7duygsLCQVq1a0bp1a3Q6nfwUY3BwMB9//DE9evSgS5cu13RwAliyZAmRkZGkpqb6HrqmOBwOZs+ejV6vJzk5mbCwMKKjowkKCvJtegaHw0FRURFFRUXk5eVx/PhxJk6ciNFo9G0qCPWGCE+CcA6SJOF0OrFarRQWFlJSUoLFYsFms5GWlsbJkyeRJIm4uDi6d+9OamoqkZGRvpcRzqI2KO3cuZOioiICAwNp0aIFSUlJqFQqjEYjERERREVFERQUhEqlQpIkPvzwQ7kcwekVzK9VU6dO5emnn75mn7SzWq3MnDmTxMREEhISiIyMJCoq6oKfHj2d0+mktLSUgoICSkpK2LVrF2PHjiUmJsa3qSBcdSI8CcIF8ng82O12bDYbZWVlmM1mLBYLVVVV2Gw2Tp48SVZWFmazmeDgYEJCQmjevDktW7akRYsWdeovNXRSzbI0J06c4Pjx46Snp2MymbBarYSGhpKUlESTJk1Qq9XodDp0Oh1Go5HQ0FA0Go28IPDpPvzwQzp16kS3bt3+0odzfSNJEq+88gpTp049Y0irvispKWHWrFl06NCB6OhoYmJiiIiIuCQ9gW63m7KyMvLz86moqGDTpk3cddddNGvWzLepIFw1IjwJwt/gcrlwOp3YbDbKy8sxm81ywHI4HEiShNlsJi8vj4KCAoqKiggICCAwMJDAwEDCw8OJiYkhOjq6zodQfZ0863K5KCoqorCwUN4KCgooKyvDZrNhs9nweDzExMQQGxtLTEwMOp0OhUJBYGAgGo2GwMBA9Hq9HJRUKtWfvt9PPvmEtm3bkpqa2iCCE8Dhw4fZt28fd999t++heisnJ4evv/6aHj16EBYWRmxsLGFhYZelRITH46GiooK8vDzMZjPr16/n5ptvpmPHjr5NBeGKE+FJEC6x2ifb3G43LpcLm80m91DZ7XbsdjtOpxOXyyUXonQ4HFRWVmIymaioqKCyspLKykocDgf+/v5n3QICAuReG61Wi1qtRqlUnrFJkoQkSXi93jqb3W7HarVSVVVFVVUVTqcTj8cj37fH45H/GxgYiNForLMZDAa5p0GhUKBSqVCpVKjVagIDA9HpdAQHB6PRaOT7/StPFs6YMYPk5GR69OjRoCYTf/rpp4wcOVIuEFqfHTlyhIULF3L99ddjNBqJi4sjNDT0ijwh6PV6MZlM5OXlYbFYWL9+PampqWfUFBOEK0mEJ0G4giRJwuPxyOUMar92uVxysLLb7XKPlm87369Pv24t33AiSVKdfbVtFQpFnWNKpVIudeD7dW34UdVUAK/d/P395Xant/e9h7/q888/p2nTpvTs2fOCJh9fS66FEgXbt29n9erV9OnTB71eT3x8PEaj8Ywh1StBkiQsFovcE7Vt2zYaN27MyJEjL9mfN0G4UCI8CUI9VttrVNtz9Gdf+557Ot8PGIVCgUKhkMPO+b72PfdKmD17No0bN+a66667ZidUn4vJZOLzzz/n3//+t++hemHlypXs37+fXr16odfriYuLQ6/XX5XQ5EuqKStSUFBARUUFBw4cwN/fn3vvvbdeB1GhYRHhSRCEeufrr78mOjqaXr161VmIuKH47bff0Ol09O7d2/fQVeP1evn5558pKiqia9euGAwG4uLi5Dlr9ZHNZpPn3KWlpVFeXs7YsWMb1PCuUD+J8CQIQr3y7bffEhYWRu/evQkODvY93CDUrjVYH4Khy+Vi7ty5KBQK2rZtS2hoKDExMQQFBdXb0OTr9FpRubm5nDx5kgkTJojCtsJlI8KTIAj1xvfff49er+f6669Hr9f7Hm4QpHpSosBmszFr1iwiIyNp2rQpERERREdHX9O9NqfXiioqKmLv3r2MHTv2H1UmRLgyRHgSBKFe+PHHH9FoNPTt27dB9xgcP36cbdu2cf/99/seuiIqKyv5/PPPadmyJXFxcURHRxMZGdkgio7Wqq0VlZeXR3l5OVu3buXOO+8UtaKES0aEJ0EQrrqff/4ZpVJJ3759CQkJ8T3coHz++efceOONJCQk+B66rAoKCvjyyy/p1KkTkZGRxMTEEB4efkkKW9ZXp9eKMplMbNiwgaFDh5KSkuLbVBAuighPgiBcVb/++itut5t+/foRGhrqe7jBee2113jttdf+tDDopZKens73339Pz549CQkJIS4ujrCwsCv2+vVBba2o3NxcLBYLGzduJDU1lT59+vg2FYQLIsKTIAhXzbJly6iurmbAgAGEhYX5Hm5wrFYrH3/8MS+++KLvoUtu3759LFu2jOuvv15+ci4kJOQf/Ti/dFqtKJPJxPbt20lMTGT48OFXdf6ZcO0R4UkQhKtixYoVVFRUMGjQIMLDw30PN0h//PEHCoWC/v37+x66ZDZs2MCWLVvo3bu3XNjSYDDUixpN9cXptaLKy8s5cOAAKpWKe+655x8dLoULJ8KTIAhX3OrVqykqKuKGG24gIiLC93CD9c477/DII49c8icJJUli6dKlpKenk5qaKvc06fV60aPyJ6qrqyksLKS0tJS0tDQqKysZM2bMNf3UoXD5ifAkCALUzAup7Z1wuVwcO3aMqqoqbDYb1dXV2Gw2QkJCGDBgANQ80bRkyRLcbned6yiVSoYPHy5PRF6zZg0Wi0VeGDgzM5OsrCweeOCBKz5p+mp7+eWXL2mJAo/Hw/z586mqqiIlJYWQkBBiY2PRarXnfA1JktiyZQvFxcV069YNhUJBQUEBnTt3BuDUqVNkZGQA0K5dO06dOkVlZSUAkZGRGAwG0tPT6dKlCzabjfT0dBo1asTx48fl1zAYDERGRpKWlgZAQEAA3bt35+TJkxw5coTExERSUlLOuMfTXxugQ4cOGI1GMjIy2Lt3L61ataJ169bY7XZ27dpFkyZNiI6OZseOHfTo0QOAvLw8MjMz6datGyqVivLycjZt2oRWq6VHjx7nXObHbrdTXFxMcXEx2dnZZGRkiFpRwjn5TZ48ebLvTkEQrk1VVVWkp6ezd+9e1qxZwy+//MKyZcuIiYkhKioKgFWrVjFlyhSWLl3KypUrWbt2Lbt370ar1RIbGws1c3N+//13KisrsdlsSJJEQEAAWq1WDjxer5ecnBy0Wi16vR6NRkNAQAB+fn40bdpUHv44deqUHMAqKiqoqKjA6/XSqVMnuQjmypUr+eyzz/j1119ZtGgRP/zwA4sXLyYoKEh+vPzgwYN89NFHnDx5ktLSUqxWK06nE5VKRUBAQM13oP5KT0/HZDLRqVMn30MXzel0MmvWLI4fP07Lli1p27YtTZs2JTo6GpVKdUYoqeX1ennppZdYuHAharWaxYsXA/DFF18wevRoALKyspg6dSrHjh3juuuu4+2332br1q1UVlaiUCjIyMjghRdegJpQNG3aNDp37szSpUuZOXMmRUVFKJVK8vLyePfdd/F6veTm5pKRkcFnn31Gy5YtWbJkCa1bt8ZoNNa5vwMHDrBy5UrWr1/PnDlzGDRoENu3b+fll19GrVYze/ZsXC4X8fHx3HvvvWzbto1BgwYxYcIEHnjgAQDeeOMNPvzwQ9q2bYskSYwZM4b4+HgyMzOprKwkOTm5zmvW8vf3x2AwEB4eTmhoKBEREfKCyM2bN68XBU2F+kP0PAnCNSI3N5fjx4+Tnp5OZmYmFRUVVFdXM3XqVBo3bgzA5s2byc3NBUCj0aBQKPDz86Nr165ERkYCUFRURHZ2tnzMz88PlUpFdHS0XCbA5XJRWFh4xqK/fn5+8pCTJEmYzWYUNevgSaets3f6Omhmsxm3233G4sYRERFoNBoACgsLKSoqktu43W7cbjdJSUnExcXJ9719+3a8Xi82mw2z2YzVaqVZs2aMGDECgPLycl5//XUMBgPx8fE0bdqUZs2akZCQcNXn/MyZM4e+ffvStGlT30MXzGq1MmvWLBo1akRiYiKRkZFERUXJ38c/c+rUKbp27cr7779Pjx49KC4uZseOHXz55Zfs3bsXAIvFwq233kqLFi2YPn06N910E8XFxTRv3pxRo0ZhMpmYPn06gYGBjB8/nlmzZrF9+3ZOnTrFgAEDmDJlCkOHDmXx4sW88sor9OnTh7i4OLRaLd9++y2jR4+mW7dujBw58oxAUlFRwYkTJ7jvvvvo1q0bn376KXfddRfR0dG89NJLzJkzh1WrVrFw4ULatWtHfHw8Y8aMYfr06RQUFFBaWkr37t1p2rQpiYmJjB07lj59+jB8+HB69uzJLbfccsG9nW63Wy64WVpayvbt27nrrrtISkrybSr8A13d3yaCINRRWlrKkiVLePnll3n00Ufxer3yse3bt1NSUkJ0dDQ9e/bk1ltvZdy4cXUmWycnJ3P99dfTv39/+vbtS//+/enXr1+dNlFRUXTr1o2uXbvSqVMnOnToQKtWrerUVwoICKBRo0bExsYSFRVFeHg4ISEhdebqKBQKDAYDer0enU5HcHAwBoMBo9FYJ6jo9Xr5X/LR0dHExsbSqFGjOh/40dHRdOjQgU6dOtG1a1dSU1O57rrr5J4wgPDwcPn9DBgwgCFDhjBy5Ei6du0qt9HpdNx+++307NmT6OhoysrKWLJkCTNmzJDbSJLEu+++y9KlSykpKZH3X245OTlyyP2riouL2bVrFw6Hgw4dOpCQkHDBwYma8FVRUUH79u1p0qQJXbt2PaOXKjg4GI1GQ3BwsDzvp3379txxxx107NgRgKSkJHr16sWsWbOgZpiuWbNm+Pv7ExsbS3x8PAAhISHccccdDBs2jPvvv5+JEydy/PhxPvjgA3lI73Q6nY6vvvqK2NhYXn31VYKDg8nLy6Nx48YkJSXRtGlT8vPzoaan6JFHHmHmzJmYTCaoGSK2Wq0kJiayYsUKwsLCmD59OgEBAcyZM4etW7f6vOK5+fv7Ex0dTfv27TEajRw4cKDOkKLwzyaG7QShHpg4cSK//vorR48eRafTkZSURPv27UlKSpI/3EJCQmjatKm8JSUlkZiYWKcydFBQEMHBwWi1WjQajTyk5fsBWd8pFAp5q6VUKlGpVGg0GrRaLQaDgdDQ0Drr3/n5+cnhrHHjxjRu3JgmTZrQtGnTOjWkrFYrZrOZ33//ne+++47vv/+eLVu2MHjwYLnNpWSz2di+fTv9+vXzPXRR1Go1bdu2RavV8uuvv1JcXEyLFi0u+OerVqtZsmQJR48epby8nIULFxIcHMzKlSuhpryBSqVi3rx5OJ1Orr/+ehYtWoTdbker1eLv74/FYiEzM5MpU6bw9ddf4+/vz2OPPYbb7eajjz5i6NChtGzZkh07drB27VoSExPlHiWlUkl0dDRLly7l3nvvlXsVa3377bd88MEHtG7dmqqqKkJCQrBarSxbtgyv18u8efPo0KEDAwYMYNasWbzzzjscO3aM/fv389prr/Hqq6/SunVrBg4cyIYNGzCbzVRWVtK2bVs2bdpE69atSU1NrfOa53Po0CHmzJlDdHQ0gwYNomXLluecMyX8s4hhO0G4QgoLC1m+fDk7duzA39+fTz/9VD62fft2/Pz80Gq1hIWFERQUhEqlatDVn6+mqqoqqqurKSsrw2q1YrfbcTqddUoIPPvssyQnJzNkyJAzPuQv1vr167Hb7ZcknPk+Zr9v3z6Cg4O5/fbb//Qxe0mS2Lx5M7t37wagcePGJCQksHHjRiIiIlCr1SQnJ7NhwwYCAgK4+eab2bBhAyaTCZ1OR0JCAkFBQWRkZDBy5EiWLFlCeXk5Y8eOxe12M3v2bAYOHEizZs3Yu3cvGzZsICIiApVKRWhoKOnp6fj5+cnL8Dgcjjr3d+LECQ4dOkRERAT+/v706NEDpVLJypUrsVqtaDQa+vXrR2xsLN9++y0PPPAA6enprFq1iieffJJvvvmGrl27Eh8fzx9//IHX66Wqqgq3242/vz/9+/cnMTGxzmuezbZt21i3bh3XXXedPAnft0dV+GcT4UkQLiOv18vzzz+P1+ule/fuhIaGolQqMRgM8tNNte3EL+arx+v14nK56vTibd26lerqaoqKitixYwcqlYqbb775L1Wl/s9//sOECRPOmCD9d53+mP2xY8ew2+088MAD5w3dbrebyspKnE4ner0ef39/qquroaZ3T61WY7PZoGYYzeFw4HK5AFCpVPj7++NyuQgODsZms+F0OjEYDEiShMlkkoO/3W6Xr6tQKNBoNJjNZnlOXG5uLlu2bDntzqBnz551hpi1Wi0qlQqLxYLVaiUoKEgeOjabzej1erxeLxaLBYPBgMlkIjg4GH9/f6qqqvB4PLhcLhwOB1qtluDg4PP+PVu5ciUHDx6kR48eGI1GYmNjMRgMF9yzJ/xziPAkCJfY0aNHadGiBX5+fkiSxB9//EFYWBhRUVHo9XrUajX+/v4N5heyJEkN5r2czu1243A4qKyspLi4mLKyMux2O0OHDvVt+qcudYkCX3a7naKiIoqKisjKyqKgoIDx48fX6yGmqqoqysvL6+wLDw+/4vWVvF4vixYtoqioiM6dO8s9TTqd7rL9vIRr37kjuCAIFyUrK4vx48fz3Xff4XQ6oeZf3L179yYlJUX+hbx//36eeOIJ7r//fh577DF+++0330v9KY/Hw/r16/F4PFDzFNVbb73l24zCwkKee+45393n9MILL8hP61FTEfvf//43Vqu1TruPPvqI6dOn8/bbb/Pyyy/L7/dizZs3j2nTpsnv41w2b94s38O53mstSZKYNm2a7244y/s7H7fbzQsvvEBcXBwpKSn06tVLriVEzQTwhx56iOzs7Drn+crOzqZx48aX9YNYo9GQkJBAhw4d6NmzJ9dddx0rV67kv//9r1yjqb7RarU0atSoznYlg5Pb7earr77i66+/plGjRgwePJh27drRokULgoODL+vPS7j2ifAkCJfAJ598wnvvvcctt9zCPffcU2fYRK1Wy7+IN27cyH//+19uuOEGxowZw+DBg9m/f/9pV7owDoeD6dOny3NGdDrdWesHVVdXX9QTRtu3b6eqqgpqQsjs2bPZtm3bGcMrHTt2ZOjQoXTr1o2bbrrpLy0ya7PZ+Prrr1m+fDnp6em+h+v4+OOPKS0thfO819PVPhXm6/T392e8Xi8bN26E04adTl9/Lzw8nCFDhjBr1iw+++yz086sa926dfTt29d392WhVquJj4+nQ4cOdOvWjf79+7NlyxbefvttCgsLfZv/I9lsNj799FMWLFhAmzZt6NevH+3bt6dZs2bnLS4qCKcTw3aC8Dd99tln5Obmctttt5GcnHzeR8fvuOMOBg4cyF133YVarcbhcFBcXExiYiJvv/02aWlp+Pn5ERERweTJk9m/fz8//fSTXGSyQ4cOPPnkk3z55Zc8++yzDBo0iFatWjFu3Dg+/vhj/vOf/2AymXjllVfweDxUVlaSlpbGzp07WbduHV988QVGoxGbzcaLL75Is2bNmDlzJjt37kSj0fDrr7+yZs0aWrZsSXZ2NnfddRd33303u3fvZs6cOVBTwXnKlCkEBQVRUVFBWFgY//3vf1EqlXz00Ufs27cPr9fL0KFDue222zhx4gTvvvsugYGBmEwmXn31VVq0aMHGjRt5//33adasGdHR0Tz77LMA7Nixg88++wytVovD4eDOO+/k9ttvp0ePHsTHx/Piiy/K7/Wdd97h5ptvpl27drjdbl566SWef/55pk2bxvvvv48kSWd9f0qlktdff52QkBAsFgsTJkygV69eOJ1Opk2bRkFBAZIk8fvvv5OTk+PzU/z/2Ww2MjIy+O6772jatCljx471bcLkyZN56aWXzjsP6XJxu92UlZWRn59PSUkJO3fu5K677qJJkya+TRs8k8nE7NmzSUxMJCEhgcjISCIjI8/791UQzkX0PAnC36TRaBg7diwdOnQ47y9iu93Ovn376N+/P0FBQfj5+REUFCQ//dOvXz8eeughJkyYwMGDBzl48CAFBQWkpaVxzz33MGbMGBYsWAA1E2vDwsJ45JFHGD16NDabjT179gDw+eefYzQaGTduHKNHj5YnyCYmJvLwww8zduxYkpKS+OGHH9izZw8rV65k/PjxjB07ts46c//73/+47rrrGDFiBLt27ZJrIlksFvbu3cuoUaN47LHHOHjwIGlpaWzbto1t27YxYcIExowZwzfffENOTg7z5s2jWbNmjBkzhgceeEBe7mLBggUMHz6cUaNGsXjxYpxOJ9XV1bz55puMGDGCMWPGcPvtt9O2bVtiYmK47777GDduXJ33qtfrmT9/PgCHDx+WSz3UPk12rvcXGhoq7xswYAAzZ84EYOnSpeTn5zN+/Hjuu+++8/48AQIDA2ndujVjx45l2bJlcr2hWg6HA4VCcVWCEzW1iqKiomjfvr3cW5iVlcW0adM4cuSIb/MGqbi4mHfeeYeNGzfSt29fUlNTad++PY0bN/7Tn68gnIsIT4LwNw0dOpQmTZr8aXf/2Z7oOt2RI0f45JNPmDt3LidPnqS4uBiv10toaCjdunWjR48e2O12ABo1akRQUBBdu3alTZs2SJIkzztasWIFN998M506daJdu3byfZWXl/PVV1/x+eefs3PnTjIyMtiyZQstW7ake/fudZZL8Xg8LFy4kNjYWE6cOIFWq2X16tVQM5ynUqlITU2lS5cu6PV6CgsL2bp1q3ytXr16odPpOHz4MM2aNWP58uV8/fXXlJSUEBoaSmVlJWvXriUwMFCekL1//37y8vIoKChg8ODBdOrUieuvv57IyEiCg4PlIpqnv9chQ4awbt06TCYTP/74I8OGDUOlUsnHz/X+qqurWbBgATNmzGDt2rXysOGqVavo1asXXbp0oVOnThcUehQKhVxzy2w21zm2e/fuOk9VXi21vZnt2rWjQ4cODB8+nNLSUt555x127Njh27xByM7O5q233mLv3r0MHjyYLl260L59e+Li4i7o5yoI5yPCkyD8TREREX8anKiZj5KQkMCuXbt8D5GTk8P333/Pgw8+yJgxY2jZsqVcXTwgIAClUikvj1JLkiTONupus9nkZS8UpxWanD59Oj179mTChAkMHjwYr9eL3W4nMDAQpVJZp+2xY8cwmUzo9Xry8/Pp1asXP/74o/x6/v7+8hODKpUKt9st32/tvXo8HiRJ4uabb+b111+nd+/eLF26lPXr17NhwwYiIyNxuVyUlpbSrVs3fv75Z6hZGqb2w+3PPuTi4+NJTk5m8eLFbN26lWHDhtX5WZzr/c2aNYvY2FgmTpzIqFGj5P21xSBr217Iz5Waopv79u2rU4iTmvDWs2fPOvuuJqVSSWhoKG3atKF9+/YMHz4cl8vFe++9xx9//OHb/Jp05MgRpk2bRkZGhvyPiPbt2xMdHX1NrIEoXBtEeBKEv8nlcvHUU09RVFTke6gOPz8/nn76aT744AN+/PFHjh8/zoIFC5g0aRJKpZKcnBw0Gg1FRUWcOHHC93SoCUPUhAo/Pz82bdrEsWPH6rTp1asXX375JYcOHWL27Nm43W6o6XlyOBwolUp5AniPHj1YtWoVu3fv5scff5SXn/jll18YPnw4Q4YMYcCAATz00ENkZWWRlZVV57U47Z769evHqlWr2LRpE8uWLSM3N5eUlBQWLFiA1WolISGBgoICqqqq+Omnnxg3bhyDBg1iwIABPPbYY6xatQq9Xk94eDizZs3iyJEj8rIqoaGhrFu3jkOHDtV5bX9/f+666y7ee+89OnToIC9+XOtc789iscg1iTZt2iQHvz59+jB//nwOHjzIl19+ecYw3NkUFRXxyCOP8PDDD59RGqCioqLOsjf1hVKpxGg00qpVK9q1a8fQoUMJCgrik08+4ZdffjlrKK/vduzYwTvvvENpaSnDhw+nffv2tGvXjoiIiD8tHioIF0sszyIIf5NCoZCfTDt48CCtW7c+5yPX8fHxxMfHU1lZyfHjx/Hz8yMlJYU2bdoQFRVFZmYmWq2Wjh070rlzZ8LDw4mJiaFZs2ZQM7+qffv2KJVK4uLiSE9PR6FQ0LJlS4xGI+3ataNZs2ZUVlaSl5dHq1at6NChAx06dKBJkyYUFBTIE887dOhAamoqOp2OkydPEhYWRufOnenatSs2m42BAwfSuHFjdDodBoOBkJAQGjdujNFoJDQ0lHbt2kFNkGvVqhVJSUnye6iqquLWW2+lbdu2OJ1OsrOzKSgooGfPnvTu3RuFQsGNN95IZGQkOp2OyMhI1Go17dq1IyUlhfLyctLT0wkLC6Nt27Y0btyY7Oxsqqur5bXGal8/IiKCgIAAbr31Vjk81X6fwsLCzvr+WrZsSWVlJaWlpbRu3Zq2bdvSoUMHGjVqhNfrJTMzk8TERFJSUujSpctpP8EzvfrqqwwaNIghQ4bU6SnLy8sjPz+fbt261WlfnygUCtRqNWFhYYSEhBAdHY2fnx+///47hw8fpm3btuctKlkf/PHHH/zyyy/ExsaSkpJCs2bNaNSokXhyTrisxNN2gnAJ2Gw2jh07xt69e1m1ahUpKSmMHz/+jGEcAKfTSUVFBTabTa6YrNFosFqtlJeXo9PpCAgIkOdGuVwutFotnFZVmZrXLC0tRaPREBoaSlVVlVxxubagY0hICF6vF71ej8vloqSkBIVCgV6vR5IkdDodFouF8vJy9Ho9SqUSnU6H1WqV1zKrZbVaCQgIkKs3196H1WpFrVYTEBCAzWajrKwMpVJJeHg4KpUKm81GRUUFbrcbo9GITqeT38fpH8wmk0n+wCsvL6e6uhq9Xk9ISAhOp5OSkhKUSiWRkZF1Xl+qqWyt1WrlYZnTv09ne3/ULMJce08ej0f+nlRWVmKxWDAajUiSJE9wr1VeXk5gYKAckA8ePEhSUpL8M6r1/fff0759e9q2bVtnf313etXy48ePU11dzQMPPHDOuXpXgyRJLF68mLy8PDp37kxoaCgxMTGiPpNwxYjwJAiXiCRJlJWVcfLkScrLy2nTpg0JCQlQMwFbDB1cu/Ly8vjhhx84fPgwqampjB49+k+XWpkyZQovvPBCvQodF6O2anlxcTGZmZkUFBQwduxYOXxeDW63m++//x6Xy0Xbtm0JCwsjOjpa9DIJV5wIT4JwiUk1C7f6+fnJvROrV6/mm2++ITIykr59+9KnTx+5Z0Sov+bNm8eKFStISkoiOTmZmJgYmjRpQlxc3HknH7tcLqZOncqUKVN8D11zHA4HJSUlFBYWkpeXx4kTJxg7duxZe1UvF7vdzldffUVwcDAtWrQgIiKCqKioM+aYCcKVIsKTIFwBRUVFpKenU1ZWJvdOnTp1imeeeYYOHTr4NheuIIvFwrZt29i3bx85OTncdddd8jIsR48epby8nNDQUHltwguppr5jxw7y8/MZOXKk76FrVu2TkQUFBRQWFrJ//37uv/9+YmNjfZteMmazmTlz5tCoUSMSEhKIiooShS2FekGEJ0G4QiRJwmazYTabKSsro6qqihYtWsjDP//73//YsmULhYWFBAcH06hRI5o1a0afPn3OmHcjXJzq6mrS09Np3ry5/MH7008/cfToUcLDwwkNDZUnxrdp00ZehsXtdqNUKi960vT777/PfffdR3h4uO+ha15t1fKCggK5avntt99O06ZNfZv+ZSUlJXz11VckJycTFxdHdHQ0ERERf1q6QhCuFBGeBKGeKCgooKysDLPZTEVFBU6nE4fDQY8ePeS5U2vWrOGXX35BpVIRFxdHYmIi8fHxtG7d+qrORbmaJEmiuLi4TpmCOXPmsGPHDqxWKwaDgaioKKKiorjtttvkYHTq1CnMZjMajYbg4GACAwPRaDTnHY67UK+88gpvvPHGRYeua4nH46GiooL8/HzKysrYtm0bQ4cOlZ+C/CtycnL47rvv6NixI1FRUURHRxMeHn5JfiaCcCmJ8CQI9YzX68XhcOB0OnE6neh0OnnuVG5uLocPH8bpdOJ2u3G73ZjNZtq0aUNqairUFAn8+OOPCQgIQKVSodVq5dIC/fv3l1+nPk5idzqdeL1eTCYTubm5nDp1Cj8/P4YNGya3+fe//01lZSV2ux1JkuQnrZ588kn5+7R161ZsNhuBgYGo1Wo0Gg06nY7o6OjL3ntRWFjITz/9xBNPPOF7qEHyer1UVlaSn59PeXk527Zto3fv3vLQ54U4duwYixYtonv37nJ5jtDQ0AsaIhWEq0GEJ0G4hni9XjlguFwuXC4XDoeDwMBAeQJvZWUlu3btksNVbaXvyMhIudq1x+Ph3XffhZoK5tQUdKyurua9996TQ9W0adPIysqSg1htT8pjjz1GUlISAMuWLWPNmjX4Gjx4MIMHD4aaHrOvv/4aj8eD1+uVr9e+fXs5ZFRWVvLhhx8iSRJBQUFy7SGj0ciAAQPk627dupXq6mq5nENtQGzatKl833a7HT8/P7kK+pW0YMECmjdvTkpKiu+hBk2qKRlRUFBAeXk5O3bsoE2bNtxwww2+TWW7du1i9erV9OjRg9DQUGJjYzEajfUu1AuCLxGeBKGBkSQJl8uF1+uVt9peptqhPUmS5MrktYHI6XTi8Xjo0KGDHDj279+PxWJBWbO8icvlwm63k5qaKj8tmJaWxsmTJ+XXr5WcnEyTJk2gpjcmLS0NPz8/eQ6RUqnEYDDQvHlzqHn92usEBATItZQCAgLqPJnodruRJAllzTIw9c0bb7zBv//973/spGZJkrBYLHKI2rt3L1FRUdxyyy3yn7W1a9eyZ88eunfvLvccGgyGBj3MKTQsIjwJgnBOXq+X039F1AYxtVotByy3243L5TrtrP+ndgkZaj5QvV6vHMLqI4/Hg8fjkYf1vF4vO3fuxGw2U1VVRVVVldzLd+edd8rnLVmyhNLSUjiteOOtt97KyJEj5aVZ9uzZw8mTJzEYDHK1doPB0KCXDpFqSnbUFtw8cuQI+fn5GAwGOnfuLNdo0uv19fbPhCCciwhPgiA0OIWFhRQXF1NRUcGpU6dIS0ujQ4cO3HrrrQAcPnyYr776CpvNhlKpRK1Wy8vD3HHHHVDTE/bTTz/h7+8vByqFQoFGo+Gmm26SX2vLli04HA55mLS0tBS9Xk///v0JDg6GmirkaWlpuFwuqqqqqK6uprq6mgEDBtC5c2e5zfTp03G73Wg0GtRqNYGBgfTq1YtbbrkFagJJSUkJ4eHh11QvTXV1NUVFRfzf//0fjz76KDExMaKwpXBNE+FJEIRrjtVqJS0tjRMnTnDy5EmGDRtG+/btoWZO1Pr16wkJCUGr1RIUFISfnx8tW7YkOTkZapaCycrKwuPxoFAo5CFAg8FAo0aNoKbnqaioCD8/P3m4UaFQoFAo6pSOqKqqgtN61yRJQpIkgoOD5V6l6upq7HY7Ho8Hp9Mpz1cLDw+Xe6dMJhPHjx+Xj3s8HhwOB5GRkXTt2hVqloaZNWsWhYWFlJSUINUsH5OcnMyTTz4p31N99dprr/HGG2/47haEa44IT4Ig1FtOp5OAgAC5h2Lu3LmsXbuWmJgYYmNjiYyMRKVS0b17d2JiYgDkQqS186Vq192r/W99d/pcNbfbjUKhkJ8idDqdZGVlyWGsthdLr9fTp08fqAlxDz/8MHa7HaPRSOvWrenTpw8tWrS46j09kydPRqxFLzQEIjwJglBvlJeXs3r1arZt20ZRURHR0dE8/fTTxMfHA5Ceni4vzBscHIxOp0OlUhEYGPiPe6xdkiQ8Ho8836w2YEmSxJ49e6iqqsJisVBVVUVWVhZWq7VOr48kSVc8TInwJDQUIjwJglAvzJkzhxMnTtC2bVuMRiMhISHyWma1waB20rnw52qHCG02GxUVFdjtdtq0aSMfe/fddzlx4gTJycnccssttGzZ0vcSl5wIT0JDIcKTIAhX3N69e5k/fz6jR4+mS5cuAGRmZlJVVUVkZCQ6nQ6NRiOC0mUi1ZSqKCkpobq6mvLycnbv3k1ERAQvvPCCb/NLRoQnoaEQ4UkQhCvC6/UyZ84ctm/fTu/evYmKiqJLly4Ncv23a4XH48Fut2MymSguLsZisdC7d2/fZpeMCE9CQyH+WScIwmWXlZXFxIkTcbvdPPDAAwwcOJA+ffrI68zVKi8vZ9q0aYwdO5aJEyfy2Wef1Tl+oTIyMsjIyICaJ/OmTJni2wS73c7jjz/uu/uclixZwvLly6Fm4dpXX32VMWPG8NBDD/HJJ59gs9l8T5EtXLiQFStWQM3w5L59+3ybgM+9VlVVsXXrVt8m57Vv3z7ef/99393n5Ofnh1arJTY2lg4dOtCtWzf52PHjx3nwwQfZuXNnnXMEQRDhSRCEKyAsLIz777+fW265hR49ehAXF0dgYGCdCcsmk4lHHnmEiIgI7r33Xm699VYsFkud61yotWvXsnbtWqipVn62pVK8Xi+bNm3y3X1OmZmZZGdn43a7ee6554iKiuK+++5j+PDhmM1mzGaz7ymy9PR0Tp06BUDz5s3lpXR8nX6vJSUlfPTRR75NzqukpIT9+/f77r4gCoUCtVot/39sbCx33XUXS5cu5ZtvvqnTVhD+6cSwnSAIl11tDaTzVdOeP38+S5Ys4aOPPiIkJASPx0NJSQnx8fGsX7+e2bNno9frcTgcvPDCC8TFxfHiiy8SFBSEyWSSJ0F7vV6GDBmC0+mkVatWPP7448ydO5dPP/0Ul8vF22+/TV5eHpIksWLFCnJycjh58iSvv/46RqOR6upqxo8fT8+ePdm1axeffvopOp2OPXv2cOedd/Lggw+SkpLCokWLaNWqFW63m5KSEiIjI1Gr1SxcuJBly5ahVCrp1KkTjz76KO+88w5hYWFMmDCB6dOn079/fzp16sSyZctYtGiRvHDx5MmTee655/j000955ZVXmDVrFjfccAN9+/bFbDYzdOhQWrRoQU5ODvPmzeOll14iOzubqVOnotFoyMzMxGg0Mm/ePE6dOsVbb70l15167bXXiIuLY+HChfz222/4+/uj1+t56623zlnCwel0kpmZyccff8xNN93EzTff7NvkoohhO6GhED1PgiBcFl6vl1dffRVqejXOF5yoKW6ZmppKREQE/v7+qNVquURB48aNmThxImPHjiUhIYH58+fjdrv5448/6Nu3L2PHjpWHubRaLd26deO6667j8ccfJy4uju3bt0PNIsanTp1i3Lhx3HffffL6c0ajkXHjxjF27Fj69u3LzJkzsdvtTJ06lWHDhjFmzBi5UKVGo+HGG2/kueee49lnn+Wrr76S60jl5OTw1Vdf8eCDDzJ+/Hg2bdrEjh07TnuX/6+6eXl5Obm5uXzyySfce++9jBs3jkGDBuHxeOR77dOnD9HR0Tz++OP079+fbdu2UV5eDjW9dJs2bUKSJN5++206derEmDFj5EV4a/f37NmT8ePH07p1a7744gvsdjszZszgjjvuYMKECQwaNOi8k/JVKhUtWrRg/Pjxf3kIVRAaonP/rREEQfgbLBaLvPjwhbDb7edcTNdkMjF37lw+//xzdu7cKc9nkiSJ7t2706lTJxITE8nPz0elUhEfH0/jxo3p3r07BoMBh8MBwMqVK+nVqxddunShY8eO8rIrdrudn3/+mRkzZrBmzRrS0tLIz88nNzeXG2+8kY4dO9K4cWOomSc0adIkHnnkETp16kRBQQFjxowhOzubI0eOEBwczHXXXUf37t1p2bLlGcNotYs2Hzx4EK1WS+/evenUqZM8Ubv2XhMTEwkODqZ79+4kJSXhdDrxer1Q876dTifV1dVs2bKF4cOH07FjR7ncQHV1NStWrGDZsmV8/vnnrF69mi1btuDv709kZCRffPEFS5YsITQ09LzhiZrgW1s+QhCE/+f8f2sEQRD+oqCgICoqKsjLy/M9dFZt27Zl69atnG0mwX//+1+6devGhAkTuPHGG+UQoVQq5QCk0WjweDzyOWe7jt1uR6fTycus1M65mjVrFlFRUUycOJHbbrsNhUKBx+NBkiS5xtTp87MSEhIYPHgwI0aMYMyYMTidTg4fPoy3ZuFkf39/eTmX0+/pdLXvoba459mC4+nvQalU4na76xynZmhNq9WCzz36+/tz3333cdddd/H000/z+uuv4+fnx5QpU7j33ntJTEzktddeo6Ki4rSrnV1GRsafhixB+CcRfxsEQbgsAgICePzxx3nmmWcoLCz0PXyGESNGkJ+fz7vvvsuRI0fYvHkzzz77LAClpaW43W78/PzYtm2b76ngExwiIiLYuXMnR48elYe6AHr37s0PP/zA4cOH+eabbzCZTACYzWYsFgtarZatW7fi9XqJiYkhICCAxYsXs337dv73v/9BzROBjzzyCL///jtFRUXs3buXyspKmjdvTocOHTh16hTLly9ny5YtrF69mtTUVPn1T5eSksKpU6f45ZdfOHjw4BnDYsHBwZSXl7Nnzx4yMzNp2rQpv/32G4cOHWLOnDlQE7iSk5OZN28eBw4cYP78+fL+66+/nrVr12IwGPB6vaSnp1NdXc0PP/xASEgIkZGRpKen13nNc5EkiQkTJvjuFoR/LL/JYvaeIAiXSePGjXG73XzxxRe0bdv2nE+ZURMWWrVqhd1u59ixY5SXl9OsWTPatGlDYmIiubm5WCwW2rVrR7t27WjRogUajYZOnTrJC/cmJCQQExNDREQEFouFnJwcmjdvTkREBJ07dyY+Ph6Hw0F6ejqNGzemXbt2dOvWjUaNGlFaWkpJSQnJycm0bt2arl27kpSUxIkTJ7Db7XTs2JGUlBTi4uKw2+2UlJRw/PhxvF4vt9xyCykpKej1ehITE8nKyqKgoIDBgwfTo0cP1Gq1fG9+fn60atWK+Ph4kpKSyMvLIysri9jYWJKTk9FoNHTu3Bm1Wo3BYODEiRPyUGBRURGlpaW0a9eONm3a0KFDB5o3b05OTg6lpaW0b9+edu3a0apVK5KTk3E6nfL9t2jRgsaNG1NcXMzJkydxOp3ccssttG3b9k97lYKCgmjUqNGfzlv7M+vWraNv376+uwXhmiOethME4bIym80cOnSItm3botfrfQ/X4fF4qKysxGKx4O/vj8FgIDg4GKfTSXFxMUqlEr1ejyRJ6HQ6TCYTBoMBhUJBdXU1SqUSjUaD1+ultLQUm81GVFSUvEiuJElUVFRgsVgwGo14vV75yb7i4mI8Hg9GoxGPx4PBYMDpdFJUVIS/vz86nQ5/f380Gg1WqxWLxYLD4SAwMJDQ0FB5+NDpdFJSUoLX6yU8PJzAwMA692axWFCr1ahUKpxOJ2VlZTidToxGI3q9HpPJJM8vMpvNlJeXYzQaCQ4OpqSkBLfbTUhICG63G4PBID/tV3vvkiQRHByMJElUVlZiMplQqVQYjUYCAwMxmUyYTCb8/f0JCws7Y7jQ5XLJdammT59OREREneN/h3jaTmgoRHgSBOGy83g88hwgr9fLAw88QKNGjRgxYgRdu3a94gvUCnVJksTWrVtZsmQJxcXF9OnTh6SkJLp161an9tPfJcKT0FCI8CQIwhUlSRKbN28mLy+P48ePc/z4caKjo+nfv//friMk/DUbNmxg165dNG3alOjoaJo0aUJYWNjfHqbzJcKT0FCI8CQIwhXn9XqxWq0UFxfL83h0Oh0DBgyAmmVKfvvtN3r27ElcXJzv6cJfcOrUKdatW8ehQ4eorq7mzjvvpGfPnlBTmbyqqorw8HC0Wu1l6wkU4UloKER4EgThqvJ6vdhsNjwejzwnqqqqiuXLl1NRUUFBQQEFBQVERkbSp08fBg4c6HsJoYYkSZSVlaHT6eS5TL///jv/+9//CAsLo3nz5oSHhxMWFkbjxo2v+KLMIjwJDYUIT4Ig1Dsej4eKigqsVitVVVWYTCbMZjN6vV7uLbFarTzxxBOEh4cTERFBSEgIiYmJdOnSpcEWdJQkqU6v0Pbt29m8eTO5ubmYzWZ0Oh0hISHcfvvtJCcnA1BYWEhBQQFBQUGEhYWh0+lQq9WXrXfpfER4EhoKEZ4EQaj3PB4PDocDr9eLTqcDwO12s2vXLpxOJ3a7naqqKrkg5ahRo+RzX3/9dcrLywkKCiIqKoqEhATCw8Pp1q2bXACztucrKCjoTx/bv5QkScJut2O328nLy6NNmzZyqPn111/ZvHkzNpsNh8NBVVUVoaGhPP300yQlJQGwb98+CgoKCA4ORq1WExAQgEajIS4ujuDgYJ9Xu/pEeBIaChGeBEG4ZkmShMfjwe1219lOH446cuQIlZWVcviiZumYfv36YTAYAPjpp5/YvXs3NpsNu92OzWbDYrEwceJEbrrpJqgJM0uWLDmjx6ZTp0488sgjAKSlpfHuu+/Kx5xOJw6Hg4SEBP7zn/9AzT0//vjjOJ1OeU08tVpNTEwMDz/8sLxI76FDhygrKyMgIICAgAACAwPl9f5qQ5/dbkeSJFQqlfw0Y30mwpPQUIjwJAhCg+bxeORlUyRJwuv14na70el08tNkpaWlcs+V1+uV20dHRxMSEgJAWVkZxcXFckDzeDy4XC4iIiJo1qwZ1MzVOnDgABqNBrVajVKpxOv1otFo5N4iSZLIyMiQh+CUSiV+fn6o1WoiIyPlAOR0OpEkSQ5Ffn5+9T4c/RkRnoSGQoQnQRCEC1D7q1KSpDpbbfipPeZ2u+XAc3rYudaDz6UgwpPQUFy5wX1BEIRrWG0Yqg1L/v7+BAQE1KmFpFAo5H2nBygRnAShYRHhSRAEQRAE4SKIYTtBEAThiigsLCQ6Otp3tyBcc0R4EgRBEARBuAhi2E4QBEG45NxuN3PnzqW8vNz3kKyoqIh58+b57haEek+EJ0EQBOGScrlcvPHGGyxcuPCc4en48eN8+OGH/Pzzz76HBKHeE+FJEARBuKT8/Px44IEHMBgMctV3X7Gxsdx3331UV1f7HhKEek+EJ0EQBOGSUiqVNGnSBLVa7XtIptPpaNSo0RVdDkcQLhXxp1YQBEG45P6stpWofyVcy0R4EgRBEC4pt9vN888/z8aNG3n55Zc5evQojz76KCaTicmTJ3PixAlOnjzJI488wqFDh5g0aRIul8v3MoJQb4lSBYIgCMIlJUkS2dnZWK1WVCoV8fHxFBQUkJCQQH5+PhEREQDk5uZit9vR6XQkJCSIITzhmiHCkyAIgiAIwkUQMV8QBEG4IlauXOm7SxCuSSI8CYIgCFfE7t27fXcJwjVJhCdBEAThinA4HL67BOGaJMKTIAiCIAjCRRATxgVBuCZ5PB4KCgrIzMwkKyuL/Px8Kisrsdls2O32OptCoUCpVMobNU+ESZKE1+vF6/UCoNFo0Gg0qNVqAgMDCQoKwmg0EhcXR5MmTUhMTCQ6OlrUJ/qLJk+ezOTJk313C8I1R4QnQRDqtfz8fHbt2sWePXvIzc2loqICf39/QkJCiIqKIiYmhrCwMNRqNf7+/qhUqjM2Pz8/OfDU/vf0X32SJOF2u3G5XDgcDpxOJy6XC6fTidvtxmazUVZWRkFBAcXFxVRUVCBJEkajkYSEBLp06ULnzp3lR/CFsxPhSWgoRHgSBKHeqKqqYvXq1WzcuJHc3Fx5mY8WLVoQFhZGSEgIwcHBdYKSRqORA1Jtz5JvT9OF9BSd3gtVu9Xuc7vdOJ1OHA4HDocDt9uNw+HAYrFQXl5OSUkJx48fJzs7G39/f+Lj4+nXrx99+/ZFo9H4vtQ/lghPQkMhwpMgCFeNJEns37+f5cuXc+DAAYxGI127dqVRo0aEh4ej0+kIDAxEp9OhVqsJCAjA39+/XhRT9A1VVqsVu92O2WymtLSUrKwsdu7cid1up2PHjgwbNozk5GTfy/yjiPAkNBQiPAmCcMUVFxczZ84cdu3aRZcuXWjVqhXx8fGEhIRgNBoJCgqSe5OuNbWBqqqqCpPJRFlZGbm5uRw6dIiDBw/Su3dv7r//foxGo++pDZ4IT0JDIcKTIAhXTFpaGtOnTwdg4MCBNG/enMjISPR6PYGBgddkWPoztXOmTCYTxcXFHD16lJUrVxISEsKkSZOIj4/3PaXBEuFJaChEeBIE4bKrrq7mzTffpLKykhEjRtC8eXMiIiLQ6XT1YgjuSvF4PFitVjlELVq0iBYtWvDcc88REBDg27zBEeFJaChEeBIE4bLKzs7mmWeeYeTIkVx33XXExMQQGBjo2+y8PB4P33//PWvWrMHpdJKYmMj48eNJTEz0bXqG/Px83nrrLT755BM++OADMjIy6hwfMWIEAwcOrLPvcpMkierqavLy8lizZg1r167l008/JTw83LdpgyLCk9BQ/HP+yScIwhVXWlrKE088wcSJExk+fDhNmjS56OAEMG3aNHbt2sX48eN58sknadOmDYcOHfJtdlZ2u519+/YB0LdvX/71r3/xr3/9iwEDBrBy5Up0Op3vKZedQqFAq9XSvHlzRo8ezZ133snEiROprq72bSoIQj0kep4EQbhsJk2aRMeOHRk1ahRqtdr38AXJy8tj2LBhzJ8/n6SkJBQKBdXV1Xi9XoxGIz/++CMLFy5EoVDQo0cPnnrqKcxmMy+88AJVVVVUV1eTlZXFrl27cDqdSJKEx+PhySefJDExkaeffpqgoCDS0tKYPHkyXq8XvV7P22+/TWBgIE8//TQ6nY6SkhIAPv74Y4KCgnjsscewWCy43W569OjBk08+eUElEc6murqaL774ApfLxaRJk3wPNxii50loKETPkyAIl4XL5WLbtm2MGDHiLwcnaiaZGwwGmjVrJpcq0Ov1GI1GsrOzmTNnDi+88AKvvvoqW7duZevWrXzyySdERUXxyiuvMHHiRHkiukqlQq1W89133+H1epkwYQJBQUFIksTrr7/O0KFDmTx5Ms2bN+eDDz7A7XazceNGhg0bxssvvwzAxo0bUSqVPPjgg7z22mu8/PLLLFiwgMLCQp87v3BBQUHcc889fPvtt76HBEGoh0R4EgThsvB4PHi93r89LOZ2u1EqlWd9Eu/w4cNERESQkpJCmzZtaNeuHQcOHGDlypUMGTKEFi1ayL1VtbZs2cKvv/7K888/L88xslqtHDx4kEGDBtGyZUsGDRrE2rVroWaILSUlhRYtWpCQkEBhYSFer5c1a9bwyiuv8OGHH5KRkUFVVZX8Gn9FaGgopaWlvrsFQaiHRHgSBOGyUKlUBAYGkpOT43voojRt2pScnBzKysp8DwHgcDjk6uJutxtJknA6nQQFBUFN+KkNTwUFBbzxxhs899xzNG3aVN6vVCpxOp3yk38KhUJe706pVKJSqQBQq9V4vV62bNnC9u3beeWVV3jppZeIi4urs9zLX7F//346d+7su1sQhHpIhCdBEC4LpVLJs88+y7PPPvu3JkLHx8czcuRIHn30UbZs2cLBgwd57733+Pnnn+nUqRPZ2dksW7aMzZs3s2LFCnr27Env3r2ZPXs2hw8fZvbs2bhcLjweDy+++CIRERFUVlaycuVKfvvtN44ePUpgYCA9evTgo48+4vDhw3z44YcMGzbM91bqrI9XUFCAQqFg165d5Ofn+za9KGVlZbz88su89NJLvocEQaiH/CaL2XuCIFwm8fHxOJ1O3n33XTp37kxoaKhvk/NyuVx8//33SJJEeno6K1eu5Pfffyc7Oxu1Wk1xcTEul4vffvuNtWvXEh8fj0qlwuPxsGXLFlavXo3NZpPXqlu7di2VlZUcOHCA7du3s337djIzM+XJ4Js2beL333+nqqqK5s2bc/LkSdLS0lAqlRw8eJDDhw9jMplwu91kZGSwcuVKeT27mJgY2rdv7/sW/tT+/ft55plnuP/+++nbt+9ZhycbinXr1tG3b1/f3YJwzRFP2wmCcFmZzWa2bt3KvHnzaN++PU899dQFF4T0eDxs2rQJap5Is9vtSJJEQEAAWq0WPz8/XC4XFosFAK1Wi1qtRpIkzGYzbrebwMBAPB4PwcHBmM1meTiullqtJjAwsM45KpWK4OBgJEnCYrGg1+uhpuxB7TCe1WrF4XDIrxcdHU2XLl3qXPt8qqureeeddygoKODuu++mW7du8lBjQyWethMaChGeBEG47Ox2O9nZ2axfv55Vq1bRqlUrxo8fT6NGjXyb1iFJEjabzXd3vaRUKtFoNL67z5CWlsYXX3xBTk4OQ4YMoVevXnKPWUMnwpPQUIjwJAjCFSFJEhUVFRQUFHDixAn++OMPLBYLw4cP54YbbiA4ONj3lAajvLyc//3vf/z222/ExMTQp08fmjdvTkxMDHq9/i/Xh7rWiPAkNBQiPAmCcEVJkkRVVRUlJSXk5OSQnp7Ozp07KS8vp3379gwZMoSUlJRrOlB4PB527NjBihUrOHr0KNHR0XTu3JlmzZoRHx9PeHg4QUFB1/R7/CtEeBIaChGeBEG4apxOJxaLhcrKSiorKzl16hRHjx7l0KFDuN1uGjVqRLt27ejSpQstW7bE39/f9xJXncvl4vDhw+zatYvDhw+Tl5eHRqOhQ4cOtGjRgvj4eIxGI0ajEZ1Od8HzvRoiEZ6EhkKEJ0EQ6gWPx4PNZsNsNmO1WrFarZSUlFBeXk5mZiYnT56ksrISvV5PaGgoMTExNGnShMTERJo0aUJYWJjvJS8JSZIoKSkhMzOTrKwsMjMzKSwspKKiAovFgtfrxWq1cv/99xMTEyP3Kun1eoKDg9FoNA36CbqLIcKT0FCI8CQIQr3k8XhwOp04HA6qq6upqqrC6XRitVoxm81UVVVRVVVFcXExhYWFlJeX43A4cDgcOJ1OVCoVGo2GwMBA1Go1fn5+KBQKuRAmIJcw8Hq92O12bDYbdrsdl8sln69WqwkLCyM6OpqIiAi0Wi1arRa9Xo9Op0OhUJCXl8e+ffvw8/Nj4sSJDf6pub9KhCehoRDhSRCEa4YkSbjd7jpbbWByuVx4vV554V+XyyWHr9oFgWuPS5IkVx5XKpUoFArUajVqtRqVSkVAQIC8v7Y0Qe1xf39/easNZA6Hg4qKCgoLC9mzZw9VVVWMGTMGrVbr+xb+0UR4EhoKEZ4EQWhwagPS6T1Ltft9nb5Ey+nbX+F0OqmoqKCoqIh9+/ZRWlrKuHHj5DpRV8qCBQswm81/+X1cLgcOHPhLhUQvt4KCAlHdXbgoIjwJgiBcYi6Xi8rKSoqKiti/fz/5+fmMHTv2oius/1Vvv/02999/f72ba+VyuerlhPmPP/6YqVOn+u4WhHMS4UkQBOEycbvdVFRUUFJSwsGDB8nMzGTMmDFERkb6Nr2kpk6dyosvvljvwlN9JYYThYtVv/p0BUEQGhB/f38iIiJo0aIFAwYM4JZbbmHDhg289dZb5OXl+TYXBOEaIcKTIAjCZebv7094eDjNmjWjX79+jBo1ih07djB16lSysrJ8mwuCUM+J8CQIgnCF+Pn5ERYWRtOmTenTpw933HEHBw4cYOrUqZw4ccK3uSAI9ZQIT4IgCFeYn58foaGhJCUl0bt3b+68807S0tKYOnUqhw4d8m0uCEI9I8KTIAjCVaJUKgkJCaFJkyZcd9113H333eTm5jJ16lR2797t21wQhHpChCdBEISrTKlUYjQaSUxMpEePHtx7772Ul5czbdo0tmzZ4ttcEISrTIQnQRCEekKhUGAwGGjcuDHdu3fn3nvvxWaz8fbbb7N27Vrf5oIgXCUiPAmCINQzCoUCvV5Po0aN6NatG/fccw9KpZL//Oc//Pbbb77NBUG4wkR4EgRBqKcUCgXBwcHEx8fTuXNn7rrrLoKDg3nvvfdYvHjxWZebudpq1w+8lDwej+8uQbiqRHgSBEGo5xQKBTqdjvj4eDp16sQdd9xBZGQk//d//8ePP/54xcLF5s2b6devX53txRdfBGDnzp3ceuutdOnShdTUVB566CGKi4sBeP755+nXrx8ffPABAD/++CODBw+mpKQEALvdzujRo+nXrx9r1qyRX+/HH3/khhtuoEuXLvTo0YMxY8Zgt9vl44JwtYjwJAiCcA0JCgoiLi6Ojh07Mnr0aBITE/nss8+YO3cuLpfLt/kl1ahRI+677z7uu+8+JEli48aNKJVKysrKeOSRRzh27BhPPPEEo0aN4ueff+all17C6/Vy+PBhNm7cyHvvvcfBgwfJzc1ly5YtOJ1OAHbt2sXy5cvZunUr3377LQB5eXm89NJLKJVK3nvvPZ5//nm0Wu0VC4qCcD4iPAmCIFyDAgMDiY2NpUOHDvzrX/+idevWzJ49m9mzZ+NwOHybXxKxsbGMGjWKkJAQDhw4wHXXXcdDDz3E9u3b2bt3L3feeSejRo1i3LhxpKSksGTJEkpLS/F6vURHRwPw2muv4XQ664SgH3/8keDgYEaMGMGKFSsoLi7G6/VSUFDA4cOHWbx4MRaLhaeffhqNRnPaHQnC1SHCkyAIwjVMo9EQExODwWBAkiRWrFjBzz//fMnnHVGzzExRURGvv/46BoOBDz/8kLi4OIqKivB4PDRr1gydTkdISAjx8fFUVlZisVgAMBqNPPfcc6xatYrFixfL16yoqGDp0qX079+f++67j5KSEn7//XeioqJ46623CAgIYO7cubz00ks89dRTVFdXn3ZHgnB1iPAkCIJwDZEkiZMnT/Ljjz/yxhtv8NFHHzF//nyys7Pp0aMH06ZNY9CgQb6nXRJms5nHH3+crKws/u///o927dqhVCpJTExEoVCwZ88eqJnDdODAAUJCQggLC4Oaqur33HMPnTp1Yt++ffI1161bR25uLmvWrOH555/H4/Ewf/58ysvLGThwIMuWLeOnn36iTZs2rFq1ilOnTsnnCsLVopAuxz9PBEEQ/oQkSZSXl1NQUEB+fj5FRUVYLBasVitWqxW73Y7D4cDhcNT5WqlUolAo5M33mqdvCoUCtVotbxqNBrVaTWBgIDqdDp1Oh8FgIDo6mtjYWGJiYggODq5zzavJ4/Fw4sQJdu/eTUZGBqGhoURERBAREUFoaChGoxGVSkVAQAAqlQqNRoNKpWLatGm8+OKL+Pn5+V7yb/n666956KGHCAwM5Prrr0ej0RAdHc3UqVO544472LlzJzfeeCNms5nff/+dl156iZdeeolhw4aRl5fHvn37WLt2LUOHDgXgxIkTPP3002zZsoVZs2bh7+/PvHnzWLJkCTNnzuS9996jR48eGI1GfvrpJxQKBVu2bCE0NNT31v6WyZMnM3nyZN/dgnBOIjwJgnBZVFVVceLECY4ePcrJkycpLy/HZDJhsVhQqVQEBQUREhJCeHg4YWFhaLVaAgIC8Pf3JyAgQA4Ep4eDgIAAlMr/v8P8bOHpdB6PB5fLhdPpxOl0yl+7XC5cLhdutxun04nFYqG0tJTS0lJMJhPV1dVIkoRer8doNBIREUFycjLJyckkJSUREBBQ53UuBZfLxZEjR9i9eze5ublEREQQHh4uByWDwVDne6FWq1GpVGd8DwCmTp16WcLTli1b+OOPP/Dz80OlUkHNcNzYsWPJyMjgt99+4+TJk6hUKlJSUhg8eDBhYWF8//33WCwWJk6ciN1u57vvvqO4uJgJEybwww8/EBwczO23345CoeDQoUMsX76cQYMGsXfvXrKzs3G73URFRdGvXz86depU58/ApSDCk3CxRHgSBOFvMZlM7Nq1iyNHjpCVlUVhYSEej4fw8HASEhLk+Ti1PT1arRY/Pz/8/PzqhCJ/f3+USqXcs3Sur88WFs5FkiS57pDX6z3j69qtNkQ5nU7cbjderxen04nVaqWqqgqLxYLJZOLUqVPk5uZSXl6OTqcjOjqa5s2b07ZtW1JSUuRA8WccDgcHDx5k9+7dlJSUyEGpNkjq9Xo5QNb2mgUEBFzwe79c4clms2Gz2ersq11aRpIkLBYLVVVVKJVKgoODCQoKAsBiseD1ejEYDPL/u1wuDAYDZrOZgIAAdDodgPx9DwwMxOVyUV1djdfrRaPRYDAYLvl7QoQn4S8Q4UkQhIuSkZHBpk2b2LNnD3l5eURFRdG6dWsiIiIICQkhNDRU7kUKDAyUh5L8/Pzw9/fHz8/vgkPA1eT1evF4PLjdbtxuNy6XSw4PLpcLi8VCWVkZJpOJvLw8jhw5QlVVFU2bNqV79+707NmT8PBwqqur2b9/P7t378ZsNp8RlIKDg88ISv7+/n/re3S5wlNDJcKTcLFEeBIE4bzMZjNLly5l3bp1WCwWmjVrRsuWLYmJiSE6OpqgoCCCg4Pl3pHaoNSQSZKEx+ORhwBtNps8Vys/P18OU/v27cNqtTJ06FBuvfVWQkJC5GHJ03uULjURni6OCE/CxRLhSRCEM1RXV7NgwQLWrFlDQEAAPXr0oGXLlkRERBAUFIROpyMwMBC1Wv23ekgaGo/Hg8PhoLq6GqvVislk4uTJkxw7doy9e/cSExPDsGHDGDhw4CWft3M6EZ4ujghPwsUS4UkQBFl2djYffPAB6enpjBw5ks6dOxMdHY1Op0Oj0eDv7+97inAekiTV6ZnKzMxk8+bNrF27ln79+vHYY4+h1Wp9T/vbRHi6OCI8CRfr8v3TRxCEa4bZbGbSpEk899xz3HDDDcycOZPbb7+dtm3byuHJ4/HIc3wu9xIZbrcbk8nku/tPVVZW+u66IC6Xi7KysjpbRUXFGU/vXSyFQoFKpcJgMBAbG0u3bt2YOHEin376KTExMYwaNYoZM2bg9Xp9TxUEoR4T4UkQ/uF27NjBbbfdRteuXfnwww/p378/sbGx6HS6Oj1NCxYsYPTo0bz88svcddddjBw5kv3799e51qWSmZnJs88+67v7vCRJ4plnnvHdfUEyMjLk3ofJkyfz2GOPcdNNN13SZU5qg5TRaKRJkyb861//4tNPP8VqtTJ69Gh5EV1BEOo/v8mir1IQ/rH27t3La6+9xjvvvEPPnj0JCQk55yPxW7ZswePxMHnyZAYPHkxMTAzPP/88w4YNQ6vVYjab+eGHH9i9ezdNmjQhMDBQfo2ff/6ZnJwc4uPjUavVmEwmfvzxR/bs2UNYWBhKpZLdu3ej0+nYtGmTHN6Sk5PZtGkT1Kx/VlxcTLNmzVAoFHi9XlauXMnKlStxu93Ex8fj9Xpp1aoV1PReLVmyhLVr1xIeHk5ISAgWi4Xdu3dTUVHBwoULCQwMJCoqCr1eT2pqKn369CE1NZWvv/6a8ePH07lzZxQKBRkZGfzwww/k5+fTrFkzlEolmzZtQqlU8tNPP5Gbm0vz5s1RKBSYzWaWLFnCH3/8QXFxMU2bNj1jftPpPVLt2rUjNDSUF198keHDh6NWq+u0/Ss2bNhA7969z3hd4ezWrVtH3759fXcLwjmJv1mC8A/24osvMm3aNNq2bUtQUNBZQ9PpgoKCiIiIIDo6moEDB9KsWTNWrFhBeXk5d999t1wj6b777qO6upo1a9Ywbdo04uLiyM3NZd26dZSUlDB69GhcLheBgYF88803FBQUMH78eMaPH88vv/zC8ePH+fLLLwF4/fXXef/99wkPD+err75i7ty5SJLEv//9b9asWUNMTAxLly5FoVDwxRdfwGm9UDt37sRoNPLQQw9x8OBBCgoKGDduHKtWrSIsLIyHH36YoqIiVCqVXLn7888/JzU1ldGjR6NQKNi/fz8PP/wwRqORHTt2yD1ir7/+Om+//TZhYWHMmzePpUuXAlBQUEBmZibx8fGsW7eO119//bTvYF1KpRKDwcDAgQMZNWoU//3vf32bCIJQD4nwJAj/UMePH8doNNKuXbu/NBFcrVaTkJBATk4Oy5Ytw2g00qJFC5KTk7FarXLRTLPZTMuWLXnwwQcZMGAAy5Yto0mTJtx+++0MHz6cRx99FI/Hg1qt5oMPPuCNN94gKipKnr9ktVp54IEHuPHGG+WK1Hl5efzxxx88/fTTDB48mEmTJsFpc57y8vLYtm0bTz31FMOHD2fkyJGsWbMGj8eDwWBg7NixDBs2jNDQUE6ePCm/p0WLFnH48GEmTZokF3j87rvvGDFiBMOHD+epp55i27Zt8n2NGzeOwYMHc+ONN5KWlgZAkyZNGDBgAMXFxVRVVbFx40b5+uei0Wi4/fbb+eqrr3wPCYJQD4nwJAj/ULW1iv5KcKqVnZ1NQkIC2dnZVFRUsGHDBjZs2EDnzp0JDg6WH8t/5ZVXuPnmm9mzZw85OTkkJiYSHByMVquV1ynTarXEx8cTHh5e554UCgVGo5GgoCBiYmIoKyujsrKSgIAAoqKiCAoKOmOtM5PJhFKpJDw8HK1WS+PGjeUJ6LXzjrRaLVqtVq6YffToUT766COmTp1KRESEfK2cnBwSEhLQarWEh4fLQ2EKhYKQkBB5mRm32w01c8OmTJmCXq+nc+fOOJ1O+VrnExQUdNkn4guCcGmIUgWC8A/lcrkYPHgwM2bMIDk52ffwGWbOnMnJkyeZPn06AIsXL+add96R5xXNnz+fL7/8EoVCgdPpJCgoiLKyMgwGA3a7nR9++IFTp07RtWtXfvnlF3788Ud5jlBeXh4PPfQQ69evh5pesfHjx7NhwwZSU1P54YcfSExMZN68eaxatYrp06fTq1cvNm7cSGRkJHa7HY1GQ48ePdi6dSslJSVcf/31bNy4kfDwcKZOnYper2fQoEF1Xueuu+5izJgxdOvWjdGjR/Pkk09yww031HnE/7XXXkOlUvHKK69QWlpK7969OXr0aJ37Wrx4MceOHeOFF17ggQceYNCgQYwcOZLDhw/z5JNPsnXrVvl65zJ37lx2797N//3f//keumjvvvsuZWVlolTBBSosLBS9fsJFEeFJEP7BduzYwUsvvcSnn35Ky5YtfQ/XMXPmTN599115Qnbz5s158MEHad++PRaLhVdeeYWTJ08SFhZGaWkps2bNYuPGjcyePZv4+Hjy8/N59dVXSUlJ4emnn6a8vByVSkXjxo0ZN27cOcNT586diYuLIzg4mOLiYj788EOSk5OZOXMmCxcuJC4ujsrKSpYtWyaHJ4/Hw8yZM1m0aBERERFUVVXx2WefYbFYzhqeCgsLeeKJJ0hJSZEnbKtUKr788kusViuPPvooOp2O0tJS/vWvf/Hwww+fMzwtXLiQ6dOn07x5c/z9/Tl27NifhqclS5YwZ84cZs6cSUxMjO/hi2YymXC5XL67hXOQJKlOb6Mg/BkRngThH8zlcrFz507effddbrrpJsaPH3/O3gqLxUJFRYU8pKZWqzEYDPj7+yNJEhUVFRQXF+N0OgkJCSE6Ohq73U5BQQE2m42QkBCioqJQqVSUlZXJj+ZHRkai1+spKyuTg4PL5aK0tJSYmBi6d+/OBx98gFarJSwsjOjoaPz9/bFarRQVFWG1WgkNDaVRo0YUFBTI17BarfJrR0ZGEhkZidvtrvM6JSUl6HQ63G435eXlZwwXRkVFAVBcXExJSQmBgYHExMSg0+koKCggIiICf39/qqur5YVubTYbOTk5SJJEaGgoHo/nnIHIZDLx5ptvYrFYeO6550hKShJPyAnCNUCEJ0H4h3O5XOTm5rJ48WJWrlzJvffey2233faX1lzzer14vd46i/+ebR81S5kA5wxrtfr27cvXX39NfHz8Gdc417Uv9PiFqp0fplQqLyjceL1eJEk653urrKzk888/Z8OGDdx7773079+/znwqQRDqNxGeBEHA6/VitVrJyclh1apV/P7773Tr1o0777xTHqa7WgoLC8+YRH4t8nq9bNy4kfnz51NcXMwtt9xC7969iYyMJDAw8G+FO0EQriwRngRBkHk8HqxWKxUVFezbt48NGzZw7NgxOnXqxG233Ub79u3Fh/xFcDqdrF+/nsWLF5ORkUGvXr1ITU2lVatWGAyGC6qtJQhC/SPCkyAIZ5AkCbvdTlVVFWazmcOHD7N161YOHjxIYGAgbdu25frrr6d79+5yJXEBysrK2LhxI5s3b+bYsWNoNBq6dOlCt27daN68OVqtlqCgIFQqlQhNgnANE+FJEITz8nq9OBwOqqurcTgclJWVkZGRwYkTJ9izZw9ms5mkpCRatmxJ69atadOmjTzRuqHyer1kZmZy5MgRjhw5wsmTJ8nNzSU+Pp5OnTrRtGlTmjRpgk6nIzAwkMDAQBGYBKEBEeFJEISL4vF4cDqdOBwO7HY71dXVnDp1iqKiIvLy8khPTycvLw+Hw0FMTAwJCQm0bNmS+Ph4YmNjiY2NvSTrt11uZrOZ/Px88vPzyc7O5vjx4+Tm5lJWVkZwcDAJCQk0bdqU6OhooqKi5HX7NBoNKpUKlUolJoALQgMlwpMgCH+L1+vF7XbjdrtxuVw4nU7cbjcOh4OSkhKKioooLS2ltLSUoqIiiouLMZvN2Gw21Go1ISEhhISEEB4ejl6vJzg4+KybTqcjODgYlUrlewvnZLPZsFqtmM1mLBYLVqsVi8VSZ6usrKSsrIyKigrKy8uhptp3SEgIkZGRREVFERYWRnh4ONHR0YSFheHn50dAQAAqlYqAgAD8/f3x9/cXPUuC8A8hwpMgCJeFJElyqPJ4PHW+ri0hYLPZMJvNmEwmrFYrDodD3mw2G9XV1VRVVWG1WuWvHQ6HfP3a/0qShEKhkDdq6jQFBgbK84x0Oh1BQUFotVo0Gg1qtRqVSoVarUav12MwGDAYDPLwmp+fH35+fnIwqv3675Y9EATh2ifCkyAIV01tiKoNVLVBqPbr2uOn///poelsTg82CoVCrs2kVCrr/P/pYcvPzw+lUimCkSAIF0SEJ0EQBEEQhIsgZjMKgiAIgiBcBNHzJAhCvbFixQry8/Pp0qUL7du39z0sCIJQL4jwJAjCFfPOO+/w5Zdf+u6mSZMm/P777/zrX/9i7dq1TJ48mSeeeMK32VV39913s3PnTt/dAHz33Xd07drVd7cgCA2QGLYTBOGKKS0tJS0tjZKSEuLj4+UtOjoagHHjxvGf//yHPn36+J5aL0RGRta5b61WS1paGmlpaTidTt/mgiA0UKLnSRCEK2bSpEm89957dO/enV9//VXe7+fnR3h4OO+88w6bNm1i3LhxjBw5ErfbzSeffMLSpUtxuVwkJydjNptRqVR88skneL1eHn/8cVwuF++//z6xsbH88ssvzJ8/n86dO/P888+Tk5PDv//9b9RqNU899RTffPMN0dHRTJgwgaeffpq8vDysVitqtZpmzZrx3HPPkZycXOe+a1VUVMghSZIkHnvsMX7++Wfatm3L5s2b0ev1vqcIgtAAiZ4nQRCuuFOnTvHOO+/I25YtWwA4ePAgq1evJjs7G4DPPvuMKVOmsGXLFjQaDTk5Ofz6668sX75crnC+fPlyli1bRlVVFQBpaWksWbKEbdu2AWCxWFiyZAk///wzt956K7Nnz2bLli1UVVWxadMmAgMDiY+PJysri/nz5zNx4sTT7rSukJAQoqKiiIqKIisri9WrV6NQKHj55ZcJDg72bS4IQgMlwpMgCFdcYWEhX3zxhbxt374dAJfLhcPhkItqfvnll1RWVvLYY4/x7bff8vrrr8ttatUW1aztRPd4PDgcDlwuF9T0EDkcDrxeLx999BHbtm3j008/JTo6mrVr1/LKK68wfPhwhg0bhs1mY//+/fK1z8XlcjFlyhRMJhP9+/dn2LBhoj6UIPyDiPAkCMIV16ZNGxYvXixvDzzwgG8THA4HBQUFAFx33XXyMil/NaT4+/vTvXt3WrduTXx8PIWFhTz88MOMGjWKSZMmMX/+fADcbrfvqWdYtGgRa9euRa1W8+qrrxIUFOTbRBCEBkyEJ0EQrji9Xs/1118vb0lJSb5NUKvV8lDYtm3b8Hq9lJSUnLWyuMfjwWw2++6uQ6FQEBAQIFcXnzlzJqtXr6ZZs2b8+uuv/PzzzwQEBPiedgaTycS0adNwOBzcdttt9OjR4y8HOkEQrk0iPAmCcMUplUpUKpW8+fn5+TbBz8+PW2+9FYAZM2bQpk0bRo8ejcfjkdvULhYsSRKTJk3i0UcfZc6cOadd5dxKS0txOp2Ulpayf/9+vvvuuwvqdZoxYwZHjhzBaDTy4osvXtRCxYIgNAwiPAmCUC8pFAqee+453nzzTdq1a0dMTAz33nsv1IQvPz8/goKCeOKJJ/D392fLli2sWbOG5s2b+17qrMaNG0d8fDzHjx/n9ddfx263o1Se/1diRkYGH3/8MR6Ph4ceeogWLVr4NhEE4R9AlCoQBOGKKS8vx2w2o1ariYmJ8T1McXEx1dXVhISEYDAYyMrKYuPGjbRo0QJ/f38+//xzvvjiC1q3bs2+ffsICAjAbDaTkZFBZWUliYmJBAUFUV1dTWBgIFFRUTidTvLz81EoFMTHx8u9XC6Xi9zcXLKysggLCyMmJoaqqioUCgUJCQm+twY15+Tn5yNJknyPgiD884jwJAhCvbVu3Tpuu+021Go11Mw38nq9zJkzh9tvv12ea+TxePB6vfj7+1/U/CNJknC73fj5+f1pr5MgCEItEZ4EQai3SkpKWL58OeXl5bjdboxGI507d6Z169YEBgb6NhcEQbgi/j+CbtVxgz61OAAAAABJRU5ErkJggg==;" vertex="1" parent="1">
          <mxGeometry x="-760" y="765" width="591" height="470" as="geometry" />
        </mxCell>
        <mxCell id="S7bD0g3zB5Y7_rrcbHBR-158" value="" style="endArrow=classic;html=1;rounded=0;" edge="1" parent="1">
          <mxGeometry width="50" height="50" relative="1" as="geometry">
            <mxPoint x="200" y="970" as="sourcePoint" />
            <mxPoint x="130" y="970" as="targetPoint" />
          </mxGeometry>
        </mxCell>
        <mxCell id="S7bD0g3zB5Y7_rrcbHBR-159" value="" style="curved=1;endArrow=classic;html=1;rounded=0;exitX=0;exitY=0.5;exitDx=0;exitDy=0;" edge="1" parent="1" source="S7bD0g3zB5Y7_rrcbHBR-156" target="S7bD0g3zB5Y7_rrcbHBR-157">
          <mxGeometry width="50" height="50" relative="1" as="geometry">
            <mxPoint x="-120" y="1020" as="sourcePoint" />
            <mxPoint x="-70" y="970" as="targetPoint" />
            <Array as="points">
              <mxPoint x="-70" y="1020" />
              <mxPoint x="-80" y="990" />
              <mxPoint x="-120" y="970" />
            </Array>
          </mxGeometry>
        </mxCell>
        <mxCell id="S7bD0g3zB5Y7_rrcbHBR-160" value="Teoria que respalda" style="text;html=1;align=center;verticalAlign=middle;whiteSpace=wrap;rounded=0;" vertex="1" parent="1">
          <mxGeometry x="-130" y="980" width="60" height="30" as="geometry" />
        </mxCell>
        <mxCell id="S7bD0g3zB5Y7_rrcbHBR-161" value="Responsables" style="whiteSpace=wrap;html=1;align=center;" vertex="1" parent="1">
          <mxGeometry x="290" y="1520" width="100" height="40" as="geometry" />
        </mxCell>
        <mxCell id="S7bD0g3zB5Y7_rrcbHBR-162" value="&lt;u&gt;Legajo&lt;/u&gt;&lt;div&gt;nomYApellido&lt;/div&gt;&lt;div&gt;cargo&lt;/div&gt;&lt;div&gt;telefono&lt;/div&gt;&lt;div&gt;mail&lt;/div&gt;" style="ellipse;whiteSpace=wrap;html=1;align=center;" vertex="1" parent="1">
          <mxGeometry x="170" y="1510" width="100" height="80" as="geometry" />
        </mxCell>
        <mxCell id="S7bD0g3zB5Y7_rrcbHBR-163" value="" style="endArrow=none;html=1;rounded=0;exitX=0;exitY=0.5;exitDx=0;exitDy=0;entryX=1;entryY=0.5;entryDx=0;entryDy=0;" edge="1" parent="1" source="S7bD0g3zB5Y7_rrcbHBR-161" target="S7bD0g3zB5Y7_rrcbHBR-162">
          <mxGeometry relative="1" as="geometry">
            <mxPoint x="540" y="1005" as="sourcePoint" />
            <mxPoint x="600" y="995" as="targetPoint" />
          </mxGeometry>
        </mxCell>
        <mxCell id="S7bD0g3zB5Y7_rrcbHBR-164" value="Oficiales" style="whiteSpace=wrap;html=1;align=center;" vertex="1" parent="1">
          <mxGeometry x="160" y="1330" width="100" height="40" as="geometry" />
        </mxCell>
        <mxCell id="S7bD0g3zB5Y7_rrcbHBR-165" value="DirectorObra" style="whiteSpace=wrap;html=1;align=center;" vertex="1" parent="1">
          <mxGeometry x="280" y="1330" width="100" height="40" as="geometry" />
        </mxCell>
        <mxCell id="S7bD0g3zB5Y7_rrcbHBR-166" value="EncargadoObrador" style="whiteSpace=wrap;html=1;align=center;" vertex="1" parent="1">
          <mxGeometry x="400" y="1330" width="110" height="40" as="geometry" />
        </mxCell>
        <mxCell id="S7bD0g3zB5Y7_rrcbHBR-167" value="&lt;font style=&quot;color: rgb(255, 153, 153);&quot;&gt;S&lt;/font&gt;" style="ellipse;whiteSpace=wrap;html=1;align=center;" vertex="1" parent="1">
          <mxGeometry x="320" y="1415" width="40" height="40" as="geometry" />
        </mxCell>
        <mxCell id="S7bD0g3zB5Y7_rrcbHBR-168" value="" style="shape=link;html=1;rounded=0;entryX=0.5;entryY=1;entryDx=0;entryDy=0;exitX=0.5;exitY=0;exitDx=0;exitDy=0;" edge="1" parent="1" source="S7bD0g3zB5Y7_rrcbHBR-161" target="S7bD0g3zB5Y7_rrcbHBR-167">
          <mxGeometry relative="1" as="geometry">
            <mxPoint x="370" y="1650" as="sourcePoint" />
            <mxPoint x="450" y="1445" as="targetPoint" />
          </mxGeometry>
        </mxCell>
        <mxCell id="S7bD0g3zB5Y7_rrcbHBR-169" value="" style="resizable=0;html=1;whiteSpace=wrap;align=right;verticalAlign=bottom;" connectable="0" vertex="1" parent="S7bD0g3zB5Y7_rrcbHBR-168">
          <mxGeometry x="1" relative="1" as="geometry" />
        </mxCell>
        <mxCell id="S7bD0g3zB5Y7_rrcbHBR-170" value="" style="endArrow=none;html=1;rounded=0;exitX=0;exitY=0.5;exitDx=0;exitDy=0;entryX=0.5;entryY=1;entryDx=0;entryDy=0;" edge="1" parent="1" source="S7bD0g3zB5Y7_rrcbHBR-167" target="S7bD0g3zB5Y7_rrcbHBR-164">
          <mxGeometry relative="1" as="geometry">
            <mxPoint x="320" y="1395" as="sourcePoint" />
            <mxPoint x="240" y="1510" as="targetPoint" />
          </mxGeometry>
        </mxCell>
        <mxCell id="S7bD0g3zB5Y7_rrcbHBR-171" value="" style="endArrow=none;html=1;rounded=0;exitX=0.5;exitY=0;exitDx=0;exitDy=0;entryX=0.5;entryY=1;entryDx=0;entryDy=0;" edge="1" parent="1" source="S7bD0g3zB5Y7_rrcbHBR-167" target="S7bD0g3zB5Y7_rrcbHBR-165">
          <mxGeometry relative="1" as="geometry">
            <mxPoint x="330" y="1445" as="sourcePoint" />
            <mxPoint x="250" y="1520" as="targetPoint" />
          </mxGeometry>
        </mxCell>
        <mxCell id="S7bD0g3zB5Y7_rrcbHBR-172" value="" style="endArrow=none;html=1;rounded=0;exitX=1;exitY=0.5;exitDx=0;exitDy=0;entryX=0.5;entryY=1;entryDx=0;entryDy=0;" edge="1" parent="1" source="S7bD0g3zB5Y7_rrcbHBR-167" target="S7bD0g3zB5Y7_rrcbHBR-166">
          <mxGeometry relative="1" as="geometry">
            <mxPoint x="330" y="1445" as="sourcePoint" />
            <mxPoint x="465" y="1510" as="targetPoint" />
          </mxGeometry>
        </mxCell>
        <mxCell id="S7bD0g3zB5Y7_rrcbHBR-176" value="Como no se detalla información sobre si un trabajador podría ocupar 2 puestos a la vez, entonces la restricción es de solapamiento (por falta de información)" style="shape=note;whiteSpace=wrap;html=1;backgroundOutline=1;darkOpacity=0.05;fillColor=#FFFFCC;" vertex="1" parent="1">
          <mxGeometry x="70" y="1385" width="170" height="115" as="geometry" />
        </mxCell>
        <mxCell id="S7bD0g3zB5Y7_rrcbHBR-177" value="" style="curved=1;endArrow=classic;html=1;rounded=0;exitX=0;exitY=1;exitDx=0;exitDy=0;entryX=0.994;entryY=0.557;entryDx=0;entryDy=0;entryPerimeter=0;" edge="1" parent="1" source="S7bD0g3zB5Y7_rrcbHBR-167" target="S7bD0g3zB5Y7_rrcbHBR-176">
          <mxGeometry width="50" height="50" relative="1" as="geometry">
            <mxPoint x="250" y="1490" as="sourcePoint" />
            <mxPoint x="300" y="1440" as="targetPoint" />
            <Array as="points">
              <mxPoint x="300" y="1490" />
              <mxPoint x="250" y="1440" />
            </Array>
          </mxGeometry>
        </mxCell>
        <mxCell id="S7bD0g3zB5Y7_rrcbHBR-179" value="Uso-Tipo" style="shape=rhombus;perimeter=rhombusPerimeter;whiteSpace=wrap;html=1;align=center;" vertex="1" parent="1">
          <mxGeometry x="180" y="1200" width="100" height="60" as="geometry" />
        </mxCell>
        <mxCell id="S7bD0g3zB5Y7_rrcbHBR-182" value="0:N" style="endArrow=none;html=1;rounded=0;exitX=0.5;exitY=1;exitDx=0;exitDy=0;entryX=0.5;entryY=0;entryDx=0;entryDy=0;" edge="1" parent="1" source="S7bD0g3zB5Y7_rrcbHBR-179" target="S7bD0g3zB5Y7_rrcbHBR-164">
          <mxGeometry relative="1" as="geometry">
            <mxPoint x="290" y="1280" as="sourcePoint" />
            <mxPoint x="450" y="1280" as="targetPoint" />
          </mxGeometry>
        </mxCell>
        <mxCell id="S7bD0g3zB5Y7_rrcbHBR-183" value="&lt;font style=&quot;color: rgb(255, 102, 102);&quot;&gt;0&lt;/font&gt;:M" style="endArrow=none;html=1;rounded=0;exitX=0.5;exitY=1;exitDx=0;exitDy=0;entryX=0.5;entryY=0;entryDx=0;entryDy=0;" edge="1" parent="1" source="S7bD0g3zB5Y7_rrcbHBR-151" target="S7bD0g3zB5Y7_rrcbHBR-179">
          <mxGeometry relative="1" as="geometry">
            <mxPoint x="260" y="1160" as="sourcePoint" />
            <mxPoint x="260" y="1220" as="targetPoint" />
          </mxGeometry>
        </mxCell>
        <mxCell id="S7bD0g3zB5Y7_rrcbHBR-184" value="Un Oficial puede no estar calificado para usar ningun tipo de maquina" style="shape=note;whiteSpace=wrap;html=1;backgroundOutline=1;darkOpacity=0.05;fillColor=#FFFFCC;" vertex="1" parent="1">
          <mxGeometry x="-10" y="1100" width="110" height="110" as="geometry" />
        </mxCell>
        <mxCell id="S7bD0g3zB5Y7_rrcbHBR-186" value="" style="curved=1;endArrow=classic;html=1;rounded=0;" edge="1" parent="1" target="S7bD0g3zB5Y7_rrcbHBR-184">
          <mxGeometry width="50" height="50" relative="1" as="geometry">
            <mxPoint x="210" y="1180" as="sourcePoint" />
            <mxPoint x="180" y="1150" as="targetPoint" />
            <Array as="points">
              <mxPoint x="180" y="1200" />
              <mxPoint x="130" y="1150" />
            </Array>
          </mxGeometry>
        </mxCell>
        <mxCell id="S7bD0g3zB5Y7_rrcbHBR-187" value="&lt;u&gt;codigo&lt;/u&gt;&lt;div&gt;descripcion&lt;/div&gt;" style="ellipse;whiteSpace=wrap;html=1;align=center;" vertex="1" parent="1">
          <mxGeometry x="105" y="1070" width="100" height="40" as="geometry" />
        </mxCell>
        <mxCell id="S7bD0g3zB5Y7_rrcbHBR-188" value="Obras" style="whiteSpace=wrap;html=1;align=center;" vertex="1" parent="1">
          <mxGeometry x="600" y="1315" width="100" height="40" as="geometry" />
        </mxCell>
        <mxCell id="S7bD0g3zB5Y7_rrcbHBR-189" value="&lt;u&gt;codigoObra&lt;/u&gt;&lt;div&gt;nombre&lt;/div&gt;" style="ellipse;whiteSpace=wrap;html=1;align=center;" vertex="1" parent="1">
          <mxGeometry x="720" y="1260" width="100" height="40" as="geometry" />
        </mxCell>
        <mxCell id="S7bD0g3zB5Y7_rrcbHBR-190" value="" style="endArrow=none;html=1;rounded=0;exitX=1;exitY=0.5;exitDx=0;exitDy=0;entryX=0;entryY=0.5;entryDx=0;entryDy=0;" edge="1" parent="1" source="S7bD0g3zB5Y7_rrcbHBR-188" target="S7bD0g3zB5Y7_rrcbHBR-189">
          <mxGeometry relative="1" as="geometry">
            <mxPoint x="590" y="1360" as="sourcePoint" />
            <mxPoint x="750" y="1360" as="targetPoint" />
          </mxGeometry>
        </mxCell>
        <mxCell id="S7bD0g3zB5Y7_rrcbHBR-191" value="direccion" style="ellipse;whiteSpace=wrap;html=1;align=center;" vertex="1" parent="1">
          <mxGeometry x="730" y="1315" width="100" height="40" as="geometry" />
        </mxCell>
        <mxCell id="S7bD0g3zB5Y7_rrcbHBR-192" value="nro" style="ellipse;whiteSpace=wrap;html=1;align=center;" vertex="1" parent="1">
          <mxGeometry x="850" y="1280" width="80" height="30" as="geometry" />
        </mxCell>
        <mxCell id="S7bD0g3zB5Y7_rrcbHBR-193" value="calle" style="ellipse;whiteSpace=wrap;html=1;align=center;" vertex="1" parent="1">
          <mxGeometry x="850" y="1330" width="80" height="30" as="geometry" />
        </mxCell>
        <mxCell id="S7bD0g3zB5Y7_rrcbHBR-194" value="" style="endArrow=none;html=1;rounded=0;entryX=0;entryY=0.5;entryDx=0;entryDy=0;exitX=1;exitY=0.5;exitDx=0;exitDy=0;" edge="1" parent="1" source="S7bD0g3zB5Y7_rrcbHBR-188" target="S7bD0g3zB5Y7_rrcbHBR-191">
          <mxGeometry relative="1" as="geometry">
            <mxPoint x="720" y="1360" as="sourcePoint" />
            <mxPoint x="760" y="1320" as="targetPoint" />
          </mxGeometry>
        </mxCell>
        <mxCell id="S7bD0g3zB5Y7_rrcbHBR-195" value="" style="endArrow=none;html=1;rounded=0;entryX=0;entryY=0.5;entryDx=0;entryDy=0;exitX=1;exitY=0.5;exitDx=0;exitDy=0;" edge="1" parent="1" source="S7bD0g3zB5Y7_rrcbHBR-191" target="S7bD0g3zB5Y7_rrcbHBR-192">
          <mxGeometry relative="1" as="geometry">
            <mxPoint x="730" y="1370" as="sourcePoint" />
            <mxPoint x="770" y="1390" as="targetPoint" />
          </mxGeometry>
        </mxCell>
        <mxCell id="S7bD0g3zB5Y7_rrcbHBR-196" value="" style="endArrow=none;html=1;rounded=0;entryX=0;entryY=0.5;entryDx=0;entryDy=0;exitX=1;exitY=0.5;exitDx=0;exitDy=0;" edge="1" parent="1" source="S7bD0g3zB5Y7_rrcbHBR-191" target="S7bD0g3zB5Y7_rrcbHBR-193">
          <mxGeometry relative="1" as="geometry">
            <mxPoint x="870" y="1390" as="sourcePoint" />
            <mxPoint x="910" y="1355" as="targetPoint" />
          </mxGeometry>
        </mxCell>
        <mxCell id="S7bD0g3zB5Y7_rrcbHBR-197" value="Localidades" style="whiteSpace=wrap;html=1;align=center;" vertex="1" parent="1">
          <mxGeometry x="600" y="1470" width="100" height="40" as="geometry" />
        </mxCell>
        <mxCell id="S7bD0g3zB5Y7_rrcbHBR-198" value="Provincia" style="whiteSpace=wrap;html=1;align=center;" vertex="1" parent="1">
          <mxGeometry x="600" y="1660" width="100" height="40" as="geometry" />
        </mxCell>
        <mxCell id="S7bD0g3zB5Y7_rrcbHBR-199" value="&lt;u&gt;numeroProv&lt;/u&gt;&lt;div&gt;nombre&lt;/div&gt;" style="ellipse;whiteSpace=wrap;html=1;align=center;" vertex="1" parent="1">
          <mxGeometry x="720" y="1660" width="100" height="40" as="geometry" />
        </mxCell>
        <mxCell id="S7bD0g3zB5Y7_rrcbHBR-200" value="&lt;u&gt;codigoPostal&lt;/u&gt;&lt;div&gt;nombreLocalidad&lt;/div&gt;" style="ellipse;whiteSpace=wrap;html=1;align=center;" vertex="1" parent="1">
          <mxGeometry x="710" y="1470.0000000000002" width="110" height="50" as="geometry" />
        </mxCell>
        <mxCell id="S7bD0g3zB5Y7_rrcbHBR-201" value="" style="endArrow=none;html=1;rounded=0;entryX=0;entryY=0.5;entryDx=0;entryDy=0;exitX=1;exitY=0.5;exitDx=0;exitDy=0;" edge="1" parent="1" source="S7bD0g3zB5Y7_rrcbHBR-197" target="S7bD0g3zB5Y7_rrcbHBR-200">
          <mxGeometry relative="1" as="geometry">
            <mxPoint x="920" y="1380" as="sourcePoint" />
            <mxPoint x="950" y="1400" as="targetPoint" />
          </mxGeometry>
        </mxCell>
        <mxCell id="S7bD0g3zB5Y7_rrcbHBR-202" value="" style="endArrow=none;html=1;rounded=0;exitX=1;exitY=0.5;exitDx=0;exitDy=0;entryX=0;entryY=0.5;entryDx=0;entryDy=0;" edge="1" parent="1" source="S7bD0g3zB5Y7_rrcbHBR-198" target="S7bD0g3zB5Y7_rrcbHBR-199">
          <mxGeometry relative="1" as="geometry">
            <mxPoint x="920" y="1510" as="sourcePoint" />
            <mxPoint x="940" y="1580" as="targetPoint" />
          </mxGeometry>
        </mxCell>
        <mxCell id="S7bD0g3zB5Y7_rrcbHBR-203" value="1:1" style="endArrow=none;html=1;rounded=0;exitX=0.5;exitY=1;exitDx=0;exitDy=0;" edge="1" parent="1" source="S7bD0g3zB5Y7_rrcbHBR-205" target="S7bD0g3zB5Y7_rrcbHBR-198">
          <mxGeometry relative="1" as="geometry">
            <mxPoint x="490" y="1270" as="sourcePoint" />
            <mxPoint x="710" y="1405" as="targetPoint" />
          </mxGeometry>
        </mxCell>
        <mxCell id="S7bD0g3zB5Y7_rrcbHBR-204" value="&lt;font style=&quot;color: rgb(255, 102, 102);&quot;&gt;0&lt;/font&gt;:M" style="endArrow=none;html=1;rounded=0;exitX=0.5;exitY=1;exitDx=0;exitDy=0;entryX=0.5;entryY=0;entryDx=0;entryDy=0;" edge="1" parent="1" source="S7bD0g3zB5Y7_rrcbHBR-197" target="S7bD0g3zB5Y7_rrcbHBR-205">
          <mxGeometry relative="1" as="geometry">
            <mxPoint x="700" y="1535" as="sourcePoint" />
            <mxPoint x="700" y="1610" as="targetPoint" />
          </mxGeometry>
        </mxCell>
        <mxCell id="S7bD0g3zB5Y7_rrcbHBR-205" value="Pertenece" style="shape=rhombus;perimeter=rhombusPerimeter;whiteSpace=wrap;html=1;align=center;" vertex="1" parent="1">
          <mxGeometry x="590" y="1560" width="120" height="60" as="geometry" />
        </mxCell>
        <mxCell id="S7bD0g3zB5Y7_rrcbHBR-206" value="Consulta 1" style="shape=parallelogram;perimeter=parallelogramPerimeter;whiteSpace=wrap;html=1;fixedSize=1;fillColor=#66B2FF;" vertex="1" parent="1">
          <mxGeometry x="720" y="1530" width="110" height="47.5" as="geometry" />
        </mxCell>
        <mxCell id="S7bD0g3zB5Y7_rrcbHBR-207" value="En caso de que se cargue localidad Provincia primero, la misma (en un principio) puede no tener localidades asignadas" style="shape=note;whiteSpace=wrap;html=1;backgroundOutline=1;darkOpacity=0.05;fillColor=#FFFFCC;" vertex="1" parent="1">
          <mxGeometry x="420" y="1550" width="120" height="120" as="geometry" />
        </mxCell>
        <mxCell id="S7bD0g3zB5Y7_rrcbHBR-209" value="Realiza" style="shape=rhombus;perimeter=rhombusPerimeter;whiteSpace=wrap;html=1;align=center;" vertex="1" parent="1">
          <mxGeometry x="590" y="1385" width="120" height="60" as="geometry" />
        </mxCell>
        <mxCell id="S7bD0g3zB5Y7_rrcbHBR-210" value="&lt;font style=&quot;color: rgb(255, 102, 102);&quot;&gt;1&lt;/font&gt;:1" style="endArrow=none;html=1;rounded=0;exitX=0.5;exitY=1;exitDx=0;exitDy=0;entryX=0.5;entryY=0;entryDx=0;entryDy=0;" edge="1" parent="1" source="S7bD0g3zB5Y7_rrcbHBR-209" target="S7bD0g3zB5Y7_rrcbHBR-197">
          <mxGeometry relative="1" as="geometry">
            <mxPoint x="560" y="1350" as="sourcePoint" />
            <mxPoint x="720" y="1350" as="targetPoint" />
          </mxGeometry>
        </mxCell>
        <mxCell id="S7bD0g3zB5Y7_rrcbHBR-211" value="0:M" style="endArrow=none;html=1;rounded=0;exitX=0.5;exitY=0;exitDx=0;exitDy=0;entryX=0.5;entryY=1;entryDx=0;entryDy=0;" edge="1" parent="1" source="S7bD0g3zB5Y7_rrcbHBR-209" target="S7bD0g3zB5Y7_rrcbHBR-188">
          <mxGeometry relative="1" as="geometry">
            <mxPoint x="560" y="1350" as="sourcePoint" />
            <mxPoint x="720" y="1350" as="targetPoint" />
          </mxGeometry>
        </mxCell>
        <mxCell id="S7bD0g3zB5Y7_rrcbHBR-212" value="Una obra no puede no estar ubicada en ninguna localidad" style="shape=note;whiteSpace=wrap;html=1;backgroundOutline=1;darkOpacity=0.05;fillColor=#FFFFCC;" vertex="1" parent="1">
          <mxGeometry x="780" y="1380" width="120" height="75" as="geometry" />
        </mxCell>
        <mxCell id="S7bD0g3zB5Y7_rrcbHBR-215" value="" style="curved=1;endArrow=classic;html=1;rounded=0;entryX=0;entryY=0;entryDx=120;entryDy=30;entryPerimeter=0;" edge="1" parent="1" target="S7bD0g3zB5Y7_rrcbHBR-207">
          <mxGeometry width="50" height="50" relative="1" as="geometry">
            <mxPoint x="630" y="1540" as="sourcePoint" />
            <mxPoint x="537" y="1597" as="targetPoint" />
            <Array as="points">
              <mxPoint x="590" y="1590" />
              <mxPoint x="610" y="1530" />
            </Array>
          </mxGeometry>
        </mxCell>
        <mxCell id="S7bD0g3zB5Y7_rrcbHBR-216" value="" style="curved=1;endArrow=classic;html=1;rounded=0;entryX=0;entryY=0.5;entryDx=0;entryDy=0;entryPerimeter=0;" edge="1" parent="1" target="S7bD0g3zB5Y7_rrcbHBR-212">
          <mxGeometry width="50" height="50" relative="1" as="geometry">
            <mxPoint x="670" y="1460" as="sourcePoint" />
            <mxPoint x="760" y="1410" as="targetPoint" />
            <Array as="points">
              <mxPoint x="760" y="1460" />
              <mxPoint x="710" y="1410" />
            </Array>
          </mxGeometry>
        </mxCell>
        <mxCell id="S7bD0g3zB5Y7_rrcbHBR-217" value="Con el atributo &lt;b&gt;estado&lt;/b&gt;&amp;nbsp;es más que suficiente para plasmar si la maquina esta: en reparación, solicitada, retirada o disponible. No es necesario agregar el atributo: &lt;b&gt;estadoReparación&lt;/b&gt;. Hacer esto en la vida real puede llevar a recaer en gastos no pactados para el cliente o para los desarrolladores." style="shape=note;whiteSpace=wrap;html=1;backgroundOutline=1;darkOpacity=0.05;fillColor=#FFFFCC;" vertex="1" parent="1">
          <mxGeometry x="-110" y="780" width="230" height="140" as="geometry" />
        </mxCell>
        <mxCell id="S7bD0g3zB5Y7_rrcbHBR-219" value="" style="curved=1;endArrow=classic;html=1;rounded=0;entryX=0;entryY=0;entryDx=230;entryDy=30;entryPerimeter=0;exitX=0.017;exitY=0.663;exitDx=0;exitDy=0;exitPerimeter=0;" edge="1" parent="1" source="S7bD0g3zB5Y7_rrcbHBR-124" target="S7bD0g3zB5Y7_rrcbHBR-217">
          <mxGeometry width="50" height="50" relative="1" as="geometry">
            <mxPoint x="145" y="805" as="sourcePoint" />
            <mxPoint x="205" y="765" as="targetPoint" />
            <Array as="points">
              <mxPoint x="150" y="860" />
              <mxPoint x="170" y="840" />
              <mxPoint x="120" y="840" />
              <mxPoint x="155" y="800" />
            </Array>
          </mxGeometry>
        </mxCell>
        <mxCell id="S7bD0g3zB5Y7_rrcbHBR-220" value="1:M" style="endArrow=none;html=1;rounded=0;fillColor=#FF6666;strokeColor=#FF6666;exitX=1;exitY=0.5;exitDx=0;exitDy=0;entryX=0;entryY=0.5;entryDx=0;entryDy=0;" edge="1" parent="1" source="S7bD0g3zB5Y7_rrcbHBR-123" target="S7bD0g3zB5Y7_rrcbHBR-221">
          <mxGeometry relative="1" as="geometry">
            <mxPoint x="390" y="990" as="sourcePoint" />
            <mxPoint x="550" y="990" as="targetPoint" />
          </mxGeometry>
        </mxCell>
        <mxCell id="S7bD0g3zB5Y7_rrcbHBR-221" value="Reserva" style="shape=rhombus;perimeter=rhombusPerimeter;whiteSpace=wrap;html=1;align=center;strokeColor=#FF6666;" vertex="1" parent="1">
          <mxGeometry x="490" y="1000" width="120" height="60" as="geometry" />
        </mxCell>
        <mxCell id="S7bD0g3zB5Y7_rrcbHBR-222" value="1:P" style="endArrow=none;html=1;rounded=0;fillColor=#FF6666;strokeColor=#FF6666;exitX=1;exitY=0.5;exitDx=0;exitDy=0;entryX=0.5;entryY=0;entryDx=0;entryDy=0;" edge="1" parent="1" source="S7bD0g3zB5Y7_rrcbHBR-221" target="S7bD0g3zB5Y7_rrcbHBR-188">
          <mxGeometry relative="1" as="geometry">
            <mxPoint x="630" y="1070" as="sourcePoint" />
            <mxPoint x="840" y="1180" as="targetPoint" />
          </mxGeometry>
        </mxCell>
        <mxCell id="S7bD0g3zB5Y7_rrcbHBR-223" value="" style="endArrow=none;html=1;rounded=0;fillColor=#FF6666;strokeColor=#FF6666;exitX=0.5;exitY=1;exitDx=0;exitDy=0;" edge="1" parent="1" source="S7bD0g3zB5Y7_rrcbHBR-221">
          <mxGeometry relative="1" as="geometry">
            <mxPoint x="550" y="1070" as="sourcePoint" />
            <mxPoint x="550" y="1460" as="targetPoint" />
          </mxGeometry>
        </mxCell>
        <mxCell id="S7bD0g3zB5Y7_rrcbHBR-225" value="1:N" style="edgeLabel;html=1;align=center;verticalAlign=middle;resizable=0;points=[];" connectable="0" vertex="1" parent="S7bD0g3zB5Y7_rrcbHBR-223">
          <mxGeometry x="-0.12" y="1" relative="1" as="geometry">
            <mxPoint as="offset" />
          </mxGeometry>
        </mxCell>
        <mxCell id="S7bD0g3zB5Y7_rrcbHBR-224" value="" style="endArrow=none;html=1;rounded=0;fillColor=#FF6666;strokeColor=#FF6666;exitX=1;exitY=0.5;exitDx=0;exitDy=0;" edge="1" parent="1" source="S7bD0g3zB5Y7_rrcbHBR-161">
          <mxGeometry relative="1" as="geometry">
            <mxPoint x="620" y="1040" as="sourcePoint" />
            <mxPoint x="550" y="1460" as="targetPoint" />
          </mxGeometry>
        </mxCell>
        <mxCell id="S7bD0g3zB5Y7_rrcbHBR-226" value="Ya que cumple con las 3 reglas obligatoria para validar una relación ternaria (ver carpeta)" style="shape=note;whiteSpace=wrap;html=1;backgroundOutline=1;darkOpacity=0.05;fillColor=#FFFFCC;" vertex="1" parent="1">
          <mxGeometry x="720" y="950" width="160" height="110" as="geometry" />
        </mxCell>
        <mxCell id="S7bD0g3zB5Y7_rrcbHBR-228" value="" style="curved=1;endArrow=classic;html=1;rounded=0;exitX=1;exitY=0.5;exitDx=0;exitDy=0;entryX=-0.012;entryY=0.255;entryDx=0;entryDy=0;entryPerimeter=0;" edge="1" parent="1" source="S7bD0g3zB5Y7_rrcbHBR-221" target="S7bD0g3zB5Y7_rrcbHBR-226">
          <mxGeometry width="50" height="50" relative="1" as="geometry">
            <mxPoint x="650" y="1025" as="sourcePoint" />
            <mxPoint x="700" y="975" as="targetPoint" />
            <Array as="points">
              <mxPoint x="700" y="1025" />
              <mxPoint x="650" y="975" />
            </Array>
          </mxGeometry>
        </mxCell>
        <mxCell id="S7bD0g3zB5Y7_rrcbHBR-229" value="&lt;span style=&quot;border-bottom: 1px dotted&quot;&gt;fecha_Hora&lt;/span&gt;&lt;div&gt;fechaActividad&lt;/div&gt;&lt;div&gt;estadoReserva&lt;/div&gt;&lt;div&gt;hs_uso&lt;br&gt;fechaCancelacion&lt;/div&gt;" style="ellipse;whiteSpace=wrap;html=1;align=center;" vertex="1" parent="1">
          <mxGeometry x="475" y="920" width="170" height="80" as="geometry" />
        </mxCell>
        <mxCell id="FEtqIP9Gfn4TNrCct0bj-1" value="" style="endArrow=none;html=1;rounded=0;strokeColor=#FF6666;" edge="1" parent="1">
          <mxGeometry width="50" height="50" relative="1" as="geometry">
            <mxPoint x="280" y="290" as="sourcePoint" />
            <mxPoint x="550" y="90" as="targetPoint" />
          </mxGeometry>
        </mxCell>
        <mxCell id="FEtqIP9Gfn4TNrCct0bj-2" value="" style="endArrow=none;html=1;rounded=0;strokeColor=#FF6666;" edge="1" parent="1">
          <mxGeometry width="50" height="50" relative="1" as="geometry">
            <mxPoint x="150" y="100" as="sourcePoint" />
            <mxPoint x="590" y="360" as="targetPoint" />
          </mxGeometry>
        </mxCell>
        <mxCell id="FEtqIP9Gfn4TNrCct0bj-3" value="" style="curved=1;endArrow=classic;html=1;rounded=0;" edge="1" parent="1">
          <mxGeometry width="50" height="50" relative="1" as="geometry">
            <mxPoint x="360" y="230" as="sourcePoint" />
            <mxPoint x="-30" y="200" as="targetPoint" />
            <Array as="points">
              <mxPoint x="345" y="240" />
              <mxPoint x="295" y="190" />
            </Array>
          </mxGeometry>
        </mxCell>
        <mxCell id="FEtqIP9Gfn4TNrCct0bj-4" value="NO EXISTE LA AGREGACION DE 2 RELACIONES" style="shape=note;whiteSpace=wrap;html=1;backgroundOutline=1;darkOpacity=0.05;fillColor=#FFFFCC;" vertex="1" parent="1">
          <mxGeometry x="-260" y="150" width="220" height="90" as="geometry" />
        </mxCell>
        <mxCell id="FEtqIP9Gfn4TNrCct0bj-8" value="Respuesta: Correcto, se debería detallar la doble línea pero la misma no es obligatoria" style="shape=note;whiteSpace=wrap;html=1;backgroundOutline=1;darkOpacity=0.05;fillColor=#FF99FF;" vertex="1" parent="1">
          <mxGeometry x="-159" y="1020" width="249" height="80" as="geometry" />
        </mxCell>
        <mxCell id="FEtqIP9Gfn4TNrCct0bj-9" value="Respuesta dada" style="shape=parallelogram;perimeter=parallelogramPerimeter;whiteSpace=wrap;html=1;fixedSize=1;fillColor=#FF99FF;" vertex="1" parent="1">
          <mxGeometry x="710" y="1590" width="120" height="40" as="geometry" />
        </mxCell>
      </root>
    </mxGraphModel>
  </diagram>
</mxfile>
